<?xml version="1.0" encoding="utf-8"?>
<!-- Generator: Adobe Illustrator 21.0.0, SVG Export Plug-In . SVG Version: 6.00 Build 0)  -->
<svg version="1.1" id="Capa_1" xmlns="http://www.w3.org/2000/svg" xmlns:xlink="http://www.w3.org/1999/xlink" x="0px" y="0px"
	 viewBox="0 0 124.6 124.6" style="enable-background:new 0 0 124.6 124.6;" xml:space="preserve">
<style type="text/css">
	.st0{fill:#7C9FD7;}
</style>
<g>
	<g>
		<circle class="st0" cx="62.4" cy="12.9" r="12.9"/>
		<path class="st0" d="M23.4,33.1c-0.9,0-1.2,0.8-1.3,1.3h2.4C24.6,33.9,24.4,33.1,23.4,33.1z"/>
		<path class="st0" d="M113.3,34.4c0-6.4-5.2-11.5-11.5-11.5S90.3,28,90.3,34.4c0,4.4,2.5,8.2,6.1,10.2c-9.7-0.9-15.4-6.4-20.1-10.9
			c-1.6-1.5-3-2.9-4.5-4c-1.7-1.5-3.9-2.6-6.1-3.2l-3.2,3.2l-3.1-3.3c0,0,0,0,0,0c-2,0.5-4,1.4-5.6,2.7c-1.8,1.1-3.4,2.7-5.3,4.5
			c-4.9,4.7-10.9,10.5-21.5,10.9c4.3-1.6,7.4-5.8,7.4-10.7c0-6.4-5.1-11.5-11.5-11.5s-11.5,5.1-11.5,11.5s5.1,11.5,11.5,11.5
			c0.1,0,0.2,0,0.3,0c-1.5,0.9-2.5,2.5-2.5,4.3c0,2.8,2.2,5,5,5c10.6,0,18.2-4.1,23.6-8.4v19.9c0,1.6,0.4,3.1,1,4.4
			c0,0.1,0,0.1,0,0.2l0,47.9c0,3.3,2.6,5.9,5.9,5.9c0,0,0,0,0,0c3.3,0,5.9-2.6,5.9-5.9l0-41.1c0.1,0,0.3,0,0.4,0c0.2,0,0.3,0,0.5,0
			l0,41.1c0,3.3,2.6,5.9,5.9,5.9c3.3,0,5.9-2.6,5.9-5.9l0-47.9c0-0.1,0-0.2,0-0.3c0.6-1.3,0.9-2.7,0.9-4.2V46.5
			c5.4,4.2,12.9,8.2,23.4,8.2c2.8,0,5-2.2,5-5c0-1.5-0.7-2.9-1.8-3.8C108.4,45.6,113.3,40.6,113.3,34.4z M29.3,35.8
			c-1.3-0.5-1.9-1.2-1.9-2c0-1.2,1-2.1,2.7-2.1c0.8,0,1.4,0.2,1.8,0.4l-0.4,1.4c-0.3-0.2-0.9-0.4-1.4-0.4c-0.5,0-0.8,0.2-0.8,0.5
			c0,0.3,0.3,0.5,1.1,0.7c1.2,0.4,1.8,1.1,1.8,2c0,1.2-1,2.1-2.8,2.1c-0.9,0-1.6-0.2-2.1-0.5l0.4-1.5c0.4,0.2,1.1,0.5,1.7,0.5
			c0.6,0,0.9-0.2,0.9-0.5C30.3,36.2,30.1,36.1,29.3,35.8z M18.2,38.4h-2v-3.7l-2.8-5.3h2.3l0.9,2.2c0.3,0.7,0.5,1.1,0.7,1.7h0
			c0.2-0.6,0.4-1.1,0.7-1.7l0.9-2.2h2.3l-3,5.2V38.4z M20.2,35.2c0-1.7,1-3.5,3.3-3.5c2.1,0,2.9,1.6,2.9,3.3c0,0.3,0,0.7-0.1,0.8
			h-4.2c0.1,0.8,0.9,1.2,1.8,1.2c0.7,0,1.3-0.1,1.8-0.3l0.3,1.4c-0.7,0.3-1.5,0.4-2.4,0.4C21.5,38.5,20.2,37.3,20.2,35.2z
			 M62.4,55.3L62.4,55.3L59.3,51l3.1-20.8h0.1l0.5,3.2c0,0.2,0,0.3,0.1,0.5L65.5,51L62.4,55.3z M94.7,29.2h2.4l1.9,3.3
			c0.5,0.9,1.1,2.1,1.5,3.1h0c-0.1-1.2-0.2-2.4-0.2-3.8v-2.6h1.9v9h-2.1l-1.9-3.5c-0.5-1-1.1-2.1-1.6-3.2l0,0
			c0.1,1.2,0.1,2.5,0.1,3.9v2.7h-1.9C94.7,38.2,94.7,29.2,94.7,29.2z M106.9,38.3c-1.9,0-3.4-1.3-3.4-3.4c0-2.1,1.4-3.5,3.5-3.5
			c2,0,3.3,1.4,3.3,3.3C110.3,37.2,108.6,38.3,106.9,38.3z"/>
		<path class="st0" d="M106.9,32.9c-1,0-1.3,1-1.3,2c0,1.1,0.5,2,1.3,2c0.8,0,1.3-0.8,1.3-2C108.2,33.9,107.8,32.9,106.9,32.9z"/>
	</g>
</g>
</svg>
