<?xml version="1.0" encoding="utf-8"?>
<!-- Generator: Adobe Illustrator 21.0.0, SVG Export Plug-In . SVG Version: 6.00 Build 0)  -->
<svg version="1.1" id="Capa_1" xmlns="http://www.w3.org/2000/svg" xmlns:xlink="http://www.w3.org/1999/xlink" x="0px" y="0px"
	 viewBox="0 0 512 512" style="enable-background:new 0 0 512 512;" xml:space="preserve">
<style type="text/css">
	.st0{fill:#DACE8D;}
</style>
<g>
	<path d="M0,256.1c0.6,10.5,7.6,19.4,17.8,22.5l187.6,56.7l6.9,129.3c0.3,5.1,3.8,9.6,8.7,11.3c1.4,0.5,2.8,0.7,4.2,0.7
		c3.7,0,7.1-1.5,9.6-4.3l66.3-73.4l94,65.1c4.2,2.9,9.1,4.5,14.2,4.5c11.8,0,22-8.4,24.5-20.1l78-397.6c0.9-4.6-0.8-9.4-4.4-12.3
		c-3.7-3-8.6-3.8-12.9-2L15.1,231.5C5.4,235.9-0.6,245.5,0,256.1z M236.1,432.4l-4.3-81.6l48,33.2L236.1,432.4z M408.8,442.4
		L237.7,323.9l239.9-232L408.8,442.4z M451.3,81.7L214.1,311.1L26.8,254.5L451.3,81.7z"/>
</g>
<polygon class="st0" points="26.8,254.5 451.3,81.7 214.1,311.1 "/>
<polygon class="st0" points="237.7,323.9 477.6,91.9 408.8,442.4 "/>
<polygon class="st0" points="236.1,432.4 231.8,350.9 279.8,384.1 "/>
</svg>
