<?xml version="1.0" encoding="utf-8"?>
<!-- Generator: Adobe Illustrator 21.0.0, SVG Export Plug-In . SVG Version: 6.00 Build 0)  -->
<svg version="1.1" id="Layer_1" xmlns="http://www.w3.org/2000/svg" xmlns:xlink="http://www.w3.org/1999/xlink" x="0px" y="0px"
	 viewBox="0 0 511.8 511.8" style="enable-background:new 0 0 511.8 511.8;" xml:space="preserve">
<style type="text/css">
	.st0{fill:#DACE8D;stroke:#000000;stroke-miterlimit:10;}
</style>
<polyline class="st0" points="482,34 190,320 287,498 500,17 "/>
<polygon class="st0" points="14,222 491,17 190,320 "/>
<g>
	<g>
		<path d="M511.7,9.8c-0.1-0.9-0.2-1.7-0.5-2.6c-0.1-0.3-0.2-0.7-0.3-1.1c-0.5-1.2-1.3-2.2-2.1-3.2c-1-0.9-2-1.6-3.2-2.1
			c-0.3-0.1-0.7-0.3-1.1-0.3c-0.9-0.2-1.7-0.4-2.6-0.4c-0.4,0-0.7,0-1.2,0c-1,0-2,0.2-3,0.5c-0.2,0.1-0.4,0.1-0.6,0.2H497L6.4,214
			c-5.4,2.3-7.9,8.6-5.5,14.1c1,2.2,2.7,4.1,4.8,5.1L184,327.6l94.5,178.3c1.8,3.5,5.4,5.7,9.4,5.8h0.4c4.1-0.1,7.7-2.7,9.4-6.4
			L511,14.8v-0.1c0.1-0.2,0.1-0.4,0.2-0.6c0.3-1,0.5-1.9,0.5-3C511.7,10.7,511.8,10.2,511.7,9.8z M35.3,224.5L454.2,42.4l-264.1,264
			L35.3,224.5z M287.2,476.4l-81.9-154.8l264-264.1L287.2,476.4z"/>
	</g>
</g>
</svg>
