<?xml version="1.0" encoding="utf-8"?>
<!-- Generator: Adobe Illustrator 21.0.0, SVG Export Plug-In . SVG Version: 6.00 Build 0)  -->
<svg version="1.1" id="Capa_1" xmlns="http://www.w3.org/2000/svg" xmlns:xlink="http://www.w3.org/1999/xlink" x="0px" y="0px"
	 viewBox="0 0 492.3 512" style="enable-background:new 0 0 492.3 512;" xml:space="preserve">
<style type="text/css">
	.st0{fill:#DACE8D;}
	.st1{fill:#000307;}
	.st2{fill:#000102;}
</style>
<rect class="st0" width="492.3" height="512"/>
<g>
	<path class="st1" d="M128,237.7c30.2,0,54.8-24.6,54.8-54.8c0-30.2-24.6-54.8-54.8-54.8s-54.8,24.6-54.8,54.8S97.8,237.7,128,237.7
		z M128,147.7c19.4,0,35.1,15.8,35.1,35.1S147.4,218,128,218s-35.1-15.8-35.1-35.1S108.6,147.7,128,147.7z"/>
	<path class="st2" d="M0,0v393.8V512h492.3V393.8V0H0z M19.7,19.7h452.9v263.2L371,189.7c-1.9-1.8-4.5-2.6-7.1-2.6
		c-2.6,0.1-5.1,1.3-6.8,3.2l-96.4,105.6l-46.7-46.7c-3.7-3.7-9.6-3.9-13.5-0.4L35.7,393.8h-16V19.7z M472.6,492.3H19.7v-78.8h452.9
		V492.3z M65.5,393.8l141-124.2l101.4,101.4c3.8,3.8,10.1,3.8,13.9,0c3.8-3.8,3.8-10.1,0-13.9l-47.3-47.3l90.4-99l107.7,98.7v84.3
		H65.5z"/>
</g>
</svg>
