<?xml version="1.0" encoding="utf-8"?>
<!-- Generator: Adobe Illustrator 21.0.0, SVG Export Plug-In . SVG Version: 6.00 Build 0)  -->
<svg version="1.1" id="Layer_1" xmlns="http://www.w3.org/2000/svg" xmlns:xlink="http://www.w3.org/1999/xlink" x="0px" y="0px"
	 viewBox="0 0 512 342" style="enable-background:new 0 0 512 342;" xml:space="preserve">
<style type="text/css">
	.st0{fill:#DACE8D;}
</style>
<rect x="19" y="292" class="st0" width="474" height="26"/>
<rect x="9" y="14" class="st0" width="489" height="288"/>
<g>
	<g>
		<path d="M501.8,4.5H10.2C4.6,4.5,0,9,0,14.7v268.7c0,28.8,23.4,52.2,52.2,52.2h407.7c28.8,0,52.2-23.4,52.2-52.2V14.7
			C512,9,507.4,4.5,501.8,4.5z M491.6,283.4c0,17.5-14.2,31.8-31.8,31.8H52.2c-17.5,0-31.8-14.3-31.8-31.8V36.9l229.1,187.6
			c1.9,1.5,4.2,2.3,6.5,2.3c2.3,0,4.6-0.8,6.5-2.3L439.8,79.7c4.4-3.6,5-10,1.4-14.4c-3.6-4.4-10-5-14.4-1.4L256,203.4L37.9,24.9
			h453.7V283.4z"/>
	</g>
</g>
<g>
	<g>
		<path d="M469.9,41.9c-3.6-4.4-10-5-14.4-1.4l-3.1,2.5c-4.4,3.6-5,10-1.4,14.4c2,2.5,4.9,3.7,7.9,3.7c2.3,0,4.6-0.8,6.4-2.3
			l3.1-2.5C472.8,52.6,473.5,46.2,469.9,41.9z"/>
	</g>
</g>
</svg>
