<?xml version="1.0" encoding="utf-8"?>
<!-- Generator: Adobe Illustrator 21.0.0, SVG Export Plug-In . SVG Version: 6.00 Build 0)  -->
<svg version="1.1" id="Capa_1" xmlns="http://www.w3.org/2000/svg" xmlns:xlink="http://www.w3.org/1999/xlink" x="0px" y="0px"
	 viewBox="0 0 512 447" style="enable-background:new 0 0 512 447;" xml:space="preserve">
<style type="text/css">
	.st0{fill:#DACE8D;}
</style>
<circle class="st0" cx="47" cy="161.3" r="33.7"/>
<circle class="st0" cx="174" cy="161.3" r="33.7"/>
<circle class="st0" cx="339" cy="160.6" r="33.7"/>
<circle class="st0" cx="468" cy="161" r="33.7"/>
<rect x="197" y="217.5" class="st0" width="115" height="51"/>
<rect x="459" y="161.3" class="st0" width="39" height="119"/>
<rect x="300" y="144" class="st0" width="39" height="119"/>
<rect x="12" y="158" class="st0" width="39" height="119"/>
<rect x="173" y="144" class="st0" width="39" height="119"/>
<rect x="346" y="124" class="st0" width="108.5" height="300"/>
<rect x="58" y="127" class="st0" width="108.5" height="300"/>
<circle class="st0" cx="400.3" cy="68.3" r="54.3"/>
<circle class="st0" cx="112.3" cy="68.3" r="54.3"/>
<g>
	<g>
		<path d="M456,116.8h-13.8c13.3-11.7,21.8-28.9,21.8-48c0-35.3-28.7-64-64-64s-64,28.7-64,64c0,19.1,8.5,36.3,21.8,48H344
			c-30.9,0-56,25.1-56,56v40h-32h-32v-40c0-30.9-25.1-56-56-56h-13.8c13.3-11.7,21.8-28.9,21.8-48c0-35.3-28.7-64-64-64
			s-64,28.7-64,64c0,19.1,8.5,36.3,21.8,48H56c-30.9,0-56,25.1-56,56v112c0,4.4,3.6,8,8,8h40v136c0,4.4,3.6,8,8,8h56h56
			c4.4,0,8-3.6,8-8V268.6c6.7,5.1,15,8.2,24,8.2h56h56c9,0,17.3-3.1,24-8.2v160.2c0,4.4,3.6,8,8,8h56h56c4.4,0,8-3.6,8-8v-136h40
			c4.4,0,8-3.6,8-8v-112C512,142,486.9,116.8,456,116.8z M64,68.8c0-26.5,21.5-48,48-48s48,21.5,48,48s-21.5,48-48,48
			S64,95.3,64,68.8z M248,260.8h-48c-13.2,0-24-10.8-24-24v-24v-40h-16v40v24v184h-40v-144h-16v144H64v-248H48v104H16v-104
			c0-22.1,17.9-40,40-40h112c22.1,0,40,17.9,40,40v48c0,4.4,3.6,8,8,8h32V260.8z M352,68.8c0-26.5,21.5-48,48-48s48,21.5,48,48
			s-21.5,48-48,48S352,95.3,352,68.8z M496,276.8h-32v-104h-16v248h-40v-144h-16v144h-40v-184v-24v-40h-16v40v24
			c0,13.2-10.8,24-24,24h-48v-32h32c4.4,0,8-3.6,8-8v-48c0-22.1,17.9-40,40-40h112c22.1,0,40,17.9,40,40V276.8z"/>
	</g>
</g>
</svg>
