<?xml version="1.0" encoding="utf-8"?>
<!-- Generator: Adobe Illustrator 21.0.0, SVG Export Plug-In . SVG Version: 6.00 Build 0)  -->
<svg version="1.1" id="Layer_1" xmlns="http://www.w3.org/2000/svg" xmlns:xlink="http://www.w3.org/1999/xlink" x="0px" y="0px"
	 viewBox="0 0 503.5 503.5" style="enable-background:new 0 0 503.5 503.5;" xml:space="preserve">
<style type="text/css">
	.st0{fill:#DACE8D;}
	.st1{fill:#51565F;}
</style>
<g transform="translate(1 1)">
	<path class="st0" d="M91.6,322.2l-2.6,1.7l-24.7,23c-5.1,7.7-4.3,20.5,6,29.9c10.2,10.2,22.2,10.2,29.9,6l-6,6
		c-10.2,10.2-10.2,26.5,0,35.8c10.2,10.2,26.5,10.2,36.7,0l6-6c-9.4,10.2-9.4,25.6,0,35.8c10.2,10.2,26.5,10.2,36.7,0l23.9-23.9
		l-35.8-35.8l-35.8-35.8l-6-6l6,6l35.8,35.8l35.8,35.8l37.5,37.5l17.1,17.1c10.2,10.2,26.5,10.2,35.8,0c10.2-10.2,10.2-26.5,0-35.8
		l11.9,11.9c10.2,10.2,26.5,10.2,35.8,0c10.2-10.2,10.2-26.5,0-36.7l11.9,11.9c10.2,10.2,26.5,10.2,36.7,0s10.2-26.5,0-36.7
		L360.4,376c10.2,10.2,26.5,10.2,35.8,0c10.2-10.2,10.2-26.5,0-36.7l-17.9-17.9l35.8-35.8c23.9-23.9,17.9-83.6,41.8-108.4l21.3-21.3
		L365.5,44l-47.8,47.8c-23.9,23.9-48.6,0-72.5,23.9l-35.8,35.8l-0.9-0.9L136,78.1L29.3,184.8l25.6,25.6
		C77.1,235.2,67.7,282.1,91.6,322.2L91.6,322.2z M93.3,325.6L93.3,325.6L93.3,325.6L93.3,325.6z M234.1,469l-24.7,23
		c-7.7,4.3-20.5,4.3-29.9-6c-6-6-8.5-13.7-8.5-19.6c0-4.3,0.9-7.7,2.6-10.2l23.9-23.9L234.1,469z"/>
	<path class="st0" d="M430.4,28.7c5.1,0,8.5,4.3,8.5,8.5s-3.4,8.5-8.5,8.5s-8.5-4.3-8.5-8.5S425.2,28.7,430.4,28.7z M72,62.8
		c4.3,0,8.5,4.3,8.5,8.5s-4.3,8.5-8.5,8.5s-8.5-4.3-8.5-8.5S67.7,62.8,72,62.8z"/>
</g>
<path class="st1" d="M199.3,503.3c-7.7,0-15.4-2.6-22.2-9.4c-7.7-7.7-10.2-16.2-10.2-23.9c-10.2,4.3-23.9,1.7-32.4-6.8
	c-6-6-8.5-12.8-8.5-21.3c0-0.9,0-1.7,0-3.4c-11.1,5.1-24.7,3.4-33.3-6C82.3,422.2,81.5,406,89.2,394c-6.8,0-14.5-3.4-20.5-10.2
	c-11.9-11.9-11.9-27.3-6.8-35.8c1.7-1.7,4.3-2.6,6-0.9c1.7,1.7,2.6,4.3,0.9,6c-3.4,5.1-3.4,16.2,5.1,24.7s18.8,8.5,24.7,5.1
	c1.7-0.9,4.3-0.9,5.1,0.9c1.7,1.7,0.9,4.3,0,6l-6,6c-4.3,4.3-6,9.4-6,15.4s2.6,11.1,6,15.4c8.5,8.5,22.2,8.5,29.9,0l6-6l0,0
	c1.7-1.7,4.3-1.7,6,0c1.7,1.7,1.7,4.3,0,6l0,0c-4.3,4.3-6,9.4-6,15.4s2.6,11.1,6,15.4c7.7,7.7,22.2,7.7,29.9,0c1.7-1.7,4.3-1.7,6,0
	c1.7,1.7,1.7,3.4,0.9,6c-3.4,6-3.4,16.2,5.1,24.7c8.5,8.5,18.8,8.5,25.6,5.1c1.7-0.9,4.3,0,6,1.7c0.9,1.7,0,4.3-1.7,6
	C208.6,502.4,204.4,503.3,199.3,503.3z M270.1,502.4c-7.7,0-15.4-2.6-21.3-8.5L103.7,348.8c-24.7-24.7-29.9-54.6-35-81.9
	c-3.4-19.6-6-36.7-16.2-46.1c-1.7-1.7-1.7-4.3,0-6c1.7-1.7,4.3-1.7,6,0c11.9,11.9,15.4,30.7,18.8,51.2c4.3,25.6,9.4,53.8,32.4,76.8
	l145.1,145.1c8.5,8.5,22.2,8.5,29.9,0c8.5-8.5,8.5-22.2,0-29.9l0,0l-78.5-78.5c-0.9-0.9-0.9-1.7-0.9-3.4s0-2.6,0.9-3.4
	c1.7-1.7,4.3-1.7,6,0l90.5,90.5c7.7,7.7,22.2,7.7,29.9,0c4.3-4.3,6-9.4,6-15.4s-2.6-11.1-6-15.4l0,0L235.9,336
	c-0.9-0.9-0.9-1.7-0.9-3.4s0-2.6,0.9-3.4c1.7-1.7,4.3-1.7,6,0l96.4,96.4l0,0l11.9,11.9c8.5,8.5,22.2,8.5,29.9,0
	c4.3-4.3,6-9.4,6-15.4s-2.6-11.1-6-15.4l-23.9-23.9l0,0l-90.5-90.5c-0.9-0.9-0.9-1.7-0.9-3.4s0-2.6,0.9-3.4c1.7-1.7,4.3-1.7,6,0
	l90.5,90.5c7.7,7.7,22.2,7.7,29.9,0c4.3-4.3,6-9.4,6-15.4s-2.6-11.1-6-15.4l-90.5-90.5c-1.7-1.7-1.7-4.3,0-6c1.7-1.7,4.3-1.7,6,0
	l90.5,90.5c11.9,11.9,11.9,30.7,0,42.7c-6,6-13.7,8.5-21.3,8.5l9.4,9.4c6,6,8.5,12.8,8.5,21.3c0,7.7-3.4,15.4-8.5,21.3
	c-11.1,11.1-28.2,11.9-39.3,2.6c0,7.7-2.6,15.4-8.5,21.3c-6,6-12.8,8.5-21.3,8.5l0,0c-6.8,0-12.8-2.6-18.8-6
	c0,7.7-2.6,15.4-8.5,21.3C285.4,499,277.8,502.4,270.1,502.4z M403.2,307.8c-0.9,0-2.6,0-3.4-0.9c-1.7-1.7-1.7-4.3,0-6l11.9-11.9
	c11.1-11.1,15.4-31.6,19.6-52.1c4.3-21.3,9.4-43.5,22.2-56.3c1.7-1.7,4.3-1.7,6,0s1.7,4.3,0,6c-11.1,11.1-15.4,31.6-19.6,52.1
	c-4.3,21.3-9.4,43.5-22.2,56.3L405.8,307C404.9,307,404.1,307.8,403.2,307.8z M173.7,257.5c-10.2,0-19.6-3.4-27.3-11.1l-6-6
	c-2.6-2.6-3.4-6-3.4-9.4c0-3.4,1.7-6.8,3.4-9.4l102.4-102.4c13.7-13.7,27.3-13.7,39.3-13.7c11.9,0,22.2,0,33.3-11.1l23.9-23.9
	c1.7-1.7,4.3-1.7,6,0c1.7,1.7,1.7,4.3,0,6l-23.9,23.9c-13.7,13.7-27.3,13.7-39.3,13.7c-11.9,0-22.2,0-33.3,11.1L146.3,227.6
	c-0.9,0.9-0.9,1.7-0.9,3.4c0,0.9,0.9,2.6,0.9,3.4l6,6c11.1,11.1,30.7,11.1,42.7,0l48.6-48.6c1.7-1.7,4.3-1.7,6,0
	c15.4,15.4,35.8,23.9,57.2,23.9l0,0c21.3,0,41.8-8.5,57.2-23.9c1.7-1.7,4.3-1.7,6,0c1.7,1.7,1.7,4.3,0,6
	c-17.1,17.1-39.3,26.5-63.1,26.5l0,0c-22.2,0-43.5-8.5-60.6-23L201,246.4C193.3,253.2,183.9,257.5,173.7,257.5z M4.7,221.7
	c-0.9,0-2.6,0-3.4-0.9c-1.7-1.7-1.7-4.3,0-6L142.9,73.2L95.1,25.4c-1.7-1.7-1.7-4.3,0-6c1.7-1.7,4.3-1.7,6,0l51.2,51.2
	c1.7,1.7,1.7,4.3,0,6L7.3,221.7C7.3,221.7,5.5,221.7,4.7,221.7z M499.6,187.5c-0.9,0-2.6,0-3.4-0.9L351.1,41.6c-1.7-1.7-1.7-4.3,0-6
	l34.1-34.1c1.7-1.7,4.3-1.7,6,0c1.7,1.7,1.7,4.3,0,6l-30.7,30.7l141.7,141.7c1.7,1.7,1.7,4.3,0,6
	C502.2,187.5,500.5,187.5,499.6,187.5z M185.6,138.9c-0.9,0-2.6,0-3.4-0.9l-23.9-23.9c-0.9-0.9-0.9-1.7-0.9-3.4s0-2.6,0.9-3.4
	c1.7-1.7,4.3-1.7,6,0l23.9,23.9c0.9,0.9,0.9,1.7,0.9,3.4s0,2.6-0.9,3.4C187.3,138.9,187.3,138.9,185.6,138.9z M73,85.1
	c-6.8,0-12.8-6-12.8-12.8s6-12.8,12.8-12.8s12.8,6,12.8,12.8S79.8,85.1,73,85.1z M73,68.1c-2.6,0-4.3,1.7-4.3,4.3s1.7,4.3,4.3,4.3
	s4.3-1.7,4.3-4.3S75.5,68.1,73,68.1z M431.4,51c-6.8,0-12.8-6-12.8-12.8s6-12.8,12.8-12.8s12.8,6,12.8,12.8S438.2,51,431.4,51z
	 M431.4,33.9c-2.6,0-4.3,1.7-4.3,4.3s1.7,4.3,4.3,4.3s4.3-1.7,4.3-4.3S433.9,33.9,431.4,33.9z"/>
</svg>
