<?xml version="1.0" standalone="no"?><!-- Generator: Gravit.io --><svg xmlns="http://www.w3.org/2000/svg" xmlns:xlink="http://www.w3.org/1999/xlink" style="isolation:isolate" viewBox="0 -1 227.462 60.968" ><path d=" M 10.296 25.539 L 10.296 25.539 Q 13.032 25.539 15.246 26.853 L 15.246 26.853 L 15.246 26.853 Q 17.46 28.167 18.738 30.453 L 18.738 30.453 L 18.738 30.453 Q 20.016 32.739 20.016 35.547 L 20.016 35.547 L 20.016 35.547 Q 20.016 38.355 18.702 40.659 L 18.702 40.659 L 18.702 40.659 Q 17.388 42.963 15.102 44.277 L 15.102 44.277 L 15.102 44.277 Q 12.816 45.591 10.008 45.591 L 10.008 45.591 L 10.008 45.591 Q 7.2 45.591 4.914 44.277 L 4.914 44.277 L 4.914 44.277 Q 2.628 42.963 1.314 40.659 L 1.314 40.659 L 1.314 40.659 Q 0 38.355 0 35.547 L 0 35.547 L 0 27.087 L 0 27.087 Q 0 26.871 0.036 26.763 L 0.036 26.763 L 0.036 18.699 L 0.036 18.699 Q 0.036 18.087 0.414 17.691 L 0.414 17.691 L 0.414 17.691 Q 0.792 17.295 1.404 17.295 L 1.404 17.295 L 1.404 17.295 Q 2.016 17.295 2.412 17.691 L 2.412 17.691 L 2.412 17.691 Q 2.808 18.087 2.808 18.699 L 2.808 18.699 L 2.808 29.247 L 2.808 29.247 Q 4.068 27.519 6.012 26.529 L 6.012 26.529 L 6.012 26.529 Q 7.956 25.539 10.296 25.539 L 10.296 25.539 Z  M 10.008 43.071 L 10.008 43.071 Q 12.06 43.071 13.734 42.081 L 13.734 42.081 L 13.734 42.081 Q 15.408 41.091 16.362 39.381 L 16.362 39.381 L 16.362 39.381 Q 17.316 37.671 17.316 35.547 L 17.316 35.547 L 17.316 35.547 Q 17.316 33.423 16.362 31.713 L 16.362 31.713 L 16.362 31.713 Q 15.408 30.003 13.734 29.031 L 13.734 29.031 L 13.734 29.031 Q 12.06 28.059 10.008 28.059 L 10.008 28.059 L 10.008 28.059 Q 7.164 28.059 5.166 29.859 L 5.166 29.859 L 5.166 29.859 Q 3.168 31.659 2.808 34.467 L 2.808 34.467 L 2.808 34.467 Q 2.808 34.575 2.772 34.647 L 2.772 34.647 L 2.772 34.647 Q 2.736 34.935 2.736 35.547 L 2.736 35.547 L 2.736 35.547 Q 2.736 37.671 3.69 39.381 L 3.69 39.381 L 3.69 39.381 Q 4.644 41.091 6.3 42.081 L 6.3 42.081 L 6.3 42.081 Q 7.956 43.071 10.008 43.071 L 10.008 43.071 Z  M 41.94 25.719 L 41.94 25.719 Q 42.552 25.719 42.948 26.097 L 42.948 26.097 L 42.948 26.097 Q 43.344 26.475 43.344 27.087 L 43.344 27.087 L 43.344 44.007 L 43.344 44.007 Q 43.344 44.619 42.948 45.015 L 42.948 45.015 L 42.948 45.015 Q 42.552 45.411 41.94 45.411 L 41.94 45.411 L 41.94 45.411 Q 41.328 45.411 40.95 45.015 L 40.95 45.015 L 40.95 45.015 Q 40.572 44.619 40.572 44.007 L 40.572 44.007 L 40.572 42.783 L 40.572 42.783 Q 39.384 44.115 37.692 44.871 L 37.692 44.871 L 37.692 44.871 Q 36 45.627 34.02 45.627 L 34.02 45.627 L 34.02 45.627 Q 31.464 45.627 29.43 44.547 L 29.43 44.547 L 29.43 44.547 Q 27.396 43.467 26.244 41.397 L 26.244 41.397 L 26.244 41.397 Q 25.092 39.327 25.092 36.447 L 25.092 36.447 L 25.092 27.087 L 25.092 27.087 Q 25.092 26.511 25.488 26.115 L 25.488 26.115 L 25.488 26.115 Q 25.884 25.719 26.46 25.719 L 26.46 25.719 L 26.46 25.719 Q 27.072 25.719 27.468 26.115 L 27.468 26.115 L 27.468 26.115 Q 27.864 26.511 27.864 27.087 L 27.864 27.087 L 27.864 36.447 L 27.864 36.447 Q 27.864 39.651 29.646 41.325 L 29.646 41.325 L 29.646 41.325 Q 31.428 42.999 34.308 42.999 L 34.308 42.999 L 34.308 42.999 Q 36.072 42.999 37.494 42.315 L 37.494 42.315 L 37.494 42.315 Q 38.916 41.631 39.744 40.425 L 39.744 40.425 L 39.744 40.425 Q 40.572 39.219 40.572 37.743 L 40.572 37.743 L 40.572 27.087 L 40.572 27.087 Q 40.572 26.475 40.95 26.097 L 40.95 26.097 L 40.95 26.097 Q 41.328 25.719 41.94 25.719 L 41.94 25.719 Z  M 54.072 45.411 L 54.072 45.411 Q 51.876 45.411 50.49 43.665 L 50.49 43.665 L 50.49 43.665 Q 49.104 41.919 49.104 39.183 L 49.104 39.183 L 49.104 18.663 L 49.104 18.663 Q 49.104 18.051 49.5 17.673 L 49.5 17.673 L 49.5 17.673 Q 49.896 17.295 50.472 17.295 L 50.472 17.295 L 50.472 17.295 Q 51.084 17.295 51.462 17.673 L 51.462 17.673 L 51.462 17.673 Q 51.84 18.051 51.84 18.663 L 51.84 18.663 L 51.84 39.183 L 51.84 39.183 Q 51.84 40.731 52.47 41.703 L 52.47 41.703 L 52.47 41.703 Q 53.1 42.675 54.072 42.675 L 54.072 42.675 L 54.972 42.675 L 54.972 42.675 Q 55.512 42.675 55.836 43.053 L 55.836 43.053 L 55.836 43.053 Q 56.16 43.431 56.16 44.043 L 56.16 44.043 L 56.16 44.043 Q 56.16 44.655 55.71 45.033 L 55.71 45.033 L 55.71 45.033 Q 55.26 45.411 54.54 45.411 L 54.54 45.411 L 54.072 45.411 Z  M 68.94 25.539 L 68.94 25.539 Q 71.748 25.539 74.034 26.853 L 74.034 26.853 L 74.034 26.853 Q 76.32 28.167 77.634 30.471 L 77.634 30.471 L 77.634 30.471 Q 78.948 32.775 78.948 35.583 L 78.948 35.583 L 78.948 44.043 L 78.948 44.043 Q 78.948 44.619 78.552 45.015 L 78.552 45.015 L 78.552 45.015 Q 78.156 45.411 77.544 45.411 L 77.544 45.411 L 77.544 45.411 Q 76.932 45.411 76.536 45.033 L 76.536 45.033 L 76.536 45.033 Q 76.14 44.655 76.14 44.043 L 76.14 44.043 L 76.14 41.883 L 76.14 41.883 Q 74.88 43.611 72.936 44.601 L 72.936 44.601 L 72.936 44.601 Q 70.992 45.591 68.652 45.591 L 68.652 45.591 L 68.652 45.591 Q 65.916 45.591 63.702 44.277 L 63.702 44.277 L 63.702 44.277 Q 61.488 42.963 60.21 40.677 L 60.21 40.677 L 60.21 40.677 Q 58.932 38.391 58.932 35.583 L 58.932 35.583 L 58.932 35.583 Q 58.932 32.775 60.246 30.471 L 60.246 30.471 L 60.246 30.471 Q 61.56 28.167 63.846 26.853 L 63.846 26.853 L 63.846 26.853 Q 66.132 25.539 68.94 25.539 L 68.94 25.539 Z  M 68.94 43.071 L 68.94 43.071 Q 70.992 43.071 72.648 42.099 L 72.648 42.099 L 72.648 42.099 Q 74.304 41.127 75.258 39.417 L 75.258 39.417 L 75.258 39.417 Q 76.212 37.707 76.212 35.583 L 76.212 35.583 L 76.212 35.583 Q 76.212 33.459 75.258 31.749 L 75.258 31.749 L 75.258 31.749 Q 74.304 30.039 72.648 29.049 L 72.648 29.049 L 72.648 29.049 Q 70.992 28.059 68.94 28.059 L 68.94 28.059 L 68.94 28.059 Q 66.888 28.059 65.214 29.049 L 65.214 29.049 L 65.214 29.049 Q 63.54 30.039 62.586 31.749 L 62.586 31.749 L 62.586 31.749 Q 61.632 33.459 61.632 35.583 L 61.632 35.583 L 61.632 35.583 Q 61.632 37.707 62.586 39.417 L 62.586 39.417 L 62.586 39.417 Q 63.54 41.127 65.214 42.099 L 65.214 42.099 L 65.214 42.099 Q 66.888 43.071 68.94 43.071 L 68.94 43.071 Z " fill-rule="evenodd" fill="rgb(124,159,215)"/><path d=" M 95.679 35.598 C 95.528 35.676 94.99 35.959 94.63 36.225 C 94.269 36.491 93.356 37.829 93.356 37.829 C 93.282 37.887 88.798 27.881 83.348 15.498 L 83.348 15.498 L 82.757 14.149 L 81.888 12.729 L 80.214 10.228 L 80.904 13.36 L 81.291 14.357 L 81.817 15.837 L 81.817 15.837 C 87.085 27.865 91.48 38.051 91.624 38.569 C 91.624 38.569 92.578 41.522 92.93 42.339 C 93.479 43.617 94.516 44.685 95.909 45.24 C 97.303 45.795 98.79 45.734 100.067 45.184 C 100.147 45.15 100.225 45.114 100.303 45.075 L 99.493 43.414 C 99.441 43.439 99.389 43.463 99.337 43.486 C 98.494 43.848 97.513 43.889 96.594 43.522 C 95.674 43.156 94.99 42.451 94.628 41.608 C 94.266 40.766 94.225 39.785 94.591 38.866 C 94.935 38.003 95.576 37.348 96.349 36.971 L 95.679 35.598 Z  M 105.101 4.773 L 101.874 12.869 C 101.689 13.334 101.567 13.567 102.115 13.727 C 102.241 13.765 102.364 13.795 102.484 13.82 C 102.533 13.827 102.582 13.836 102.629 13.848 C 103.272 14.012 104.058 13.894 104.616 13.577 C 105.649 13.038 106.358 11.887 106.895 10.54 L 108.465 6.602 C 109.004 5.249 110.553 4.583 111.906 5.122 C 113.259 5.662 113.925 7.21 113.386 8.564 L 111.816 12.501 C 111.916 12.542 110.782 14.494 111.381 16.246 L 102.793 37.789 C 102.22 36.626 101.232 35.663 99.933 35.146 C 98.858 34.717 97.126 34.852 95.679 35.598 L 96.349 36.971 C 96.401 36.946 96.452 36.922 96.505 36.9 C 97.348 36.538 98.329 36.497 99.248 36.863 C 100.168 37.23 100.851 37.934 101.214 38.777 C 101.576 39.619 101.617 40.6 101.25 41.52 C 100.907 42.382 100.266 43.037 99.493 43.414 L 100.303 45.075 C 101.476 44.504 102.447 43.511 102.968 42.204 C 103.063 41.967 103.14 41.726 103.199 41.484 L 112.63 17.827 C 112.729 17.895 112.835 17.961 112.948 18.025 C 113.699 18.445 113.687 18.074 113.856 17.652 L 117.085 9.549 C 120.245 1.623 108.261 -3.154 105.101 4.773 L 105.101 4.773" fill-rule="evenodd" fill="rgb(67,67,59)"/><path d=" M 104.703 4.374 L 101.232 13.082 C 101.033 13.582 100.903 13.832 101.491 14.005 C 101.627 14.045 101.759 14.078 101.888 14.105 C 104.777 14.874 106.324 13.491 107.281 11.091 L 108.72 7.483 C 109.214 6.243 110.38 5.278 111.619 5.772 C 112.859 6.266 113.231 7.806 112.737 9.046 L 111.17 12.911 C 110.909 13.554 109.591 16.589 113.142 18.626 C 113.944 19.087 113.937 18.679 114.117 18.226 L 117.591 9.512 C 120.99 0.987 108.101 -4.151 104.703 4.374" fill-rule="evenodd" fill="rgb(218,206,141)" vector-effect="non-scaling-stroke" stroke-width="0.3" stroke="rgb(0,0,0)" stroke-linejoin="miter" stroke-linecap="square" stroke-miterlimit="3"/><path d=" M 184.916 59.968 L 184.916 59.968 Q 184.611 59.968 184.395 59.753 L 184.395 59.753 L 184.395 59.753 Q 184.179 59.537 184.179 59.232 L 184.179 59.232 L 184.179 59.232 Q 184.179 58.915 184.401 58.699 L 184.401 58.699 L 184.401 58.699 Q 184.624 58.483 184.916 58.483 L 184.916 58.483 L 184.916 58.483 Q 185.22 58.483 185.436 58.705 L 185.436 58.705 L 185.436 58.705 Q 185.652 58.927 185.652 59.232 L 185.652 59.232 L 185.652 59.232 Q 185.652 59.537 185.436 59.753 L 185.436 59.753 L 185.436 59.753 Q 185.22 59.968 184.916 59.968 L 184.916 59.968 Z  M 189.855 59.829 L 189.855 59.829 Q 189.068 59.829 188.344 59.562 L 188.344 59.562 L 188.344 59.562 Q 187.62 59.296 187.176 58.813 L 187.176 58.813 L 187.176 58.813 Q 187.049 58.661 187.049 58.521 L 187.049 58.521 L 187.049 58.521 Q 187.049 58.305 187.252 58.14 L 187.252 58.14 L 187.252 58.14 Q 187.404 58.026 187.569 58.026 L 187.569 58.026 L 187.569 58.026 Q 187.785 58.026 187.938 58.204 L 187.938 58.204 L 187.938 58.204 Q 188.242 58.559 188.744 58.75 L 188.744 58.75 L 188.744 58.75 Q 189.245 58.94 189.855 58.94 L 189.855 58.94 L 189.855 58.94 Q 190.744 58.94 191.188 58.635 L 191.188 58.635 L 191.188 58.635 Q 191.632 58.331 191.645 57.835 L 191.645 57.835 L 191.645 57.835 Q 191.645 57.378 191.201 57.074 L 191.201 57.074 L 191.201 57.074 Q 190.756 56.769 189.791 56.616 L 189.791 56.616 L 189.791 56.616 Q 188.547 56.413 187.931 55.912 L 187.931 55.912 L 187.931 55.912 Q 187.315 55.41 187.315 54.699 L 187.315 54.699 L 187.315 54.699 Q 187.315 53.772 188.033 53.264 L 188.033 53.264 L 188.033 53.264 Q 188.75 52.756 189.829 52.756 L 189.829 52.756 L 189.829 52.756 Q 190.667 52.756 191.29 53.042 L 191.29 53.042 L 191.29 53.042 Q 191.912 53.328 192.293 53.836 L 192.293 53.836 L 192.293 53.836 Q 192.394 54.001 192.394 54.128 L 192.394 54.128 L 192.394 54.128 Q 192.394 54.344 192.191 54.471 L 192.191 54.471 L 192.191 54.471 Q 192.102 54.534 191.95 54.534 L 191.95 54.534 L 191.95 54.534 Q 191.683 54.534 191.506 54.344 L 191.506 54.344 L 191.506 54.344 Q 190.883 53.633 189.804 53.633 L 189.804 53.633 L 189.804 53.633 Q 189.106 53.633 188.687 53.918 L 188.687 53.918 L 188.687 53.918 Q 188.268 54.204 188.268 54.636 L 188.268 54.636 L 188.268 54.636 Q 188.268 55.093 188.661 55.366 L 188.661 55.366 L 188.661 55.366 Q 189.055 55.639 190.058 55.804 L 190.058 55.804 L 190.058 55.804 Q 191.417 56.032 192.001 56.547 L 192.001 56.547 L 192.001 56.547 Q 192.585 57.061 192.585 57.823 L 192.585 57.823 L 192.585 57.823 Q 192.585 58.407 192.236 58.864 L 192.236 58.864 L 192.236 58.864 Q 191.886 59.321 191.264 59.575 L 191.264 59.575 L 191.264 59.575 Q 190.642 59.829 189.855 59.829 L 189.855 59.829 Z  M 197.334 58.788 L 197.334 58.788 Q 197.537 58.788 197.664 58.927 L 197.664 58.927 L 197.664 58.927 Q 197.791 59.067 197.791 59.283 L 197.791 59.283 L 197.791 59.283 Q 197.791 59.486 197.638 59.626 L 197.638 59.626 L 197.638 59.626 Q 197.486 59.765 197.257 59.765 L 197.257 59.765 L 196.991 59.765 L 196.991 59.765 Q 196.318 59.765 195.784 59.442 L 195.784 59.442 L 195.784 59.442 Q 195.251 59.118 194.953 58.565 L 194.953 58.565 L 194.953 58.565 Q 194.654 58.013 194.654 57.315 L 194.654 57.315 L 194.654 53.925 L 193.829 53.925 L 193.829 53.925 Q 193.626 53.925 193.505 53.804 L 193.505 53.804 L 193.505 53.804 Q 193.385 53.683 193.385 53.506 L 193.385 53.506 L 193.385 53.506 Q 193.385 53.315 193.505 53.195 L 193.505 53.195 L 193.505 53.195 Q 193.626 53.074 193.829 53.074 L 193.829 53.074 L 194.654 53.074 L 194.654 51.106 L 194.654 51.106 Q 194.654 50.89 194.788 50.75 L 194.788 50.75 L 194.788 50.75 Q 194.921 50.611 195.137 50.611 L 195.137 50.611 L 195.137 50.611 Q 195.353 50.611 195.492 50.75 L 195.492 50.75 L 195.492 50.75 Q 195.632 50.89 195.632 51.106 L 195.632 51.106 L 195.632 53.074 L 197.067 53.074 L 197.067 53.074 Q 197.27 53.074 197.391 53.195 L 197.391 53.195 L 197.391 53.195 Q 197.511 53.315 197.511 53.506 L 197.511 53.506 L 197.511 53.506 Q 197.511 53.683 197.391 53.804 L 197.391 53.804 L 197.391 53.804 Q 197.27 53.925 197.067 53.925 L 197.067 53.925 L 195.632 53.925 L 195.632 57.315 L 195.632 57.315 Q 195.632 57.962 196.013 58.375 L 196.013 58.375 L 196.013 58.375 Q 196.394 58.788 196.991 58.788 L 196.991 58.788 L 197.334 58.788 Z  M 205.193 52.82 L 205.193 52.82 Q 205.409 52.82 205.549 52.953 L 205.549 52.953 L 205.549 52.953 Q 205.688 53.087 205.688 53.302 L 205.688 53.302 L 205.688 59.27 L 205.688 59.27 Q 205.688 59.486 205.549 59.626 L 205.549 59.626 L 205.549 59.626 Q 205.409 59.765 205.193 59.765 L 205.193 59.765 L 205.193 59.765 Q 204.977 59.765 204.844 59.626 L 204.844 59.626 L 204.844 59.626 Q 204.711 59.486 204.711 59.27 L 204.711 59.27 L 204.711 58.838 L 204.711 58.838 Q 204.292 59.308 203.695 59.575 L 203.695 59.575 L 203.695 59.575 Q 203.098 59.842 202.4 59.842 L 202.4 59.842 L 202.4 59.842 Q 201.498 59.842 200.781 59.461 L 200.781 59.461 L 200.781 59.461 Q 200.063 59.08 199.657 58.35 L 199.657 58.35 L 199.657 58.35 Q 199.251 57.619 199.251 56.604 L 199.251 56.604 L 199.251 53.302 L 199.251 53.302 Q 199.251 53.099 199.39 52.96 L 199.39 52.96 L 199.39 52.96 Q 199.53 52.82 199.733 52.82 L 199.733 52.82 L 199.733 52.82 Q 199.949 52.82 200.089 52.96 L 200.089 52.96 L 200.089 52.96 Q 200.229 53.099 200.229 53.302 L 200.229 53.302 L 200.229 56.604 L 200.229 56.604 Q 200.229 57.734 200.857 58.324 L 200.857 58.324 L 200.857 58.324 Q 201.486 58.915 202.501 58.915 L 202.501 58.915 L 202.501 58.915 Q 203.123 58.915 203.625 58.673 L 203.625 58.673 L 203.625 58.673 Q 204.127 58.432 204.419 58.007 L 204.419 58.007 L 204.419 58.007 Q 204.711 57.581 204.711 57.061 L 204.711 57.061 L 204.711 53.302 L 204.711 53.302 Q 204.711 53.087 204.844 52.953 L 204.844 52.953 L 204.844 52.953 Q 204.977 52.82 205.193 52.82 L 205.193 52.82 Z  M 214.653 53.188 L 214.653 53.188 Q 214.665 53.226 214.665 53.302 L 214.665 53.302 L 214.665 56.286 L 214.665 56.286 Q 214.665 57.277 214.202 58.089 L 214.202 58.089 L 214.202 58.089 Q 213.738 58.902 212.932 59.365 L 212.932 59.365 L 212.932 59.365 Q 212.126 59.829 211.135 59.829 L 211.135 59.829 L 211.135 59.829 Q 210.145 59.829 209.339 59.365 L 209.339 59.365 L 209.339 59.365 Q 208.532 58.902 208.069 58.089 L 208.069 58.089 L 208.069 58.089 Q 207.606 57.277 207.606 56.286 L 207.606 56.286 L 207.606 56.286 Q 207.606 55.296 208.056 54.49 L 208.056 54.49 L 208.056 54.49 Q 208.507 53.683 209.288 53.22 L 209.288 53.22 L 209.288 53.22 Q 210.069 52.756 211.034 52.756 L 211.034 52.756 L 211.034 52.756 Q 211.859 52.756 212.545 53.106 L 212.545 53.106 L 212.545 53.106 Q 213.23 53.455 213.675 54.064 L 213.675 54.064 L 213.675 50.344 L 213.675 50.344 Q 213.675 50.128 213.815 49.988 L 213.815 49.988 L 213.815 49.988 Q 213.954 49.849 214.17 49.849 L 214.17 49.849 L 214.17 49.849 Q 214.386 49.849 214.519 49.988 L 214.519 49.988 L 214.519 49.988 Q 214.653 50.128 214.653 50.344 L 214.653 50.344 L 214.653 53.188 Z  M 211.135 58.94 L 211.135 58.94 Q 211.859 58.94 212.443 58.591 L 212.443 58.591 L 212.443 58.591 Q 213.027 58.242 213.364 57.639 L 213.364 57.639 L 213.364 57.639 Q 213.7 57.035 213.7 56.286 L 213.7 56.286 L 213.7 56.286 Q 213.7 56.07 213.688 55.969 L 213.688 55.969 L 213.688 55.969 Q 213.675 55.943 213.675 55.905 L 213.675 55.905 L 213.675 55.905 Q 213.548 54.915 212.843 54.28 L 212.843 54.28 L 212.843 54.28 Q 212.138 53.645 211.135 53.645 L 211.135 53.645 L 211.135 53.645 Q 210.412 53.645 209.821 53.988 L 209.821 53.988 L 209.821 53.988 Q 209.231 54.331 208.894 54.934 L 208.894 54.934 L 208.894 54.934 Q 208.558 55.537 208.558 56.286 L 208.558 56.286 L 208.558 56.286 Q 208.558 57.035 208.894 57.639 L 208.894 57.639 L 208.894 57.639 Q 209.231 58.242 209.821 58.591 L 209.821 58.591 L 209.821 58.591 Q 210.412 58.94 211.135 58.94 L 211.135 58.94 Z  M 217.649 59.765 L 217.649 59.765 Q 217.433 59.765 217.294 59.626 L 217.294 59.626 L 217.294 59.626 Q 217.154 59.486 217.154 59.27 L 217.154 59.27 L 217.154 53.315 L 217.154 53.315 Q 217.154 53.099 217.294 52.96 L 217.294 52.96 L 217.294 52.96 Q 217.433 52.82 217.649 52.82 L 217.649 52.82 L 217.649 52.82 Q 217.865 52.82 217.998 52.96 L 217.998 52.96 L 217.998 52.96 Q 218.132 53.099 218.132 53.315 L 218.132 53.315 L 218.132 59.27 L 218.132 59.27 Q 218.132 59.486 217.998 59.626 L 217.998 59.626 L 217.998 59.626 Q 217.865 59.765 217.649 59.765 L 217.649 59.765 Z  M 217.636 51.499 L 217.636 51.499 Q 217.344 51.499 217.148 51.296 L 217.148 51.296 L 217.148 51.296 Q 216.951 51.093 216.951 50.801 L 216.951 50.801 L 216.951 50.801 Q 216.951 50.496 217.154 50.306 L 217.154 50.306 L 217.154 50.306 Q 217.357 50.115 217.649 50.115 L 217.649 50.115 L 217.649 50.115 Q 217.928 50.115 218.132 50.306 L 218.132 50.306 L 218.132 50.306 Q 218.335 50.496 218.335 50.801 L 218.335 50.801 L 218.335 50.801 Q 218.335 51.093 218.132 51.296 L 218.132 51.296 L 218.132 51.296 Q 217.928 51.499 217.636 51.499 L 217.636 51.499 Z  M 223.782 59.829 L 223.782 59.829 Q 222.779 59.829 221.972 59.372 L 221.972 59.372 L 221.972 59.372 Q 221.166 58.915 220.709 58.108 L 220.709 58.108 L 220.709 58.108 Q 220.252 57.302 220.252 56.299 L 220.252 56.299 L 220.252 56.299 Q 220.252 55.296 220.709 54.483 L 220.709 54.483 L 220.709 54.483 Q 221.166 53.671 221.972 53.214 L 221.972 53.214 L 221.972 53.214 Q 222.779 52.756 223.782 52.756 L 223.782 52.756 L 223.782 52.756 Q 224.785 52.756 225.585 53.214 L 225.585 53.214 L 225.585 53.214 Q 226.385 53.671 226.848 54.483 L 226.848 54.483 L 226.848 54.483 Q 227.312 55.296 227.312 56.299 L 227.312 56.299 L 227.312 56.299 Q 227.312 57.302 226.855 58.108 L 226.855 58.108 L 226.855 58.108 Q 226.397 58.915 225.591 59.372 L 225.591 59.372 L 225.591 59.372 Q 224.785 59.829 223.782 59.829 L 223.782 59.829 Z  M 223.782 58.94 L 223.782 58.94 Q 224.518 58.94 225.102 58.597 L 225.102 58.597 L 225.102 58.597 Q 225.686 58.254 226.017 57.651 L 226.017 57.651 L 226.017 57.651 Q 226.347 57.048 226.347 56.299 L 226.347 56.299 L 226.347 56.299 Q 226.347 55.537 226.017 54.934 L 226.017 54.934 L 226.017 54.934 Q 225.686 54.331 225.102 53.988 L 225.102 53.988 L 225.102 53.988 Q 224.518 53.645 223.782 53.645 L 223.782 53.645 L 223.782 53.645 Q 223.058 53.645 222.468 53.988 L 222.468 53.988 L 222.468 53.988 Q 221.877 54.331 221.541 54.934 L 221.541 54.934 L 221.541 54.934 Q 221.204 55.537 221.204 56.299 L 221.204 56.299 L 221.204 56.299 Q 221.204 57.048 221.541 57.651 L 221.541 57.651 L 221.541 57.651 Q 221.877 58.254 222.468 58.597 L 222.468 58.597 L 222.468 58.597 Q 223.058 58.94 223.782 58.94 L 223.782 58.94 Z " fill-rule="evenodd" fill="rgb(124,159,215)"/><path d=" M 126.512 45.627 L 126.512 45.627 Q 123.668 45.627 121.382 44.331 L 121.382 44.331 L 121.382 44.331 Q 119.096 43.035 117.8 40.749 L 117.8 40.749 L 117.8 40.749 Q 116.504 38.463 116.504 35.619 L 116.504 35.619 L 116.504 35.619 Q 116.504 32.775 117.8 30.471 L 117.8 30.471 L 117.8 30.471 Q 119.096 28.167 121.382 26.871 L 121.382 26.871 L 121.382 26.871 Q 123.668 25.575 126.512 25.575 L 126.512 25.575 L 126.512 25.575 Q 129.356 25.575 131.624 26.871 L 131.624 26.871 L 131.624 26.871 Q 133.892 28.167 135.206 30.471 L 135.206 30.471 L 135.206 30.471 Q 136.52 32.775 136.52 35.619 L 136.52 35.619 L 136.52 35.619 Q 136.52 38.463 135.224 40.749 L 135.224 40.749 L 135.224 40.749 Q 133.928 43.035 131.642 44.331 L 131.642 44.331 L 131.642 44.331 Q 129.356 45.627 126.512 45.627 L 126.512 45.627 Z  M 126.512 43.107 L 126.512 43.107 Q 128.6 43.107 130.256 42.135 L 130.256 42.135 L 130.256 42.135 Q 131.912 41.163 132.848 39.453 L 132.848 39.453 L 132.848 39.453 Q 133.784 37.743 133.784 35.619 L 133.784 35.619 L 133.784 35.619 Q 133.784 33.459 132.848 31.749 L 132.848 31.749 L 132.848 31.749 Q 131.912 30.039 130.256 29.067 L 130.256 29.067 L 130.256 29.067 Q 128.6 28.095 126.512 28.095 L 126.512 28.095 L 126.512 28.095 Q 124.46 28.095 122.786 29.067 L 122.786 29.067 L 122.786 29.067 Q 121.112 30.039 120.158 31.749 L 120.158 31.749 L 120.158 31.749 Q 119.204 33.459 119.204 35.619 L 119.204 35.619 L 119.204 35.619 Q 119.204 37.743 120.158 39.453 L 120.158 39.453 L 120.158 39.453 Q 121.112 41.163 122.786 42.135 L 122.786 42.135 L 122.786 42.135 Q 124.46 43.107 126.512 43.107 L 126.512 43.107 Z  M 150.704 45.627 L 150.704 45.627 Q 147.896 45.627 145.664 44.313 L 145.664 44.313 L 145.664 44.313 Q 143.432 42.999 142.154 40.713 L 142.154 40.713 L 142.154 40.713 Q 140.876 38.427 140.876 35.619 L 140.876 35.619 L 140.876 35.619 Q 140.876 32.739 142.1 30.453 L 142.1 30.453 L 142.1 30.453 Q 143.324 28.167 145.484 26.871 L 145.484 26.871 L 145.484 26.871 Q 147.644 25.575 150.344 25.575 L 150.344 25.575 L 150.344 25.575 Q 154.844 25.575 157.652 29.031 L 157.652 29.031 L 157.652 29.031 Q 157.94 29.355 157.94 29.787 L 157.94 29.787 L 157.94 29.787 Q 157.94 30.363 157.328 30.795 L 157.328 30.795 L 157.328 30.795 Q 157.004 31.011 156.644 31.011 L 156.644 31.011 L 156.644 31.011 Q 156.104 31.011 155.6 30.471 L 155.6 30.471 L 155.6 30.471 Q 154.52 29.283 153.224 28.689 L 153.224 28.689 L 153.224 28.689 Q 151.928 28.095 150.344 28.095 L 150.344 28.095 L 150.344 28.095 Q 148.364 28.095 146.816 29.049 L 146.816 29.049 L 146.816 29.049 Q 145.268 30.003 144.422 31.731 L 144.422 31.731 L 144.422 31.731 Q 143.576 33.459 143.576 35.619 L 143.576 35.619 L 143.576 35.619 Q 143.576 37.743 144.476 39.453 L 144.476 39.453 L 144.476 39.453 Q 145.376 41.163 146.996 42.135 L 146.996 42.135 L 146.996 42.135 Q 148.616 43.107 150.704 43.107 L 150.704 43.107 L 150.704 43.107 Q 153.584 43.107 155.348 41.559 L 155.348 41.559 L 155.348 41.559 Q 155.816 41.163 156.32 41.163 L 156.32 41.163 L 156.32 41.163 Q 156.752 41.163 157.112 41.451 L 157.112 41.451 L 157.112 41.451 Q 157.616 41.883 157.616 42.423 L 157.616 42.423 L 157.616 42.423 Q 157.616 42.891 157.256 43.215 L 157.256 43.215 L 157.256 43.215 Q 154.664 45.627 150.704 45.627 L 150.704 45.627 Z  M 172.7 25.539 L 172.7 25.539 Q 175.256 25.539 177.29 26.619 L 177.29 26.619 L 177.29 26.619 Q 179.324 27.699 180.476 29.769 L 180.476 29.769 L 180.476 29.769 Q 181.628 31.839 181.628 34.719 L 181.628 34.719 L 181.628 44.079 L 181.628 44.079 Q 181.628 44.655 181.232 45.051 L 181.232 45.051 L 181.232 45.051 Q 180.836 45.447 180.26 45.447 L 180.26 45.447 L 180.26 45.447 Q 179.648 45.447 179.252 45.051 L 179.252 45.051 L 179.252 45.051 Q 178.856 44.655 178.856 44.079 L 178.856 44.079 L 178.856 34.719 L 178.856 34.719 Q 178.856 31.515 177.074 29.841 L 177.074 29.841 L 177.074 29.841 Q 175.292 28.167 172.412 28.167 L 172.412 28.167 L 172.412 28.167 Q 170.648 28.167 169.226 28.851 L 169.226 28.851 L 169.226 28.851 Q 167.804 29.535 166.976 30.741 L 166.976 30.741 L 166.976 30.741 Q 166.148 31.947 166.148 33.423 L 166.148 33.423 L 166.148 44.079 L 166.148 44.079 Q 166.148 44.691 165.77 45.069 L 165.77 45.069 L 165.77 45.069 Q 165.392 45.447 164.78 45.447 L 164.78 45.447 L 164.78 45.447 Q 164.168 45.447 163.772 45.069 L 163.772 45.069 L 163.772 45.069 Q 163.376 44.691 163.376 44.079 L 163.376 44.079 L 163.376 18.735 L 163.376 18.735 Q 163.376 18.123 163.772 17.727 L 163.772 17.727 L 163.772 17.727 Q 164.168 17.331 164.78 17.331 L 164.78 17.331 L 164.78 17.331 Q 165.392 17.331 165.77 17.727 L 165.77 17.727 L 165.77 17.727 Q 166.148 18.123 166.148 18.735 L 166.148 18.735 L 166.148 28.383 L 166.148 28.383 Q 167.336 27.051 169.028 26.295 L 169.028 26.295 L 169.028 26.295 Q 170.72 25.539 172.7 25.539 L 172.7 25.539 Z  M 202.616 43.467 L 202.616 43.467 Q 202.94 43.827 202.94 44.295 L 202.94 44.295 L 202.94 44.295 Q 202.94 44.835 202.436 45.267 L 202.436 45.267 L 202.436 45.267 Q 202.004 45.591 201.572 45.591 L 201.572 45.591 L 201.572 45.591 Q 200.996 45.591 200.6 45.087 L 200.6 45.087 L 193.184 35.979 L 190.484 38.427 L 190.484 44.079 L 190.484 44.079 Q 190.484 44.691 190.106 45.069 L 190.106 45.069 L 190.106 45.069 Q 189.728 45.447 189.116 45.447 L 189.116 45.447 L 189.116 45.447 Q 188.504 45.447 188.126 45.069 L 188.126 45.069 L 188.126 45.069 Q 187.748 44.691 187.748 44.079 L 187.748 44.079 L 187.748 18.699 L 187.748 18.699 Q 187.748 18.087 188.126 17.709 L 188.126 17.709 L 188.126 17.709 Q 188.504 17.331 189.116 17.331 L 189.116 17.331 L 189.116 17.331 Q 189.728 17.331 190.106 17.709 L 190.106 17.709 L 190.106 17.709 Q 190.484 18.087 190.484 18.699 L 190.484 18.699 L 190.484 35.079 L 200.636 25.899 L 200.636 25.899 Q 201.032 25.539 201.5 25.539 L 201.5 25.539 L 201.5 25.539 Q 202.04 25.539 202.4 25.971 L 202.4 25.971 L 202.4 25.971 Q 202.796 26.439 202.796 26.835 L 202.796 26.835 L 202.796 26.835 Q 202.796 27.339 202.328 27.735 L 202.328 27.735 L 195.128 34.251 L 202.616 43.467 Z  M 217.304 25.575 L 217.304 25.575 Q 220.112 25.575 222.398 26.889 L 222.398 26.889 L 222.398 26.889 Q 224.684 28.203 225.998 30.507 L 225.998 30.507 L 225.998 30.507 Q 227.312 32.811 227.312 35.619 L 227.312 35.619 L 227.312 44.079 L 227.312 44.079 Q 227.312 44.655 226.916 45.051 L 226.916 45.051 L 226.916 45.051 Q 226.52 45.447 225.908 45.447 L 225.908 45.447 L 225.908 45.447 Q 225.296 45.447 224.9 45.069 L 224.9 45.069 L 224.9 45.069 Q 224.504 44.691 224.504 44.079 L 224.504 44.079 L 224.504 41.919 L 224.504 41.919 Q 223.244 43.647 221.3 44.637 L 221.3 44.637 L 221.3 44.637 Q 219.356 45.627 217.016 45.627 L 217.016 45.627 L 217.016 45.627 Q 214.28 45.627 212.066 44.313 L 212.066 44.313 L 212.066 44.313 Q 209.852 42.999 208.574 40.713 L 208.574 40.713 L 208.574 40.713 Q 207.296 38.427 207.296 35.619 L 207.296 35.619 L 207.296 35.619 Q 207.296 32.811 208.61 30.507 L 208.61 30.507 L 208.61 30.507 Q 209.924 28.203 212.21 26.889 L 212.21 26.889 L 212.21 26.889 Q 214.496 25.575 217.304 25.575 L 217.304 25.575 Z  M 217.304 43.107 L 217.304 43.107 Q 219.356 43.107 221.012 42.135 L 221.012 42.135 L 221.012 42.135 Q 222.668 41.163 223.622 39.453 L 223.622 39.453 L 223.622 39.453 Q 224.576 37.743 224.576 35.619 L 224.576 35.619 L 224.576 35.619 Q 224.576 33.495 223.622 31.785 L 223.622 31.785 L 223.622 31.785 Q 222.668 30.075 221.012 29.085 L 221.012 29.085 L 221.012 29.085 Q 219.356 28.095 217.304 28.095 L 217.304 28.095 L 217.304 28.095 Q 215.252 28.095 213.578 29.085 L 213.578 29.085 L 213.578 29.085 Q 211.904 30.075 210.95 31.785 L 210.95 31.785 L 210.95 31.785 Q 209.996 33.495 209.996 35.619 L 209.996 35.619 L 209.996 35.619 Q 209.996 37.743 210.95 39.453 L 210.95 39.453 L 210.95 39.453 Q 211.904 41.163 213.578 42.135 L 213.578 42.135 L 213.578 42.135 Q 215.252 43.107 217.304 43.107 L 217.304 43.107 Z " fill-rule="evenodd" fill="rgb(124,159,215)"/></svg>