<svg xmlns="http://www.w3.org/2000/svg" viewBox="0 0 240.34 75.5"><defs><style>.cls-1{fill:#f4f4f4;opacity:0.67;}.cls-2{fill:#7c9fd7;}.cls-3{fill:#43433b;}.cls-4{fill:#dace8d;stroke:#000;stroke-linecap:square;stroke-miterlimit:3;stroke-width:0.3px;}</style></defs><title>logo</title><g id="Слой_2" data-name="Слой 2"><rect class="cls-1" width="240.34" height="75.5" rx="12" ry="12"/></g><g id="Слой_1" data-name="Слой 1"><path class="cls-2" d="M16.55,33.79h0a9.51,9.51,0,0,1,5,1.31h0A9.49,9.49,0,0,1,25,38.7h0a10.26,10.26,0,0,1,1.28,5.09h0A10.14,10.14,0,0,1,25,48.91h0a9.56,9.56,0,0,1-3.6,3.62h0a10,10,0,0,1-5.09,1.31h0a10,10,0,0,1-5.09-1.31h0a9.56,9.56,0,0,1-3.6-3.62h0A10.14,10.14,0,0,1,6.25,43.8h0V35.34h0a1.09,1.09,0,0,1,0-.32h0V26.95h0a1.4,1.4,0,0,1,.38-1h0a1.31,1.31,0,0,1,1-.4h0a1.37,1.37,0,0,1,1,.4h0a1.37,1.37,0,0,1,.4,1h0V37.5h0a8.91,8.91,0,0,1,3.2-2.72h0a9.3,9.3,0,0,1,4.28-1Zm-.29,17.53h0a7.18,7.18,0,0,0,3.73-1h0a7.1,7.1,0,0,0,2.63-2.7h0a7.73,7.73,0,0,0,1-3.83h0a7.73,7.73,0,0,0-1-3.83h0A7,7,0,0,0,20,37.28h0a7.28,7.28,0,0,0-3.73-1h0a7,7,0,0,0-4.84,1.8h0a7.23,7.23,0,0,0-2.36,4.61h0a.4.4,0,0,1,0,.18H9a8,8,0,0,0,0,.9H9a7.73,7.73,0,0,0,1,3.83h0a7.14,7.14,0,0,0,2.61,2.7h0a7.09,7.09,0,0,0,3.71,1ZM48.19,34h0a1.4,1.4,0,0,1,1,.38h0a1.31,1.31,0,0,1,.4,1h0V52.26h0a1.37,1.37,0,0,1-.4,1h0a1.37,1.37,0,0,1-1,.4h0a1.31,1.31,0,0,1-1-.4h0a1.4,1.4,0,0,1-.38-1h0V51h0a8.4,8.4,0,0,1-2.88,2.09h0a8.9,8.9,0,0,1-3.67.76h0a9.63,9.63,0,0,1-4.59-1.08h0a7.74,7.74,0,0,1-3.19-3.15h0a10,10,0,0,1-1.15-5h0V35.34h0a1.32,1.32,0,0,1,.4-1h0a1.32,1.32,0,0,1,1-.4h0a1.37,1.37,0,0,1,1,.4h0a1.32,1.32,0,0,1,.4,1h0V44.7h0a6.37,6.37,0,0,0,1.78,4.88h0a6.53,6.53,0,0,0,4.66,1.67h0a7.26,7.26,0,0,0,3.19-.68h0A5.62,5.62,0,0,0,46,48.67h0A4.63,4.63,0,0,0,46.82,46h0V35.34h0a1.34,1.34,0,0,1,.38-1h0a1.34,1.34,0,0,1,1-.38ZM60.32,53.66h0a4.37,4.37,0,0,1-3.58-1.75h0a7,7,0,0,1-1.39-4.48h0V26.91h0a1.31,1.31,0,0,1,.4-1h0a1.35,1.35,0,0,1,1-.38h0a1.34,1.34,0,0,1,1,.38h0a1.34,1.34,0,0,1,.38,1h0V47.43h0A4.56,4.56,0,0,0,58.72,50h0a1.86,1.86,0,0,0,1.6,1h.9a1.08,1.08,0,0,1,.86.38h0a1.47,1.47,0,0,1,.32,1h0a1.23,1.23,0,0,1-.45,1h0a1.76,1.76,0,0,1-1.17.38h-.47ZM75.19,33.79h0a10,10,0,0,1,5.09,1.31h0a9.56,9.56,0,0,1,3.6,3.62h0a10.14,10.14,0,0,1,1.31,5.11h0v8.46h0a1.32,1.32,0,0,1-.4,1h0a1.37,1.37,0,0,1-1,.4h0a1.4,1.4,0,0,1-1-.38h0a1.31,1.31,0,0,1-.4-1h0V50.13h0a8.91,8.91,0,0,1-3.2,2.72h0a9.3,9.3,0,0,1-4.28,1h0a9.51,9.51,0,0,1-5-1.31h0a9.49,9.49,0,0,1-3.49-3.6h0a10.26,10.26,0,0,1-1.28-5.09h0a10.14,10.14,0,0,1,1.31-5.11h0a9.56,9.56,0,0,1,3.6-3.62h0a10,10,0,0,1,5.09-1.31Zm0,17.53h0a7.19,7.19,0,0,0,3.71-1h0a7,7,0,0,0,2.61-2.68h0a7.73,7.73,0,0,0,1-3.83h0a7.73,7.73,0,0,0-1-3.83h0a7.14,7.14,0,0,0-2.61-2.7h0a7.09,7.09,0,0,0-3.71-1h0a7.18,7.18,0,0,0-3.73,1h0A7.1,7.1,0,0,0,68.84,40h0a7.73,7.73,0,0,0-1,3.83h0a7.73,7.73,0,0,0,1,3.83h0a7,7,0,0,0,2.63,2.68h0a7.28,7.28,0,0,0,3.73,1Z"/><path class="cls-3" d="M101.93,43.85a8.94,8.94,0,0,0-1,.63,11.65,11.65,0,0,0-1.27,1.6c-.07.06-4.56-9.95-10-22.33h0L89,22.4,88.14,21l-1.67-2.5.69,3.13.39,1,.53,1.48h0c5.27,12,9.66,22.21,9.81,22.73,0,0,1,3,1.31,3.77a5.43,5.43,0,0,0,7.14,2.84l.24-.11-.81-1.66-.16.07a3.58,3.58,0,0,1-3-6.51ZM111.35,13l-3.23,8.1c-.18.46-.31.7.24.86l.37.09.14,0a2.84,2.84,0,0,0,2-.27,5.59,5.59,0,0,0,2.28-3l1.57-3.94a2.65,2.65,0,1,1,4.92,2l-1.57,3.94c.1,0-1,2-.44,3.74L109,46a5.41,5.41,0,0,0-2.86-2.64,5.58,5.58,0,0,0-4.25.45l.67,1.37.16-.07a3.58,3.58,0,0,1,3,6.51l.81,1.66a5.41,5.41,0,0,0,2.67-2.87,5.33,5.33,0,0,0,.23-.72l9.43-23.66.32.2c.75.42.74,0,.91-.37l3.23-8.1c3.16-7.93-8.82-12.7-12-4.78h0"/><path class="cls-4" d="M111,12.62l-3.47,8.71c-.2.5-.33.75.26.92l.4.1c2.89.77,4.44-.61,5.39-3L115,15.73c.49-1.24,1.66-2.2,2.9-1.71A2.47,2.47,0,0,1,119,17.3l-1.57,3.87a4.18,4.18,0,0,0,2,5.71c.8.46.79.05,1-.4l3.47-8.71c3.4-8.53-9.49-13.66-12.89-5.14"/><path class="cls-2" d="M191.17,68.22h0a.71.71,0,0,1-.52-.22h0a.71.71,0,0,1-.22-.52h0a.71.71,0,0,1,.22-.53h0a.72.72,0,0,1,.51-.22h0a.7.7,0,0,1,.52.22h0a.73.73,0,0,1,.22.53h0a.71.71,0,0,1-.22.52h0a.71.71,0,0,1-.52.22Zm4.94-.14h0a4.33,4.33,0,0,1-1.51-.27h0a2.92,2.92,0,0,1-1.17-.75h0a.46.46,0,0,1-.13-.29h0a.48.48,0,0,1,.2-.38h0a.52.52,0,0,1,.32-.11h0a.47.47,0,0,1,.37.18h0A2,2,0,0,0,195,67h0a3.11,3.11,0,0,0,1.11.19h0a2.37,2.37,0,0,0,1.33-.31h0a1,1,0,0,0,.46-.8h0a.9.9,0,0,0-.44-.76h0a3.56,3.56,0,0,0-1.41-.46h0a4,4,0,0,1-1.86-.7h0a1.52,1.52,0,0,1-.62-1.21h0a1.66,1.66,0,0,1,.72-1.44h0a3,3,0,0,1,1.8-.51h0a3.47,3.47,0,0,1,1.46.29h0a2.57,2.57,0,0,1,1,.79h0a.58.58,0,0,1,.1.29h0a.39.39,0,0,1-.2.34h0a.41.41,0,0,1-.24.06h0a.58.58,0,0,1-.44-.19h0a2.15,2.15,0,0,0-1.7-.71h0a2,2,0,0,0-1.12.28h0a.85.85,0,0,0-.42.72h0a.85.85,0,0,0,.39.73h0a3.66,3.66,0,0,0,1.4.44h0a4,4,0,0,1,1.94.74h0a1.63,1.63,0,0,1,.58,1.28h0a1.67,1.67,0,0,1-.35,1h0a2.27,2.27,0,0,1-1,.71h0a3.7,3.7,0,0,1-1.41.25Zm7.48-1h0a.43.43,0,0,1,.33.14h0a.51.51,0,0,1,.13.36h0a.45.45,0,0,1-.15.34h0a.54.54,0,0,1-.38.14h-.27a2.29,2.29,0,0,1-1.21-.32h0a2.27,2.27,0,0,1-.83-.88h0a2.58,2.58,0,0,1-.3-1.25h0V62.17h-.83a.44.44,0,0,1-.32-.12h0a.41.41,0,0,1-.12-.3h0a.42.42,0,0,1,.12-.31h0a.44.44,0,0,1,.32-.12h.83v-2h0A.49.49,0,0,1,201,59h0a.46.46,0,0,1,.35-.14h0a.48.48,0,0,1,.36.14h0a.48.48,0,0,1,.14.36h0v2h1.43a.44.44,0,0,1,.32.12h0a.42.42,0,0,1,.12.31h0a.41.41,0,0,1-.12.3h0a.44.44,0,0,1-.32.12h-1.43v3.39h0a1.5,1.5,0,0,0,.38,1.06h0a1.27,1.27,0,0,0,1,.41h.34Zm7.86-6h0a.5.5,0,0,1,.36.13h0a.46.46,0,0,1,.14.35h0v6h0a.48.48,0,0,1-.14.36h0a.48.48,0,0,1-.36.14h0a.46.46,0,0,1-.35-.14h0a.5.5,0,0,1-.13-.36h0v-.43h0a3,3,0,0,1-1,.74h0a3.14,3.14,0,0,1-1.3.27h0a3.4,3.4,0,0,1-1.62-.38h0a2.73,2.73,0,0,1-1.12-1.11h0a3.54,3.54,0,0,1-.41-1.75h0v-3.3h0a.46.46,0,0,1,.14-.34h0a.47.47,0,0,1,.34-.14h0a.48.48,0,0,1,.36.14h0a.46.46,0,0,1,.14.34h0v3.3h0a2.25,2.25,0,0,0,.63,1.72h0a2.3,2.3,0,0,0,1.64.59h0a2.56,2.56,0,0,0,1.12-.24h0a2,2,0,0,0,.79-.67h0a1.64,1.64,0,0,0,.29-.95h0V61.55h0a.47.47,0,0,1,.13-.35h0a.47.47,0,0,1,.35-.13Zm9.46.37h0a.4.4,0,0,1,0,.11h0v3h0a3.58,3.58,0,0,1-.46,1.8h0a3.37,3.37,0,0,1-1.27,1.28h0a3.54,3.54,0,0,1-1.8.46h0a3.53,3.53,0,0,1-1.8-.46h0a3.36,3.36,0,0,1-1.27-1.28h0a3.58,3.58,0,0,1-.46-1.8h0a3.62,3.62,0,0,1,.45-1.8h0a3.35,3.35,0,0,1,1.23-1.27h0a3.35,3.35,0,0,1,1.75-.46h0a3.28,3.28,0,0,1,1.51.35h0a3.15,3.15,0,0,1,1.13,1h0V58.59h0a.48.48,0,0,1,.14-.36h0a.48.48,0,0,1,.35-.14h0a.46.46,0,0,1,.35.14h0a.49.49,0,0,1,.13.36h0Zm-3.52,5.75h0a2.5,2.5,0,0,0,1.31-.35h0a2.52,2.52,0,0,0,.92-1h0a2.74,2.74,0,0,0,.34-1.35h0a3,3,0,0,0,0-.32h0a.14.14,0,0,1,0-.06h0a2.55,2.55,0,0,0-.83-1.62h0a2.46,2.46,0,0,0-1.71-.63h0a2.57,2.57,0,0,0-1.31.34h0a2.46,2.46,0,0,0-.93.95h0a2.73,2.73,0,0,0-.34,1.35h0a2.74,2.74,0,0,0,.34,1.35h0a2.51,2.51,0,0,0,.93,1h0a2.54,2.54,0,0,0,1.31.35Zm6.51.83h0a.48.48,0,0,1-.35-.14h0a.48.48,0,0,1-.14-.36h0v-6h0a.48.48,0,0,1,.14-.35h0a.48.48,0,0,1,.35-.14h0a.46.46,0,0,1,.35.14h0a.49.49,0,0,1,.13.35h0v6h0a.49.49,0,0,1-.13.36h0a.46.46,0,0,1-.35.14Zm0-8.27h0a.65.65,0,0,1-.49-.2h0a.68.68,0,0,1-.2-.5h0a.65.65,0,0,1,.2-.49h0a.7.7,0,0,1,.49-.19h0a.68.68,0,0,1,.48.19h0a.65.65,0,0,1,.2.49h0a.67.67,0,0,1-.2.5h0a.68.68,0,0,1-.5.2ZM230,68.08h0a3.61,3.61,0,0,1-1.81-.46h0A3.29,3.29,0,0,1,227,66.36h0a3.6,3.6,0,0,1-.46-1.81h0a3.64,3.64,0,0,1,.46-1.82h0a3.28,3.28,0,0,1,1.26-1.27h0A3.6,3.6,0,0,1,230,61h0a3.56,3.56,0,0,1,1.8.46h0a3.34,3.34,0,0,1,1.26,1.27h0a3.6,3.6,0,0,1,.46,1.82h0a3.6,3.6,0,0,1-.46,1.81h0a3.3,3.3,0,0,1-1.26,1.26h0a3.6,3.6,0,0,1-1.81.46Zm0-.89h0a2.56,2.56,0,0,0,1.32-.34h0a2.43,2.43,0,0,0,.91-.95h0a2.77,2.77,0,0,0,.33-1.35h0a2.8,2.8,0,0,0-.33-1.37h0a2.43,2.43,0,0,0-.91-.95h0A2.56,2.56,0,0,0,230,61.9h0a2.57,2.57,0,0,0-1.31.34h0a2.45,2.45,0,0,0-.93.95h0a2.75,2.75,0,0,0-.34,1.37h0a2.72,2.72,0,0,0,.34,1.35h0a2.45,2.45,0,0,0,.93.95h0a2.57,2.57,0,0,0,1.31.34Z"/><path class="cls-2" d="M132.76,53.88h0a10.22,10.22,0,0,1-5.13-1.3h0A9.34,9.34,0,0,1,124.05,49h0a10.22,10.22,0,0,1-1.3-5.13h0a10.32,10.32,0,0,1,1.3-5.15h0a9.3,9.3,0,0,1,3.58-3.6h0a10.22,10.22,0,0,1,5.13-1.3h0a10.12,10.12,0,0,1,5.11,1.3h0a9.47,9.47,0,0,1,3.58,3.6h0a10.21,10.21,0,0,1,1.31,5.15h0a10.22,10.22,0,0,1-1.3,5.13h0a9.34,9.34,0,0,1-3.58,3.58h0a10.22,10.22,0,0,1-5.13,1.3Zm0-2.52h0a7.26,7.26,0,0,0,3.74-1h0a6.88,6.88,0,0,0,2.59-2.68h0a7.85,7.85,0,0,0,.94-3.83h0A7.93,7.93,0,0,0,139.1,40h0a6.88,6.88,0,0,0-2.59-2.68h0a7.26,7.26,0,0,0-3.74-1h0a7.28,7.28,0,0,0-3.73,1h0A7,7,0,0,0,126.41,40h0a7.81,7.81,0,0,0-1,3.87h0a7.73,7.73,0,0,0,1,3.83h0A7,7,0,0,0,129,50.38h0a7.28,7.28,0,0,0,3.73,1ZM157,53.88h0a9.75,9.75,0,0,1-5-1.31h0A9.45,9.45,0,0,1,148.4,49h0a10.26,10.26,0,0,1-1.28-5.09h0a10.77,10.77,0,0,1,1.22-5.17h0a9.1,9.1,0,0,1,3.38-3.58h0a9.26,9.26,0,0,1,4.86-1.3h0a9,9,0,0,1,7.31,3.46h0a1.1,1.1,0,0,1,.29.76h0a1.23,1.23,0,0,1-.61,1h0a1.21,1.21,0,0,1-.68.22h0a1.44,1.44,0,0,1-1-.54h0a7.36,7.36,0,0,0-2.38-1.78h0a6.83,6.83,0,0,0-2.88-.59h0a6.59,6.59,0,0,0-3.53,1h0A6.35,6.35,0,0,0,150.67,40h0a8.73,8.73,0,0,0-.85,3.89h0a8.1,8.1,0,0,0,.9,3.83h0a6.7,6.7,0,0,0,2.52,2.68h0a7.07,7.07,0,0,0,3.71,1h0a6.78,6.78,0,0,0,4.64-1.55h0a1.49,1.49,0,0,1,1-.4h0a1.24,1.24,0,0,1,.79.29h0a1.26,1.26,0,0,1,.5,1h0a1,1,0,0,1-.36.79h0A9.24,9.24,0,0,1,157,53.88Zm22-20.09h0a9.63,9.63,0,0,1,4.59,1.08h0A7.74,7.74,0,0,1,186.73,38h0a10,10,0,0,1,1.15,5h0v9.36h0a1.32,1.32,0,0,1-.4,1h0a1.32,1.32,0,0,1-1,.4h0a1.37,1.37,0,0,1-1-.4h0a1.32,1.32,0,0,1-.4-1h0V43h0a6.37,6.37,0,0,0-1.78-4.88h0a6.53,6.53,0,0,0-4.66-1.67h0a7.26,7.26,0,0,0-3.19.68h0A5.62,5.62,0,0,0,173.23,39h0a4.63,4.63,0,0,0-.83,2.68h0V52.33h0a1.34,1.34,0,0,1-.38,1h0a1.34,1.34,0,0,1-1,.38h0a1.4,1.4,0,0,1-1-.38h0a1.31,1.31,0,0,1-.4-1h0V27h0a1.37,1.37,0,0,1,.4-1h0a1.37,1.37,0,0,1,1-.4h0a1.31,1.31,0,0,1,1,.4h0a1.4,1.4,0,0,1,.38,1h0v9.65h0a8.4,8.4,0,0,1,2.88-2.09h0a8.9,8.9,0,0,1,3.67-.76Zm29.92,17.93h0a1.2,1.2,0,0,1,.32.83h0a1.26,1.26,0,0,1-.5,1h0a1.44,1.44,0,0,1-.86.32h0a1.2,1.2,0,0,1-1-.5h0l-7.42-9.11-2.7,2.45v5.65h0a1.34,1.34,0,0,1-.38,1h0a1.34,1.34,0,0,1-1,.38h0a1.34,1.34,0,0,1-1-.38h0a1.34,1.34,0,0,1-.38-1h0V26.95h0a1.34,1.34,0,0,1,.38-1h0a1.34,1.34,0,0,1,1-.38h0a1.34,1.34,0,0,1,1,.38h0a1.34,1.34,0,0,1,.38,1h0V43.33l10.15-9.18h0a1.26,1.26,0,0,1,.86-.36h0a1.12,1.12,0,0,1,.9.43h0a1.39,1.39,0,0,1,.4.86h0a1.16,1.16,0,0,1-.47.9h0l-7.2,6.52Zm14.69-17.89h0a10,10,0,0,1,5.09,1.31h0a9.56,9.56,0,0,1,3.6,3.62h0a10.14,10.14,0,0,1,1.31,5.11h0v8.46h0a1.32,1.32,0,0,1-.4,1h0a1.37,1.37,0,0,1-1,.4h0a1.4,1.4,0,0,1-1-.38h0a1.31,1.31,0,0,1-.4-1h0V50.17h0a8.91,8.91,0,0,1-3.2,2.72h0a9.3,9.3,0,0,1-4.28,1h0a9.51,9.51,0,0,1-5-1.31h0a9.49,9.49,0,0,1-3.49-3.6h0a10.26,10.26,0,0,1-1.28-5.09h0a10.14,10.14,0,0,1,1.31-5.11h0a9.56,9.56,0,0,1,3.6-3.62h0a10,10,0,0,1,5.09-1.31Zm0,17.53h0a7.19,7.19,0,0,0,3.71-1h0a7,7,0,0,0,2.61-2.68h0a7.73,7.73,0,0,0,1-3.83h0a7.73,7.73,0,0,0-1-3.83h0a7.14,7.14,0,0,0-2.61-2.7h0a7.09,7.09,0,0,0-3.71-1h0a7.18,7.18,0,0,0-3.73,1h0A7.1,7.1,0,0,0,217.2,40h0a7.73,7.73,0,0,0-1,3.83h0a7.73,7.73,0,0,0,1,3.83h0a7,7,0,0,0,2.63,2.68h0a7.28,7.28,0,0,0,3.73,1Z"/></g></svg>