<?xml version="1.0" encoding="utf-8"?>
<!-- Generator: Adobe Illustrator 21.0.0, SVG Export Plug-In . SVG Version: 6.00 Build 0)  -->
<svg version="1.1" id="Capa_1" xmlns="http://www.w3.org/2000/svg" xmlns:xlink="http://www.w3.org/1999/xlink" x="0px" y="0px"
	 viewBox="0 0 455.7 455.7" style="enable-background:new 0 0 455.7 455.7;" xml:space="preserve">
<style type="text/css">
	.st0{fill:#18B532;}
	.st1{fill:#FFFFFF;}
</style>
<g>
	<rect class="st0" width="455.7" height="455.7"/>
	<g>
		<path class="st1" d="M68.5,387.4l22.3-79.3c-14.4-24.4-21.9-52.1-21.9-80.6c0-87.8,71.4-159.2,159.2-159.2s159.2,71.4,159.2,159.2
			s-71.4,159.2-159.2,159.2c-27.3,0-54.1-7-77.8-20.3L68.5,387.4z M154.4,337.4l4.9,3c20.7,12.6,44.4,19.3,68.8,19.3
			c72.9,0,132.2-59.3,132.2-132.2S300.9,95.3,228.1,95.3S95.9,154.6,95.9,227.5c0,25.4,7.2,50.1,20.9,71.3l3.3,5.1l-12.9,45.7
			L154.4,337.4z"/>
		<path class="st1" d="M183.4,153.4l-10.3-0.6c-3.2-0.2-6.4,0.9-8.9,3c-5,4.3-13,12.8-15.5,23.7c-3.7,16.3,2,36.3,16.7,56.3
			c14.7,20,42,52,90.3,65.7c15.6,4.4,27.8,1.4,37.3-4.6c7.5-4.8,12.6-12.5,14.5-21.2l1.6-7.7c0.5-2.4-0.7-4.9-3-6L271.2,246
			c-2.3-1-5-0.4-6.5,1.6L251,265.4c-1,1.3-2.8,1.9-4.4,1.3c-9.4-3.3-40.8-16.5-58.1-49.7c-0.7-1.4-0.6-3.2,0.5-4.4l13.1-15.1
			c1.3-1.5,1.7-3.7,0.9-5.6l-15-35.2C187.2,154.8,185.4,153.5,183.4,153.4z"/>
	</g>
</g>
</svg>
