<?xml version="1.0" encoding="iso-8859-1"?>
<!-- Generator: Adobe Illustrator 19.0.0, SVG Export Plug-In . SVG Version: 6.00 Build 0)  -->
<svg version="1.1" id="Layer_1" xmlns="http://www.w3.org/2000/svg" xmlns:xlink="http://www.w3.org/1999/xlink" x="0px" y="0px"
	 viewBox="0 0 512 512" style="enable-background:new 0 0 512 512;" xml:space="preserve">
<g>
	<path style="fill:#507C5C;" d="M256.001,422.067c-20.067,0-39.651-3.539-58.274-10.526l-70.363,10.137
		c-4.492,0.646-9.033-0.845-12.266-4.032c-3.234-3.188-4.79-7.704-4.206-12.208l7.343-56.7
		c-18.533-27.452-28.298-59.388-28.298-92.737c0-91.57,74.496-166.066,166.066-166.066s166.066,74.496,166.066,166.066
		S347.569,422.067,256.001,422.067z M199.429,382.099c1.852,0,3.695,0.354,5.424,1.051c16.264,6.55,33.473,9.87,51.146,9.87
		c75.552,0,137.02-61.468,137.02-137.02s-61.468-137.02-137.02-137.02s-137.02,61.468-137.02,137.02
		c0,29.144,9.033,56.973,26.124,80.479c2.183,3.002,3.134,6.726,2.656,10.406l-5.61,43.317l55.208-7.954
		C198.046,382.147,198.739,382.099,199.429,382.099z"/>
	<path style="fill:#507C5C;" d="M432.464,512h-37.766c-8.021,0-14.523-6.502-14.523-14.523s6.502-14.523,14.523-14.523h37.766
		c27.839,0,50.49-22.65,50.49-50.49V79.536c0-27.839-22.65-50.49-50.49-50.49H214.367c-8.021,0-14.523-6.502-14.523-14.523
		S206.346,0,214.367,0h218.097C476.321,0,512,35.679,512,79.536v352.928C512,476.321,476.321,512,432.464,512z"/>
	<path style="fill:#507C5C;" d="M289.693,512H79.536C35.679,512,0,476.321,0,432.464V79.536C0,35.679,35.679,0,79.536,0h32.684
		c8.021,0,14.523,6.502,14.523,14.523s-6.502,14.523-14.523,14.523H79.536c-27.839,0-50.49,22.65-50.49,50.49v352.928
		c0,27.839,22.65,50.49,50.49,50.49h210.157c8.021,0,14.523,6.502,14.523,14.523S297.714,512,289.693,512z"/>
</g>
<path style="fill:#CFF09E;" d="M288.396,280.071l-9.741,9.739c-0.834-0.455-1.734-0.905-2.642-1.416
	c-8.361-4.637-18.684-9.837-30.725-21.876c-12.067-12.07-17.31-22.399-21.943-30.76c-0.5-0.879-0.703-1.454-1.157-2.276l9.137-8.588
	l0.947-0.947c7.238-7.238,7.238-18.976,0-26.214l-14.276-14.276c-7.279-7.279-19.096-7.233-26.317,0.105l-3.805,3.865
	c-2.478,3.169-4.579,6.855-6.119,10.786c-1.423,3.754-2.332,7.349-2.727,10.927c-3.477,28.744,3.472,48.834,39.109,84.485
	c49.277,49.262,82.547,39.663,84.263,39.471c3.725-0.439,7.556-1.621,11.194-3.028c3.901-1.525,7.619-3.658,10.772-6.136
	l3.867-3.802c7.343-7.221,7.394-19.043,0.11-26.325l-13.733-13.733C307.372,272.833,295.636,272.833,288.396,280.071z"/>
<path style="fill:#507C5C;" d="M293.579,348.494C293.579,348.494,293.578,348.494,293.579,348.494
	c-18.751,0-48.838-7.738-85.711-44.598c-36.613-36.629-47.537-60.968-43.267-96.428c0.53-4.748,1.699-9.46,3.574-14.404
	c0.019-0.049,0.038-0.099,0.057-0.148c2.056-5.25,4.816-10.108,8.203-14.437c0.338-0.433,0.701-0.847,1.089-1.24l3.805-3.866
	c6.264-6.364,14.632-9.868,23.561-9.868c8.83,0,17.132,3.439,23.376,9.683l14.276,14.276c6.243,6.243,9.683,14.545,9.683,23.376
	c0,8.832-3.439,17.133-9.683,23.378l-0.945,0.945c-0.106,0.106-0.214,0.211-0.324,0.312l-0.947,0.89
	c3.491,5.985,7.928,12.573,15.236,19.882c7.625,7.625,14.252,11.976,20.54,15.579l2.027-2.027
	c6.243-6.243,14.545-9.683,23.375-9.683c8.83,0,17.132,3.439,23.376,9.683l13.735,13.735c6.281,6.281,9.72,14.634,9.683,23.516
	c-0.038,8.882-3.547,17.206-9.882,23.433l-3.866,3.802c-0.383,0.376-0.787,0.732-1.21,1.065c-4.294,3.374-9.293,6.225-14.459,8.243
	c-5.262,2.036-9.919,3.295-14.26,3.86C303.044,347.768,299.204,348.494,293.579,348.494z M195.306,203.437
	c-0.988,2.621-1.59,5.008-1.843,7.292c-0.006,0.051-0.012,0.102-0.017,0.152c-2.797,23.132,1.586,39.086,34.963,72.476
	c31.409,31.4,54.314,36.09,65.171,36.09l0,0c2.953,0,4.752-0.359,5.52-0.511c0.821-0.163,1.388-0.243,1.688-0.274
	c1.914-0.225,4.489-0.948,7.564-2.139c2.244-0.877,4.531-2.141,6.474-3.578l3.224-3.17c0.986-0.969,1.197-2.083,1.2-2.845
	c0.003-0.762-0.198-1.876-1.176-2.854l-13.733-13.735c-0.97-0.97-2.08-1.175-2.838-1.175c-0.758,0-1.866,0.205-2.838,1.175
	l-9.741,9.739c-4.552,4.552-11.557,5.564-17.211,2.486l-0.866-0.46c-0.636-0.334-1.288-0.68-1.946-1.05l-1.936-1.066
	c-8.193-4.502-19.412-10.669-31.948-23.204c-12.631-12.635-18.828-23.905-23.353-32.134l-0.999-1.813
	c-0.437-0.776-0.751-1.415-1.054-2.052l-0.145-0.301c-3.214-5.812-2.065-13.042,2.774-17.589l9.76-9.221
	c0.972-0.972,1.176-2.08,1.176-2.838s-0.205-1.866-1.176-2.838l-14.276-14.276c-0.972-0.972-2.08-1.175-2.838-1.175
	c-0.767,0-1.885,0.208-2.861,1.198l-3.159,3.208C197.446,198.889,196.222,201.113,195.306,203.437z"/>
<g>
</g>
<g>
</g>
<g>
</g>
<g>
</g>
<g>
</g>
<g>
</g>
<g>
</g>
<g>
</g>
<g>
</g>
<g>
</g>
<g>
</g>
<g>
</g>
<g>
</g>
<g>
</g>
<g>
</g>
</svg>
