<svg xmlns="http://www.w3.org/2000/svg" viewBox="0 0 1120.81 574.29">
  <title>stick</title>
  <g id="colors">
    <path d="M680.64,75.61l-6.71-14.17a2.39,2.39,0,0,0-2.16-1.37H645.39V49.13l15.5-15.5a2.39,2.39,0,1,0-3.38-3.38l-16.2,16.21a2.39,2.39,0,0,0-.7,1.69V60.07H614.22a2.39,2.39,0,0,0-2.16,1.37L605.17,76a2.39,2.39,0,0,0,2.16,3.42h4.73L618.73,144a2.4,2.4,0,0,0,2.38,2.15h43.76a2.39,2.39,0,0,0,2.38-2.15l6.67-64.62h4.78a2.4,2.4,0,0,0,1.93-3.81Z" transform="translate(-23.81 -29.54)" style="fill: #fffcee"/>
    <path d="M220.22,568.82H217.9c1.7-7.95,3.35-18.53-5.37-21-2.91-1.2-14.4-10.83-16.39-13.42-.55-1.41-.1-2.63,1.15-5.3a24.51,24.51,0,0,0,1.65-4.21,5.26,5.26,0,0,0,1.58-3.83c0-1.63-.54-3.74-4.47-8.06-1.17-1.29-2.12-2.24-2.91-2.95a12.18,12.18,0,0,1-.08-2.77c.13-2.66.31-6.31-3.9-11-.61-.69-1.22-1.36-1.81-2-4.31-4.76-7.41-8.2-8.82-14.28-2.93-12.72-1-23.84,1.15-35.6,1.67-9.36,3.39-19,2.33-29.29a22,22,0,0,1,.86-3.38,31.09,31.09,0,0,0,1.75-9.9,32.18,32.18,0,0,1,.5-4.72,53.87,53.87,0,0,0,.76-8c.81-9.38-.81-19.31-2.37-28.92-.69-4.21-1.33-8.18-1.77-12-.25-2.25,2.07-4.41,5.87-7.76,4.53-4,10.17-8.95,11.81-17a43.08,43.08,0,0,0,.55-7c0-1.54.1-3.56.28-5.21,6.17-1.61,10.65-9.79,14.59-18.56l.43-.95c2.21-4.79.06-8.68-1-10.54l-.17-.3a10.74,10.74,0,0,1,1.31-2.14c1-1.39,2.59-3.65,2.48-6.56l1.19-1.26.12-.13a4.81,4.81,0,0,0-1-7.42L195,249.15a4.82,4.82,0,0,0-2.49-.7,4.82,4.82,0,0,0-4.66,3.63l-.35,1.38a8.94,8.94,0,0,0-6,4.44c-.55-.37-1.19-.81-1.94-1.36-4.35-3.12-5.92-7.83-7.73-13.28a65.34,65.34,0,0,0-3.3-8.45,2.7,2.7,0,0,0,0-1.28c-.87-2.94-3.51-5.57-7.59-8.15-.4-.3-.76-.62-1.19-.92a14.74,14.74,0,0,0-1.57-.92,10.37,10.37,0,0,0-1.79-3.44,4.81,4.81,0,0,0-1.6-1.32c-.91-1-2.27-4.64-3.25-8.43a7.87,7.87,0,0,0,1.17-2.37,10,10,0,0,0-1-7.44l0-.07a36.6,36.6,0,0,1-1.32-7,5.93,5.93,0,0,0,.92-1.55,7.43,7.43,0,0,0-.91-6.6c0-.21.1-.41.14-.62l20-2.37a4.81,4.81,0,0,0-.3-9.57l-12.67-.7,9.36-4.37a4.81,4.81,0,0,0-2-9.16,4.92,4.92,0,0,0-1.09.12l-17.33,4,8.27-11.58a4.81,4.81,0,0,0-7-6.48l-13.88,11.65a18.29,18.29,0,0,0-2.72-.68l-4.79-16.32a4.81,4.81,0,0,0-9.42,1.36V156.2a25.29,25.29,0,0,0-2.43.88L97.09,146.23a4.81,4.81,0,0,0-6.29,1.06l-.2.27-.52-1.71c-1-3.26-2-6.63-2.81-10-.89-3.91-1-8.33-1-13-.1-8-.2-16.26-4.49-23.56a9.89,9.89,0,0,1-1.59-3.75,17.09,17.09,0,0,1,2.95-2.13c1.2-.77,2.57-1.64,4-2.75,4.3-3.31,4-8.59,3.83-12.45-.05-1.07-.11-2.08-.07-3a4.8,4.8,0,0,0-1.46-3.64A13.51,13.51,0,0,0,82,68.3c.58-.8,1.27-1.65,1.79-2.3,3.59-4.45,9-11.18,4.88-20.14a4.8,4.8,0,0,0-4.36-2.79,4.63,4.63,0,0,0-.52,0A4.81,4.81,0,0,0,79.9,46a12.86,12.86,0,0,0-1.32-2.56,4.81,4.81,0,0,0-3.94-2.05l-.51,0c-4.06.42-6.51,2.9-8.3,4.7-1.46,1.47-2,1.9-2.61,1.9a5.52,5.52,0,0,1-2.07-.55,4.75,4.75,0,0,0-1.89-.39,4.81,4.81,0,0,0-3.51,8.09,15.58,15.58,0,0,1,0,2.8c-.17,2.72-.39,6.3,1.4,9.83C52.25,68,49.66,68.89,49,72.3c-2,11.19,2.84,16.08,6.07,19.32a18.09,18.09,0,0,1,2.27,2.55c-.16.27-.31.56-.46.87-2.39,5.2-1.39,17.58.56,20.8.8,1.33.77,4.15.75,6.21,0,2.79-.05,5.2,1.59,7.15,4.31,5.13,4.64,14.61,5,24.64.29,8.18.59,16.63,3.12,24,1.48,4.29-.29,8.24-3.3,14.32-2.61,5.27-5.56,11.24-5.25,18.39.34,7.92,3.25,13.65,7.91,16.14-1,4,.53,7.1,4.56,9.87a6.23,6.23,0,0,1,2.48,2.42,3.49,3.49,0,0,0,.19.37c.29,2.14-.49,8.76-.87,12-.64,5.45-.84,7.42-.44,9a4.75,4.75,0,0,0,1.23,2.18c6.55,6.7,4.82,11.53.62,21-2.22,5-4.74,10.65-5.37,17.23-.73,7.72.42,13.14,3.53,16.56a11.11,11.11,0,0,0,5.39,3.24,2.67,2.67,0,0,0,.06.83,49.51,49.51,0,0,1-2.42,6.8c-1.88,4.57-4,9.75-3.66,15.4a42.46,42.46,0,0,0,2.77,11.56,48,48,0,0,1,1.91,6.42c-.7,7.44.82,16,2.3,23.56.11.55-.16,1.24-.8,2.69-.93,2.1-2.21,5-1.43,8.68.07.31.19.88.35,1.59.31,1.39,1.11,5,1.5,7.06-4.77,8.11-3.3,23.79-1.89,32.9a77.29,77.29,0,0,0,3.16,13,7.33,7.33,0,0,0-2.29,4.39c-.06.15-.08.31-.13.46-.41.73-.63,1.15-.65,1.19a2.71,2.71,0,0,0,0,2.43,28.35,28.35,0,0,0,1.11,7.81c.59,2.43,1.16,4.72.76,6.44-1.82,5.25-7,9.42-10,10.87a47.12,47.12,0,0,1-6.18,2c-8,2.16-11.43,5-11.95,16.87a6.86,6.86,0,0,0-5.16,3.71c-1.32,2.88-.23,6,1.82,9.87,1.66,3.11.56,8.25-1.39,11.72a13.11,13.11,0,0,0-1.62,7.68,57.81,57.81,0,0,1-6.27-1.62,4.81,4.81,0,0,0-3.07-1.11,5,5,0,0,0-.89.08c-4.36.81-7.35,2.54-9.14,5.29-2.77,4.25-1.62,9.18-.51,13.94a36.47,36.47,0,0,1,1.19,7.1c.05,2.1,1.16,3.64,4.45,8.2l.63.87c-.1,0-.18.13-.28.18H30.9a2.76,2.76,0,0,0-2.76,2.76,2.69,2.69,0,0,0,.36,1.29s0,.09,0,.13V599a4.8,4.8,0,0,0,4.81,4.8H220.22A4.8,4.8,0,0,0,225,599v-25.4A4.81,4.81,0,0,0,220.22,568.82Z" transform="translate(-23.81 -29.54)" style="fill: #fffcee"/>
    <path d="M501.87,51.78a44.89,44.89,0,1,0,44.89,44.89A44.94,44.94,0,0,0,501.87,51.78Z" transform="translate(-23.81 -29.54)" style="fill: #f28c8c"/>
    <path d="M395.84,88.48c-.25-.82-6.46-20.53-23.24-19.65a18.31,18.31,0,0,0-5.75-1,12.5,12.5,0,0,0-5,1c-.33,0-.76,0-1.27,0a20.6,20.6,0,0,0-3.94.35,22.14,22.14,0,0,0-15.22-15.85c-3.07-.77-2.76,7.2-2.76,7.2,3.56,2.25,3.06,6.86,2.65,8.84a18.81,18.81,0,0,0-4.76-.54c-.5,0-.94,0-1.27,0a12.49,12.49,0,0,0-5-1,18.31,18.31,0,0,0-5.75,1c-16.87-.93-23,18.83-23.21,19.56-7.63,21.77,1.77,38.5,2.1,39.06,4,8.28,14.88,12.65,31.42,12.65a102.16,102.16,0,0,0,13.75-.94,102.05,102.05,0,0,0,13.75.94h0c16.53,0,27.39-4.37,31.34-12.5C394,126.89,403.44,110.16,395.84,88.48Z" transform="translate(-23.81 -29.54)" style="fill: #fffcee"/>
    <path d="M829.4,115.22a5,5,0,0,0-3.41,1.35l-11.56-20L826.3,76a5,5,0,0,0,3.1,1.09,5,5,0,1,0-5-5,5.14,5.14,0,0,0,.21,1.36H801.07L788.32,51.32a5,5,0,1,0-2.92,0L772.65,73.4H749.16a5.22,5.22,0,0,0,.2-1.36,5,5,0,1,0-5,5,5,5,0,0,0,3.1-1.09l11.87,20.55-11.68,20.23a5.14,5.14,0,1,0,1.66,2.91h23.37l12.21,21.15a5,5,0,1,0,4,0l12.21-21.15h23.34a5.41,5.41,0,0,0-.05.57,5,5,0,1,0,5-5Z" transform="translate(-23.81 -29.54)" style="fill: #fffcee"/>
    <path d="M936.88,52.41a44.26,44.26,0,1,0,44.26,44.25A44.3,44.3,0,0,0,936.88,52.41Z" transform="translate(-23.81 -29.54)" style="fill: #fffcee"/>
    <path d="M1140.66,367.83c-2-.64-3.44-1-4.91-1.35l-.28-.06-.33-.07c-.74-.17-1.5-.31-2.34-.46l-.15,0c-.57-.09-1.16-.19-1.82-.28-1.34-.19-2-.25-3.36-.37a.24.24,0,0,1,0,0c-2.37-.19-4.7-.3-6.95-.26-3.11,0-6.09.27-9,.61s-5.77.77-8.57,1.26-5.56,1-8.3,1.59l-8.21,1.69c-2.74.56-5.5,1.1-8.3,1.59s-5.65.92-8.57,1.25-5.92.56-9,.61a69,69,0,0,1-9.5-.49l-.53-.07c-1.53-.21-3.09-.47-4.67-.81l-.2,0c-.8-.18-1.62-.37-2.5-.61h0q-1.33-.36-2.68-.8c-1.58-.52-2.38-.81-4-1.47v57.38c1.58.66,2.37.95,4,1.46a51,51,0,0,0,5.46,1.48c1.43.31,2.88.57,4.67.8l.34,0h.13l.3,0c1.46.17,2.19.24,3.66.33v0c1.89.12,3.75.17,5.56.14,3.1,0,6.1-.28,9-.61s5.77-.76,8.57-1.25,5.56-1,8.3-1.59l8.21-1.69c2.74-.56,5.5-1.1,8.3-1.59s5.66-.92,8.57-1.25,5.91-.56,9-.61a67.79,67.79,0,0,1,9.66.5q1.21.16,2.46.37l.15,0c.83.14,1.59.29,2.33.46l.33.07c1.69.38,3.42.84,5.2,1.42,1.58.52,2.37.81,4,1.46V369.3C1143,368.64,1142.24,368.35,1140.66,367.83Z" transform="translate(-23.81 -29.54)" style="fill: #fffcee"/>
    <path d="M961.46,357.4H907.29a21.09,21.09,0,0,0-21.07,21.07v46.36a2.39,2.39,0,0,0,2.39,2.39h8.72a2.39,2.39,0,0,0,2.39-2.39v-22h2.66v33.39a2.39,2.39,0,0,0,2.39,2.39h15.41a2.39,2.39,0,0,0,2.39-2.39V419H962.8v17.22a2.39,2.39,0,0,0,2.39,2.39h14.94a2.39,2.39,0,0,0,2.39-2.39V378.47A21.09,21.09,0,0,0,961.46,357.4Z" transform="translate(-23.81 -29.54)" style="fill: #f28c8c"/>
    <path d="M982.53,390V378.47a21.09,21.09,0,0,0-21.07-21.07H907.29a21.09,21.09,0,0,0-21.07,21.07V390Z" transform="translate(-23.81 -29.54)" style="fill: #91bbf9"/>
    <path d="M1139.36,127.55h-17.18V55.26a2.39,2.39,0,0,0-2.39-2.4h-58.52a2.39,2.39,0,0,0-2.39,2.4v72.28h-17.17a2.39,2.39,0,0,0,0,4.78h97.66a2.39,2.39,0,0,0,0-4.78Z" transform="translate(-23.81 -29.54)" style="fill: #fffcee"/>
    <path d="M1130.7,215.14a29.7,29.7,0,0,0-40.16-1.68,29.69,29.69,0,0,0-40.16,43.68l38.47,38.47a2.39,2.39,0,0,0,3.38,0l38.47-38.47A29.73,29.73,0,0,0,1130.7,215.14Z" transform="translate(-23.81 -29.54)" style="fill: #f28c8c"/>
    <path d="M395.16,242.85a6.74,6.74,0,0,0-3.35-4.12c-2.62-1.13-6.34-1.7-11.07-1.7-1.91,0-3.74.09-5.29.21l7.93-13.12s7.46-11.82-4.77-12.44c0,0-67.25-2.11-87.71-2.77-2.22-.07-2.52,1.07-.08,5,6.71,10.85,22.87,32.56,43.72,31.69,0,0,2.94.72,12.35-6.18l-11.2,8.73s9.74-2.29,9.33,3.73c0,0-4.76-4.15-9.53-1.25l-25.71,17.83s-5,3.11,1.87,3.11c0,0,4.35,2.7,20.31-10.78L321.6,271.59s7.46,3.11,11.61-6v2.69s6.43.62,7.05-3.11c0,0-.83-5.6,1.44-3.32,0,0,5.46,5.46,9.19,7.52a19.86,19.86,0,0,0-3,6,2.55,2.55,0,0,0,1.81,3.12,2.46,2.46,0,0,0,.66.09,2.56,2.56,0,0,0,2.47-1.88c0-.05,1.44-5.15,5.27-7.11a10.68,10.68,0,0,1,8-.29,2.56,2.56,0,0,0,1.95-4.73c-.26-.1-6.34-2.56-12.26.47-.17.08-.32.19-.48.28-2.18-.68-5.16-2.25-4.48-5.74l6.63-6.43-1,3.11,31.88-4.54c3.26-.54,5-1.87,6-3.19,3-.36,6.35-.3,6.52,1.75C400.82,250.27,401.34,243.12,395.16,242.85Z" transform="translate(-23.81 -29.54)" style="fill: #fffcee"/>
    <path d="M389,422.67a2.46,2.46,0,0,0-.64-.13h-8.68V365.88a14.07,14.07,0,0,0-14.06-14.06H312.3c-.05,0-.1,0-.15,0s-.4,0-.6,0a11.74,11.74,0,0,0-11.72,11.72c0,5.62,4,9.85,9.29,9.85h11.71v56.69a14.08,14.08,0,0,0,14.06,14.06c.17,0,.33,0,.5-.05s.16.05.25.05h49.92a11.74,11.74,0,0,0,11.72-11.73C397.28,427.18,393.78,423.19,389,422.67Z" transform="translate(-23.81 -29.54)" style="fill: #fffcee"/>
    <path d="M649.37,364.14h-.17v-7.44a6.09,6.09,0,1,0-12.17,0v7.44H614v-7.44a6.09,6.09,0,1,0-12.17,0v7.44h-.16A22.71,22.71,0,0,0,579,386.83v35.85a22.71,22.71,0,0,0,22.68,22.68h47.68A22.71,22.71,0,0,0,672,422.67V386.83A22.71,22.71,0,0,0,649.37,364.14Z" transform="translate(-23.81 -29.54)" style="fill: #fffcee"/>
    <g>
      <path d="M973.47,261.16a12.52,12.52,0,1,0,2.18,17.57A12.41,12.41,0,0,0,973.47,261.16Z" transform="translate(-23.81 -29.54)" style="fill: #fffcee"/>
      <path d="M990.43,219.06a21.53,21.53,0,0,0-3.89-8,3.91,3.91,0,0,0-.58-.71l-.28-.26-.31-.32a4,4,0,0,0-.69-.55,21.6,21.6,0,0,0-8-3.82,4.17,4.17,0,0,0-.89-.09l-.51,0c-1.73.22-5.8.71-22.85,20.54-8.85,10.3-17.53,21.67-20.62,27-.49.85-1,1.72-1.54,2.58l-17.78,17.93a7.07,7.07,0,0,0-1.05-.08,5.83,5.83,0,0,0-6,6c0,2.55,1.39,5.38,3.8,7.77a11.59,11.59,0,0,0,7.76,3.74,5.9,5.9,0,0,0,5.92-7.1l17.76-17.92c.86-.54,1.72-1.06,2.56-1.55,5.35-3.14,16.66-11.89,26.89-20.81,19.71-17.18,20.18-21.26,20.38-23A4.06,4.06,0,0,0,990.43,219.06Z" transform="translate(-23.81 -29.54)" style="fill: #fffcee"/>
    </g>
    <g>
      <path d="M683.64,257.44h-77A7.62,7.62,0,0,0,603,271.75v.33a15.51,15.51,0,0,0,15.49,15.49h52.31a15.5,15.5,0,0,0,15.48-15.34,7.62,7.62,0,0,0-2.61-14.8Z" transform="translate(-23.81 -29.54)" style="fill: #fffcee"/>
      <path d="M691.28,245.54c-2.36,0-4.24,1.2-5.9,2.25a4.45,4.45,0,0,1-6.66,0c-1.66-1-3.54-2.25-5.9-2.25s-4.24,1.2-5.9,2.25a4.44,4.44,0,0,1-6.66,0c-1.66-1-3.54-2.25-5.9-2.25s-4.24,1.2-5.9,2.25a4.44,4.44,0,0,1-6.66,0c-1.65-1-3.53-2.25-5.89-2.25s-4.24,1.2-5.89,2.25a4.45,4.45,0,0,1-6.66,0c-1.65-1-3.53-2.25-5.9-2.25s-4.24,1.2-5.89,2.25a4.44,4.44,0,0,1-6.66,0c-1.66-1-3.54-2.25-5.9-2.25a2.39,2.39,0,1,0,0,4.78,7.39,7.39,0,0,1,3.33,1.5c1.66,1.05,3.53,2.25,5.9,2.25s4.25-1.19,5.9-2.25a4.45,4.45,0,0,1,6.67,0c1.66,1.05,3.53,2.25,5.89,2.25s4.25-1.19,5.9-2.25a4.44,4.44,0,0,1,6.65,0c1.66,1.05,3.53,2.25,5.9,2.25s4.24-1.19,5.9-2.25a4.45,4.45,0,0,1,6.67,0c1.65,1.05,3.53,2.25,5.9,2.25s4.24-1.19,5.9-2.25a4.45,4.45,0,0,1,6.66,0c1.66,1.05,3.54,2.25,5.9,2.25s4.24-1.19,5.9-2.25a7.37,7.37,0,0,1,3.33-1.5,2.39,2.39,0,0,0,0-4.78Z" transform="translate(-23.81 -29.54)" style="fill: #fffcee"/>
      <path d="M605.36,241.78h79.56a2.39,2.39,0,0,0,2.39-2.39v-5.22c0-15.27-16.21-27.69-36.14-27.69H639.1c-19.92,0-36.13,12.42-36.13,27.69v5.22A2.39,2.39,0,0,0,605.36,241.78Z" transform="translate(-23.81 -29.54)" style="fill: #fffcee"/>
    </g>
    <path d="M691.28,245.54c-2.36,0-4.24,1.2-5.9,2.25a4.45,4.45,0,0,1-6.66,0c-1.66-1-3.54-2.25-5.9-2.25s-4.24,1.2-5.9,2.25a4.44,4.44,0,0,1-6.66,0c-1.66-1-3.54-2.25-5.9-2.25s-4.24,1.2-5.9,2.25a4.44,4.44,0,0,1-6.66,0c-1.65-1-3.53-2.25-5.89-2.25s-4.24,1.2-5.89,2.25a4.45,4.45,0,0,1-6.66,0c-1.65-1-3.53-2.25-5.9-2.25s-4.24,1.2-5.89,2.25a4.44,4.44,0,0,1-6.66,0c-1.66-1-3.54-2.25-5.9-2.25a2.39,2.39,0,1,0,0,4.78,7.39,7.39,0,0,1,3.33,1.5c1.66,1.05,3.53,2.25,5.9,2.25s4.25-1.19,5.9-2.25a4.45,4.45,0,0,1,6.67,0c1.66,1.05,3.53,2.25,5.89,2.25s4.25-1.19,5.9-2.25a4.44,4.44,0,0,1,6.65,0c1.66,1.05,3.53,2.25,5.9,2.25s4.24-1.19,5.9-2.25a4.45,4.45,0,0,1,6.67,0c1.65,1.05,3.53,2.25,5.9,2.25s4.24-1.19,5.9-2.25a4.45,4.45,0,0,1,6.66,0c1.66,1.05,3.54,2.25,5.9,2.25s4.24-1.19,5.9-2.25a7.37,7.37,0,0,1,3.33-1.5,2.39,2.39,0,0,0,0-4.78Z" transform="translate(-23.81 -29.54)" style="fill: #fffcee"/>
    <path d="M525.07,437a2.38,2.38,0,0,0-.62-1.48L514,424.1V411.16c0-4.26-3.69-8.68-8.21-12.52h2.68a2.39,2.39,0,0,0,2.37-2l2.52-17a2.39,2.39,0,0,0-2.37-2.74H508c4.86-5.33,12.79-16,11.46-27.46a2.36,2.36,0,0,0-1.27-1.84,2.4,2.4,0,0,0-2.24,0,21,21,0,0,1-7.46,2.22,16.22,16.22,0,0,0,1.41-7.51,2.39,2.39,0,0,0-4.1-1.44c-3.49,3.62-9.92,3.2-16.72,2.75-9-.59-19.16-1.27-24.84,7.68-6.7,10.58-3,20.34.15,25.59H461a2.39,2.39,0,0,0-2.37,2.74l.23,1.58a6.37,6.37,0,0,0-1.15-.11,6.55,6.55,0,0,0-2.42,12.64L461.1,396l.09.58a2.39,2.39,0,0,0,2.36,2h.31a6.56,6.56,0,0,0-.4,2.19,6.48,6.48,0,0,0,1.65,4.3,6.44,6.44,0,0,0,0,8.6,6.49,6.49,0,0,0-1.65,4.3,5.25,5.25,0,0,0,1.39,4c1.38,1.2,10.6,8.37,10.6,8.37V436A10.39,10.39,0,0,0,478,442.8a8.89,8.89,0,0,0-1,4.07,9,9,0,0,0,18,0,8.87,8.87,0,0,0-1-4.08,10.33,10.33,0,0,0,1-1.44,101,101,0,0,0,8.55,11.28,2.42,2.42,0,0,0,1.2.72,25.22,25.22,0,0,0,5.92.78,13.24,13.24,0,0,0,10.06-4C525.47,445.16,525.09,437.36,525.07,437Z" transform="translate(-23.81 -29.54)" style="fill: #fffcee"/>
    <path d="M831,359.65a45.84,45.84,0,0,0-11.18-3.81,51.27,51.27,0,0,0-10.26-1,67.7,67.7,0,0,0-9.47.72c-2.72.39-5.63.94-8.88,1.68-3.08.71-6,1.49-8.49,2.16L778,360.71l-3.64,1c-3.13.85-5.58,1.47-7.88,2-2.72.63-5.21,1.13-7.54,1.51l-.42.06-1.29.19c-1,.14-2,.23-2.92.32-.53.05-1.08.12-1.59.16-1.37.1-2.73.16-4.1.16h-.14c-1,0-1.92-.08-2.87-.13-.64,0-1.3,0-1.92-.11-.86-.09-1.72-.24-2.56-.38-.61-.1-1.22-.16-1.84-.29-.86-.18-1.7-.38-2.53-.6-.38-.1-.74-.23-1.11-.34s-.89-.25-1.32-.4a42.18,42.18,0,0,1-4.9-2,2,2,0,0,0-.42-.15,2.32,2.32,0,0,0-1.34,0,2.26,2.26,0,0,0-.56.25,2.39,2.39,0,0,0-1,1.42,2.36,2.36,0,0,0-.08.6V399h0v8.48a1.7,1.7,0,0,0,0,.37v8.41a1.68,1.68,0,0,0,0,.34v8.43a1.66,1.66,0,0,0,0,.34v8.79a2.38,2.38,0,0,0,1.34,2.15,45.89,45.89,0,0,0,11.18,3.79,50.52,50.52,0,0,0,10.08,1h.17a68.12,68.12,0,0,0,9.47-.72c2.72-.39,5.54-.92,8.88-1.69,3.17-.73,6.2-1.54,8.5-2.16l3.87-1.07,4.44-1.22c2.43-.66,5.32-1.42,8.32-2.11s5.85-1.23,8.48-1.61a64,64,0,0,1,8.89-.67,46.48,46.48,0,0,1,9.21.88,41.52,41.52,0,0,1,10,3.42A2.39,2.39,0,0,0,832.3,432V361.79A2.39,2.39,0,0,0,831,359.65Z" transform="translate(-23.81 -29.54)" style="fill: #fffcee"/>
    <path d="M544.73,217.62a2.38,2.38,0,0,0-1.77-.67c-.68,0-1.37.06-2.06.06-13.45,0-26.39-6.36-35.5-17.44a8.47,8.47,0,0,0-6.54-2.54,9.4,9.4,0,0,0-6.86,2.6C481.11,211.16,469.18,217,456.54,217c-.7,0-1.38,0-2.07-.06a2.4,2.4,0,0,0-2.5,2.41c.27,33.38,18.2,63.76,45.68,77.4a2.41,2.41,0,0,0,2.12,0c27.49-13.64,45.42-44,45.68-77.4A2.38,2.38,0,0,0,544.73,217.62Z" transform="translate(-23.81 -29.54)" style="fill: #fffcee"/>
    <path d="M1135.61,557.09c2.29-2.54,4.88-5.42,4.88-9.11s-2.59-6.57-4.88-9.11c-1.38-1.54-2.81-3.12-3.25-4.49s-.26-3.67,0-5.8c.34-3.33.71-7.11-1.37-10s-5.84-3.7-9.13-4.41c-2.08-.45-4.22-.91-5.44-1.8s-2.28-2.75-3.33-4.57c-1.7-2.94-3.62-6.26-7.07-7.38a7.75,7.75,0,0,0-2.41-.37c-2.52,0-5,1.09-7.39,2.14-2,.88-4,1.79-5.65,1.79s-3.65-.91-5.64-1.78c-2.39-1.05-4.87-2.14-7.39-2.14a7.71,7.71,0,0,0-2.4.37c-3.45,1.12-5.37,4.44-7.07,7.38-1,1.82-2.14,3.7-3.33,4.57s-3.37,1.35-5.44,1.8c-3.29.71-7,1.51-9.13,4.4s-1.7,6.65-1.36,10c.21,2.13.44,4.33,0,5.79s-1.87,3-3.26,4.49c-2.29,2.54-4.88,5.42-4.88,9.11s2.6,6.57,4.88,9.11c1.38,1.53,2.81,3.12,3.25,4.47s.25,3.67,0,5.79c-.34,3.34-.72,7.12,1.37,10s5.84,3.7,9.13,4.41c2.08.44,4.22.91,5.44,1.79s2.28,2.75,3.33,4.57c1.7,2.94,3.62,6.27,7.07,7.39a7.85,7.85,0,0,0,2.4.37c2.52,0,5-1.09,7.39-2.14,2-.88,4-1.78,5.64-1.78s3.66.91,5.65,1.79c2.4,1.05,4.87,2.14,7.39,2.14a7.86,7.86,0,0,0,2.4-.37c3.45-1.12,5.37-4.45,7.07-7.39,1-1.82,2.14-3.7,3.33-4.57s3.37-1.35,5.44-1.79c3.3-.71,7-1.51,9.13-4.41s1.71-6.64,1.37-10c-.22-2.13-.44-4.33,0-5.8S1134.23,558.62,1135.61,557.09Z" transform="translate(-23.81 -29.54)" style="fill: #fffcee"/>
    <path d="M392.53,573.87,366.13,550a4.86,4.86,0,0,1-1.29-3.24l-.43-15.67a9.85,9.85,0,0,0-.87-3.56l-2-3.22v-2.4c.4-8.89,0-11.5-.39-12.65A76.74,76.74,0,0,0,356.36,496a2.13,2.13,0,0,0-.46-.62,6.77,6.77,0,0,0-5.75-2.75,7,7,0,0,0-5.39,2.42,2.39,2.39,0,0,0-.81.93,77.14,77.14,0,0,0-4.84,13.35h0c-.94,3.07-1.47,12.72-1.47,12.8v3.64l-.91,1.73a10.15,10.15,0,0,0-1,3.56l-.64,15.67a5.31,5.31,0,0,1-1.66,3.24L306,573.87a5.47,5.47,0,0,0-1.87,3.24v7.29c0,1,1.37,1.93,2.68,2l26.68,2v.26c0,.86.07,1.49.09,1.78s0,1.16,0,1.2c0,1.12.86,4.38,3.48,4.38h.56v.66a4.08,4.08,0,0,0,1,3.14,3.41,3.41,0,0,0,2.53,1h17.59c.08,0,7.62-.47,7.62-4.38v-2.79a2.36,2.36,0,0,0-.09-.46,10.5,10.5,0,0,0,.45-2.33s0-1.19,0-1.78a2.38,2.38,0,0,0,0-.68h0l24.9-2c1.32-.1,1.1-1,1.1-2v-7.29C392.64,576.1,393.41,574.64,392.53,573.87Z" transform="translate(-23.81 -29.54)" style="fill: #fffcee"/>
    <path d="M819.1,528.81c0-.07-.08-.12-.12-.19a40.47,40.47,0,0,0-76.07,27.67,1.71,1.71,0,0,0,0,.24l3.86,10.61a40.65,40.65,0,0,0,38.08,26.67h0A40.55,40.55,0,0,0,823,539.42Z" transform="translate(-23.81 -29.54)" style="fill: #f28c8c"/>
    <path d="M514.48,559.79a5.56,5.56,0,0,1,1.16-3.82c4.43-11.72,14.43-15.91,25.54-18.36-.31-.33-.55-.57-.55-.57a4,4,0,0,1-2.09-1.78c-1.45-3.7-7-12.26-10.32-15.47C513.64,505.85,503.5,506.61,494.5,507c-23.54,1.12-38.71,20.31-38.71,20.31-11.13,13.4-8.66,27.62-5.64,36.3,1.52,4.38,5.16,14.36,5.16,14.36,1.45,4.05,3.55,3.7,3.55,3.7s10.17-.34,13.55-.48c6.94-.29,14.52,2.81,18.55,5.48,3.72,2.47,10.8,3.94,14.83,3.55,3.7-.36,6.56-2.66,8.72-5.46A61,61,0,0,1,514.48,559.79Z" transform="translate(-23.81 -29.54)" style="fill: #91bbf9"/>
    <path d="M681.2,586.1h-1.5v-24a2.39,2.39,0,0,0-2.39-2.39h-3.7V539.19a29.85,29.85,0,0,0-21.44-28.5v-5.22a2.38,2.38,0,0,0-1.55-2.22,8,8,0,1,0-13.37,0,2.38,2.38,0,0,0-1.55,2.22v5.22a29.85,29.85,0,0,0-21.44,28.5v20.52h-3.7a2.39,2.39,0,0,0-2.39,2.39v24h-1.5a2.39,2.39,0,0,0-2.39,2.39v9.26a2.39,2.39,0,0,0,2.39,2.39H681.2a2.39,2.39,0,0,0,2.39-2.39v-9.26A2.39,2.39,0,0,0,681.2,586.1Z" transform="translate(-23.81 -29.54)" style="fill: #fffcee"/>
    <path d="M985.24,565.64c-8.7-3.87-9.51-16.68-9.52-16.81a2.32,2.32,0,0,0-.21-.81,15.45,15.45,0,0,0-15.25-13.19H925.55V516.14a15.45,15.45,0,0,0-15.43-15.43h-1.3a2.39,2.39,0,0,0-2.39,2.39v9.4H901.2A18.28,18.28,0,0,0,883,530.75v1.58a2.39,2.39,0,0,0,2.39,2.39h21.08v58.14a2.39,2.39,0,0,0,2.39,2.39h11.44a2.39,2.39,0,0,0,2.39-2.39V573H960v19.89a2.39,2.39,0,0,0,2.39,2.39H973.3a2.39,2.39,0,0,0,2.39-2.39v-29.4A17.94,17.94,0,0,0,983.3,570a2.39,2.39,0,1,0,1.94-4.37Z" transform="translate(-23.81 -29.54)" style="fill: #f28c8c"/>
    <path d="M906.42,552.58H976.3a28.17,28.17,0,0,1-.59-3.75,2.32,2.32,0,0,0-.21-.81,15.45,15.45,0,0,0-15.25-13.19H925.55V516.14a15.45,15.45,0,0,0-15.43-15.43h-1.3a2.39,2.39,0,0,0-2.39,2.39v9.4H901.2A18.28,18.28,0,0,0,883,530.75v1.58a2.39,2.39,0,0,0,2.39,2.39h21.08Z" transform="translate(-23.81 -29.54)" style="fill: #91bbf9"/>
    <path d="M799.49,217c-14.56,0-28.51,3.71-39.29,10.37-9.51,5.87-15.4,13.43-15.38,19.73,0,11.9,21.81,29.9,54.62,29.9h.16c32.9-.06,54.69-18.16,54.67-30.1S832.45,217,799.49,217Z" transform="translate(-23.81 -29.54)" style="fill: #f28c8c"/>
    <g>
      <path d="M505.65,293.47a78.09,78.09,0,0,0,16.14-13.26v-32H505.65Z" transform="translate(-23.81 -29.54)" style="fill: #f28c8c"/>
      <path d="M474,278.34a78.82,78.82,0,0,0,16.14,14V248.25H474Z" transform="translate(-23.81 -29.54)" style="fill: #f28c8c"/>
    </g>
    <path d="M543,216.95c-.68,0-1.37.06-2.06.06-13.45,0-26.39-6.36-35.5-17.44a8.47,8.47,0,0,0-6.54-2.54,9.4,9.4,0,0,0-6.86,2.6C481.11,211.16,469.18,217,456.54,217c-.7,0-1.38,0-2.07-.06a2.4,2.4,0,0,0-2.5,2.41,93.6,93.6,0,0,0,4.27,27.09h84.95a93.48,93.48,0,0,0,4.27-27.09,2.4,2.4,0,0,0-2.5-2.41Z" transform="translate(-23.81 -29.54)" style="fill: #91bbf9"/>
    <rect x="570.33" y="353.83" width="62.78" height="44.25" style="fill: #91bbf9"/>
    <path d="M683.64,257.44h-77a7.65,7.65,0,0,0-7.64,7.64,7.47,7.47,0,0,0,1.23,4.09h89.85a7.5,7.5,0,0,0,1.23-4.09A7.65,7.65,0,0,0,683.64,257.44Z" transform="translate(-23.81 -29.54)" style="fill: #f28c8c"/>
    <circle cx="619.82" cy="76.79" r="13.45" style="fill: #91bbf9"/>
    <path d="M767.33,400.91c.14-8.8.08-27,0-37.41l-.89.21c-2.72.63-5.21,1.13-7.54,1.51l-.42.06-1.29.19c-1,.14-2,.23-2.92.32-.53.05-1.08.12-1.59.16-1.37.1-2.73.16-4.1.16h-.14c-1,0-1.92-.08-2.87-.13-.64,0-1.3,0-1.92-.11-.86-.09-1.72-.24-2.56-.38-.61-.1-1.22-.16-1.84-.29-.86-.18-1.7-.38-2.53-.6-.38-.1-.74-.23-1.11-.34s-.89-.25-1.32-.4a42.18,42.18,0,0,1-4.9-2,2,2,0,0,0-.42-.15,2.32,2.32,0,0,0-1.34,0,2.26,2.26,0,0,0-.56.25,2.39,2.39,0,0,0-1,1.42,2.36,2.36,0,0,0-.08.6V399h0v1C736,402.73,755.67,406.81,767.33,400.91Z" transform="translate(-23.81 -29.54)" style="fill: #91bbf9"/>
    <path d="M767.33,367.19l-.2,9.21s15.55-6,27.1-8.57,29.5-1.4,37.67,3.39v-9S813.56,349.05,767.33,367.19Z" transform="translate(-23.81 -29.54)" style="fill: #f28c8c"/>
    <path d="M767.33,383.73l-.2,9.21s15.55-6,27.1-8.57,29.5-1.39,37.67,3.39v-9S813.56,365.59,767.33,383.73Z" transform="translate(-23.81 -29.54)" style="fill: #f28c8c"/>
    <path d="M793.21,411.56l0-1.14s-3.85,1.48-9.13,3.28q-5.27,1.44-11.21,3.54c-2.31.66-4.61,1.26-6.77,1.75-11.56,2.59-29.5,1.4-37.67-3.39v9s11.35,8.16,38.69,2.82l0,1.14s3.85-1.48,9.13-3.29q5.28-1.44,11.21-3.54c2.31-.66,4.61-1.26,6.77-1.75,11.56-2.59,29.5-1.39,37.67,3.39v-9S820.55,406.23,793.21,411.56Z" transform="translate(-23.81 -29.54)" style="fill: #f28c8c"/>
    <path d="M767.33,401.58v.59l-1.18.28c-11.56,2.59-29.5,1.4-37.67-3.39v9s18.34,13.2,64.57-4.94v-.59l1.18-.28c11.56-2.59,29.5-1.39,37.67,3.39v-9S813.56,383.44,767.33,401.58Z" transform="translate(-23.81 -29.54)" style="fill: #f28c8c"/>
    <path d="M519.51,349.42a2.36,2.36,0,0,0-1.27-1.84,2.4,2.4,0,0,0-2.24,0,21,21,0,0,1-7.46,2.22,16.22,16.22,0,0,0,1.41-7.51,2.39,2.39,0,0,0-4.1-1.44c-3.49,3.62-9.92,3.2-16.72,2.75-9-.59-19.16-1.27-24.84,7.68-6.7,10.58-3,20.34.15,25.59H461a2.39,2.39,0,0,0-1.81.83,2.33,2.33,0,0,0-.5,1.09h54.54a2.35,2.35,0,0,0-.5-1.09,2.4,2.4,0,0,0-1.81-.83H508C512.9,371.55,520.84,360.93,519.51,349.42Z" transform="translate(-23.81 -29.54)" style="fill: #f28c8c"/>
    <path d="M320.83,373.87c1.42-3.38,2.39-6.71,2.27-9.43-.26-6.19-9-10-15.18-12a11.7,11.7,0,0,0-8.09,11.09c0,5.62,4,9.85,9.29,9.85h11.71Z" transform="translate(-23.81 -29.54)" style="fill: #f28c8c"/>
    <circle cx="758.37" cy="512.57" r="38.37" style="fill: #fffcee"/>
  </g>
  <g id="stroke">
    <path d="M936.88,52.41a44.26,44.26,0,1,0,44.26,44.25A44.3,44.3,0,0,0,936.88,52.41Zm0,4.78a39.28,39.28,0,0,1,25.5,9.39,1.62,1.62,0,0,0-.23.66,1.64,1.64,0,0,0,1.45,1.81l1.59.17c.47.48.92,1,1.36,1.5a51.24,51.24,0,0,1-4.43,3.18l-7.37-2.52a1.64,1.64,0,0,0-1.06,3.11l4.65,1.59a51,51,0,0,1-7.29,3.08l-6.64-4.12a1.64,1.64,0,0,0-1.73,2.79l4.1,2.54a51.06,51.06,0,0,1-8.4,1.27l-5.14-5.14a1.64,1.64,0,0,0-2.32,2.32l2.92,2.92a51.52,51.52,0,0,1-6.91-.61l-3.45-5.56a1.64,1.64,0,1,0-2.79,1.73l1.81,2.94a50,50,0,0,1-5.83-1.87l-2-6a1.64,1.64,0,1,0-3.11,1.07l1.07,3.13a49.73,49.73,0,0,1-5-2.81l-.34-3.14A39.34,39.34,0,0,1,936.88,57.19Zm0,78.95a39.39,39.39,0,0,1-30.78-14.83c.57-.4,1.11-.83,1.7-1.19l7.38,2.52a1.57,1.57,0,0,0,.53.09,1.64,1.64,0,0,0,.53-3.2l-4.65-1.59a51,51,0,0,1,7.29-3.09l6.63,4.11a1.66,1.66,0,0,0,.86.24,1.64,1.64,0,0,0,.87-3l-4.1-2.54a50.41,50.41,0,0,1,8.4-1.27l5.14,5.13a1.64,1.64,0,0,0,2.32-2.32l-2.92-2.91a50.92,50.92,0,0,1,6.91.61l3.45,5.56a1.64,1.64,0,0,0,1.4.78,1.67,1.67,0,0,0,.86-.24,1.64,1.64,0,0,0,.53-2.26l-1.81-2.93a49.65,49.65,0,0,1,5.84,1.87l2,6a1.64,1.64,0,0,0,1.55,1.11,1.61,1.61,0,0,0,.54-.09,1.64,1.64,0,0,0,1-2.08l-1.07-3.13a51,51,0,0,1,5,2.82l.65,6A39.26,39.26,0,0,1,936.88,136.14ZM966,123.27l-.06-.52.3.25Zm2.33-2.79c-.29-.23-.56-.47-.86-.69l1.49-.16Zm-4.68-3.58a2.28,2.28,0,0,0-.28.09,54,54,0,0,0-5.65-3l4.77-1.63a1.64,1.64,0,1,0-1.06-3.11l-7.69,2.62a1.56,1.56,0,0,0-.47.28,52.71,52.71,0,0,0-6-1.77l4.15-2.58A1.64,1.64,0,0,0,949.6,105l-6.91,4.28a1.58,1.58,0,0,0-.22.21A53.24,53.24,0,0,0,936,109l3-3a1.64,1.64,0,0,0-2.32-2.32l-5.4,5.4a54.2,54.2,0,0,0-8,1.14l1.84-3a1.64,1.64,0,0,0-2.79-1.73l-3.68,5.94a54.08,54.08,0,0,0-7.56,3l1.09-3.2a1.64,1.64,0,1,0-3.11-1.06l-2.25,6.6c-.94.57-1.83,1.18-2.72,1.81a39.34,39.34,0,0,1-1.75-41.08l4-.42a2.62,2.62,0,0,0,.28-.09,54.61,54.61,0,0,0,5.65,3l-4.77,1.63a1.64,1.64,0,1,0,1.06,3.11l7.69-2.62a1.62,1.62,0,0,0,.47-.27,52.26,52.26,0,0,0,6,1.76l-4.15,2.58a1.64,1.64,0,0,0,.87,3,1.62,1.62,0,0,0,.86-.25l6.9-4.28a1.21,1.21,0,0,0,.22-.22,53.68,53.68,0,0,0,6.44.51l-3,3a1.64,1.64,0,1,0,2.32,2.32l5.4-5.4a54.65,54.65,0,0,0,8-1.14l-1.85,3a1.64,1.64,0,0,0,.53,2.26,1.59,1.59,0,0,0,.86.25,1.63,1.63,0,0,0,1.4-.77l3.68-5.94a54.78,54.78,0,0,0,7.57-3l-1.1,3.2a1.65,1.65,0,0,0,1,2.08,1.82,1.82,0,0,0,.53.09,1.65,1.65,0,0,0,1.55-1.11l2.25-6.6a53.43,53.43,0,0,0,5.52-3.91c.3.41.63.81.92,1.23l-.19,1.69A1.64,1.64,0,0,0,970.8,78H971a1.66,1.66,0,0,0,.62-.13,39.29,39.29,0,0,1-.38,38.16Z" transform="translate(-23.81 -29.54)" style="fill: #304154"/>
    <g>
      <path d="M799.49,217c-14.56,0-28.51,3.71-39.29,10.37-9.51,5.87-15.4,13.43-15.38,19.73,0,11.9,21.81,29.9,54.62,29.9h.16c32.9-.06,54.69-18.16,54.67-30.1S832.45,217,799.49,217Zm-49.89,30.09c0-3.72,4-9.94,12.9-15.51a66.1,66.1,0,0,0-1.06,11.86,63.82,63.82,0,0,0,3.31,20.35C755.11,258.45,749.61,251.68,749.61,247.11Zm50,25.13-.15,2.39v-2.39a75.39,75.39,0,0,1-26.2-4.54,55.8,55.8,0,0,1-5.4-24.25A58,58,0,0,1,770,227.7a75.24,75.24,0,0,1,29.66-5.9A74,74,0,0,1,829,227.6a58,58,0,0,1,2.2,15.73,55.67,55.67,0,0,1-5.31,24.28A75.42,75.42,0,0,1,799.6,272.24Zm34.8-8.55a64,64,0,0,0,3.24-20.37,65.55,65.55,0,0,0-1.1-11.81c8.28,5.13,12.94,11.21,13,15.42C849.5,251.51,844,258.29,834.4,263.69Z" transform="translate(-23.81 -29.54)" style="fill: #304154"/>
      <path d="M824.1,230.63c-1.06-.23-2.14-.41-3.22-.6l-.44-3.35a1.44,1.44,0,1,0-2.85.38l.32,2.43c-1.21-.19-2.44-.33-3.68-.49l-.28-3.15a1.44,1.44,0,1,0-2.87.25l.22,2.56c-1.22-.12-2.47-.2-3.71-.28l-.14-3.19a1.44,1.44,0,0,0-2.88.13l.13,2.92c-1.24,0-2.49-.06-3.75-.06V225a1.44,1.44,0,1,0-2.88,0v3.18q-1.89,0-3.75.1l.12-2.95a1.44,1.44,0,1,0-2.88-.12l-.13,3.23c-1.25.08-2.49.17-3.71.29l.22-2.61a1.44,1.44,0,0,0-2.87-.24l-.27,3.18c-1.23.15-2.47.3-3.68.49l.31-2.45a1.44,1.44,0,0,0-2.86-.37l-.43,3.36c-1.05.19-2.13.37-3.16.59a2.39,2.39,0,1,0,1,4.67c.49-.11,1-.18,1.5-.28l-.67,5.26a1.44,1.44,0,0,0,1.25,1.61h.19a1.43,1.43,0,0,0,1.43-1.26l.79-6.19c1.28-.22,2.59-.41,3.9-.58l-.47,5.55a1.43,1.43,0,0,0,1.32,1.55h.12a1.44,1.44,0,0,0,1.43-1.32l.52-6.17c1.29-.14,2.61-.22,3.92-.31l-.23,5.56a1.44,1.44,0,0,0,1.38,1.5h.07a1.44,1.44,0,0,0,1.43-1.38l.24-5.87c1.31-.06,2.63-.09,4-.11v5.63a1.44,1.44,0,1,0,2.88,0V233c1.33,0,2.65,0,4,.1l.27,5.86a1.44,1.44,0,0,0,1.43,1.37h.07a1.44,1.44,0,0,0,1.37-1.5l-.25-5.56c1.31.09,2.63.17,3.92.3l.54,6.17a1.44,1.44,0,0,0,1.44,1.32h.12a1.44,1.44,0,0,0,1.31-1.57l-.49-5.54c1.31.17,2.62.35,3.91.56l.81,6.19a1.44,1.44,0,0,0,1.43,1.26H821a1.44,1.44,0,0,0,1.24-1.62l-.69-5.27c.51.1,1,.18,1.55.29a2.39,2.39,0,1,0,1-4.67Z" transform="translate(-23.81 -29.54)" style="fill: #304154"/>
    </g>
    <g>
      <path d="M990.43,219.06a21.53,21.53,0,0,0-3.89-8,3.91,3.91,0,0,0-.58-.71l-.28-.26-.31-.32a4,4,0,0,0-.69-.55,21.6,21.6,0,0,0-8-3.82,4.17,4.17,0,0,0-.89-.09l-.51,0c-1.73.22-5.8.71-22.85,20.54-8.85,10.3-17.53,21.67-20.62,27-.49.85-1,1.72-1.54,2.58l-17.78,17.93a7.07,7.07,0,0,0-1.05-.08,5.83,5.83,0,0,0-6,6c0,2.55,1.39,5.38,3.8,7.77a11.59,11.59,0,0,0,7.76,3.74,5.9,5.9,0,0,0,5.92-7.1l17.76-17.92c.86-.54,1.72-1.06,2.56-1.55,5.35-3.14,16.66-11.89,26.89-20.81,19.71-17.18,20.18-21.26,20.38-23A4.06,4.06,0,0,0,990.43,219.06Zm-49.31,41.61c-1,.59-2,1.23-3.07,1.87l-19.81,20-.21-.21c.89,1.59,1.08,3.09.32,3.86a1.86,1.86,0,0,1-1.36.5,7.76,7.76,0,0,1-4.83-2.53c-2.29-2.27-3.22-5-2.08-6.18a1.84,1.84,0,0,1,1.35-.49,5.5,5.5,0,0,1,2.52.77l-.21-.21,19.81-20c.64-1,1.27-2.07,1.85-3.09,6-10.46,34.31-44.78,40.38-45.53a17.32,17.32,0,0,1,6.69,3.3l0,0,.28.3.3.28,0,0a17.37,17.37,0,0,1,3.35,6.67C985.67,226,951.54,254.56,941.12,260.67Z" transform="translate(-23.81 -29.54)" style="fill: #304154"/>
      <path d="M973.47,261.16a12.52,12.52,0,1,0,2.18,17.57A12.41,12.41,0,0,0,973.47,261.16Zm-14.28,4.74a8.36,8.36,0,0,1,14.67,7.27A11.3,11.3,0,0,0,972.6,272a11.1,11.1,0,0,0-14.87,1.18A8.3,8.3,0,0,1,959.18,265.9Zm6.59,13.49a8.35,8.35,0,0,1-5.13-1.76c-.08-.07-.15-.15-.23-.22h0c.11-.17.23-.34.36-.5a6.34,6.34,0,0,1,8.88-1.12,6.41,6.41,0,0,1,1.44,1.58l0,0A8.34,8.34,0,0,1,965.77,279.39Z" transform="translate(-23.81 -29.54)" style="fill: #304154"/>
    </g>
    <path d="M1139.36,127.55h-17.18V55.26a2.39,2.39,0,0,0-2.39-2.4h-58.52a2.39,2.39,0,0,0-2.39,2.4v72.28h-17.17a2.39,2.39,0,0,0,0,4.78h97.66a2.39,2.39,0,0,0,0-4.78Zm-60.29-6.33a1.2,1.2,0,0,1-.48,1.17,1.18,1.18,0,0,1-1.26.09l-2.74-1.43-2.73,1.43a1.15,1.15,0,0,1-.56.14,1.18,1.18,0,0,1-.7-.23,1.19,1.19,0,0,1-.48-1.17l.53-3-2.22-2.16a1.2,1.2,0,0,1,.67-2l3.06-.44,1.37-2.77a1.2,1.2,0,0,1,2.15,0l1.37,2.77,3.06.44a1.2,1.2,0,0,1,.66,2l-2.21,2.16Zm6-7.24,3.06-.44,1.37-2.77a1.21,1.21,0,0,1,1.07-.67,1.19,1.19,0,0,1,1.07.67l1.37,2.77,3.06.44a1.2,1.2,0,0,1,.66,2l-2.22,2.16.53,3a1.2,1.2,0,0,1-.48,1.17,1.18,1.18,0,0,1-1.26.09l-2.74-1.43-2.74,1.43a1.15,1.15,0,0,1-.56.14,1.2,1.2,0,0,1-1.18-1.4l.52-3-2.22-2.16a1.2,1.2,0,0,1,.66-2Zm23.88-.44,3.06.44a1.2,1.2,0,0,1,.66,2l-2.21,2.16.52,3a1.19,1.19,0,0,1-1.73,1.26l-2.74-1.43-2.73,1.43a1.14,1.14,0,0,1-.56.14,1.2,1.2,0,0,1-1.18-1.4l.52-3-2.21-2.16a1.2,1.2,0,0,1,.66-2l3.06-.44,1.37-2.77a1.2,1.2,0,0,1,2.14,0Zm-1-9.44H1096.4V57.65h11.55Zm-23.34,0h-11.55V57.65h11.55Z" transform="translate(-23.81 -29.54)" style="fill: #304154"/>
    <g>
      <path d="M1130.7,215.14a29.7,29.7,0,0,0-40.16-1.68,29.69,29.69,0,0,0-40.16,43.68l38.47,38.47a2.39,2.39,0,0,0,3.38,0l38.47-38.47A29.73,29.73,0,0,0,1130.7,215.14Zm-3.38,38.61-36.78,36.79-36.78-36.79a24.91,24.91,0,0,1,35.1-35.35,2.39,2.39,0,0,0,3.36,0,24.91,24.91,0,0,1,35.1,35.35Z" transform="translate(-23.81 -29.54)" style="fill: #304154"/>
      <path d="M1078.29,226.73a2.39,2.39,0,0,0-2.39,2.39v18.41c0,5.95-2.4,5.95-3.43,5.95s-3.3,0-3.3-5.76v-18.6a2.39,2.39,0,0,0-4.78,0v18.6c0,9.52,5.66,10.55,8.09,10.55s8.22-1,8.22-10.73V229.12A2.39,2.39,0,0,0,1078.29,226.73Z" transform="translate(-23.81 -29.54)" style="fill: #304154"/>
      <path d="M1092,240c-2.78-1.61-4.23-2.78-4.41-4.69a3.4,3.4,0,0,1,.71-2.52,3.67,3.67,0,0,1,2.59-1.18,4.85,4.85,0,0,1,2.53.39,2.39,2.39,0,1,0,2.42-4.13,9.45,9.45,0,0,0-5.33-1,8.31,8.31,0,0,0-5.86,2.87,8.14,8.14,0,0,0-1.81,6c.44,4.73,4.26,6.94,6.78,8.4,3.28,1.9,3.86,3.47,4,4.89a4,4,0,0,1-.8,3,4.25,4.25,0,0,1-3,1.37,7.65,7.65,0,0,1-3.37-.52,2.39,2.39,0,1,0-2.33,4.17,11.48,11.48,0,0,0,5.19,1.15c.31,0,.61,0,.9,0a9.06,9.06,0,0,0,6.29-3.07,8.69,8.69,0,0,0,1.89-6.54C1097.94,244,1094.53,241.48,1092,240Z" transform="translate(-23.81 -29.54)" style="fill: #304154"/>
      <path d="M1110.88,228.24a2.39,2.39,0,0,0-2.32-1.8h0a2.39,2.39,0,0,0-2.31,1.81l-6.75,27.07a2.39,2.39,0,0,0,4.64,1.16l1.84-7.39h5.28l1.91,7.48a2.39,2.39,0,0,0,2.31,1.8,2.28,2.28,0,0,0,.59-.08,2.39,2.39,0,0,0,1.73-2.91Zm-3.71,16.07,1.42-5.69,1.45,5.69Z" transform="translate(-23.81 -29.54)" style="fill: #304154"/>
    </g>
    <g>
      <path d="M1099.08,381.65a14.87,14.87,0,0,0-8.54-.6,20.94,20.94,0,0,0-8.55,4,22.72,22.72,0,0,0-6.07,7.16,18.87,18.87,0,0,0-2.32,8.9,15,15,0,0,0,2.32,8.19,12.83,12.83,0,0,0,6.07,5,14.94,14.94,0,0,0,8.55.59,20.86,20.86,0,0,0,8.54-4,22.73,22.73,0,0,0,6.08-7.16,18.86,18.86,0,0,0,2.32-8.9,14.93,14.93,0,0,0-2.32-8.19A12.8,12.8,0,0,0,1099.08,381.65Zm2.67,20.67a17.5,17.5,0,0,1-4.65,5.54,15.87,15.87,0,0,1-6.55,3.1,10.32,10.32,0,0,1-13-10.45,14.66,14.66,0,0,1,1.78-6.86,17.53,17.53,0,0,1,4.66-5.54,15.84,15.84,0,0,1,6.55-3.1,10.31,10.31,0,0,1,13,10.44A14.67,14.67,0,0,1,1101.74,402.32Z" transform="translate(-23.81 -29.54)" style="fill: #304154"/>
      <path d="M1140.66,367.83c-2-.64-3.44-1-4.91-1.35l-.28-.06-.33-.07c-.74-.17-1.5-.31-2.34-.46l-.15,0c-.57-.09-1.16-.19-1.82-.28-1.34-.19-2-.25-3.36-.37a.24.24,0,0,1,0,0c-2.37-.19-4.7-.3-6.95-.26-3.11,0-6.09.27-9,.61s-5.77.77-8.57,1.26-5.56,1-8.3,1.59l-8.21,1.69c-2.74.56-5.5,1.1-8.3,1.59s-5.65.92-8.57,1.25-5.92.56-9,.61a69,69,0,0,1-9.5-.49l-.53-.07c-1.53-.21-3.09-.47-4.67-.81l-.2,0c-.8-.18-1.62-.37-2.5-.61h0q-1.33-.36-2.68-.8c-1.58-.52-2.38-.81-4-1.47v57.38c1.58.66,2.37.95,4,1.46a51,51,0,0,0,5.46,1.48c1.43.31,2.88.57,4.67.8l.34,0h.13l.3,0c1.46.17,2.19.24,3.66.33v0c1.89.12,3.75.17,5.56.14,3.1,0,6.1-.28,9-.61s5.77-.76,8.57-1.25,5.56-1,8.3-1.59l8.21-1.69c2.74-.56,5.5-1.1,8.3-1.59s5.66-.92,8.57-1.25,5.91-.56,9-.61a67.79,67.79,0,0,1,9.66.5q1.21.16,2.46.37l.15,0c.83.14,1.59.29,2.33.46l.33.07c1.69.38,3.42.84,5.2,1.42,1.58.52,2.37.81,4,1.46V369.3C1143,368.64,1142.24,368.35,1140.66,367.83Zm-9.83,1.72,1.82.27.15,0c.77.13,1.55.28,2.34.45l.33.07c1.69.38,3.42.84,5.19,1.41v11.15c-.13,0-.26,0-.39-.08a14.81,14.81,0,0,1-6.78-4.51,11.28,11.28,0,0,1-2.81-7.23A9.38,9.38,0,0,1,1130.84,369.56Zm-90.43,14.32v-9.16a51.61,51.61,0,0,0,5.31,1.44h.06l.07,0c1.48.32,3,.59,4.88.83l.15,0h.05l.35,0c0,.35.1.69.1,1a8.18,8.18,0,0,1-2.81,6.38,7.16,7.16,0,0,1-6.79,1.25,10.63,10.63,0,0,1-1.38-.57Zm10.91,42.68-.36,0-.28,0q-2.31-.3-4.7-.81l-.11,0-.39-.09c-.77-.17-1.54-.35-2.32-.57l-.12,0q-1.3-.36-2.63-.79V414a13.56,13.56,0,0,1,1.38.29,14.5,14.5,0,0,1,6.79,4.37,11.09,11.09,0,0,1,2.81,7.18C1051.39,426.08,1051.34,426.31,1051.32,426.56Zm89.34-14.46v9.16c-2-.65-3.47-1-5-1.36l-.26-.05-.29-.06c-.72-.16-1.47-.3-2.27-.45l-.33-.05c-.56-.09-1.15-.19-1.8-.27,0-.25-.07-.5-.07-.76a8.05,8.05,0,0,1,2.81-6.34,7.06,7.06,0,0,1,6.78-1.11l.39.16Zm-.39-5.27a10,10,0,0,0-6.83.16,10.31,10.31,0,0,0-4.86,4.17,12.6,12.6,0,0,0-1.85,6.67,6.48,6.48,0,0,0,.05.79c-2.12-.15-4.22-.24-6.24-.21-3.11.05-6.09.28-9,.61s-5.77.77-8.57,1.25-5.56,1-8.3,1.59l-8.21,1.69c-2.74.56-5.5,1.1-8.3,1.59s-5.65.92-8.57,1.25-5.92.56-9,.61c-1.71,0-3.47,0-5.25-.12a5.17,5.17,0,0,0,.06-.73,14.25,14.25,0,0,0-1.86-7,17.7,17.7,0,0,0-4.86-5.47,21.72,21.72,0,0,0-6.84-3.42c-.53-.15-1-.25-1.38-.33V389.19a10.23,10.23,0,0,0,8.22.26,10.58,10.58,0,0,0,4.86-4.26,12.73,12.73,0,0,0,1.86-6.7,7.69,7.69,0,0,0-.08-1.05c1.79.1,3.55.15,5.27.12,3.1-.05,6.1-.28,9-.61s5.77-.77,8.57-1.26,5.56-1,8.3-1.59l8.21-1.68c2.74-.56,5.5-1.1,8.3-1.59s5.66-.92,8.57-1.25,5.91-.56,9-.61c2,0,4.16.05,6.31.21a11,11,0,0,0-.12,1.55,14.41,14.41,0,0,0,1.85,7,18.22,18.22,0,0,0,4.86,5.55,22.34,22.34,0,0,0,6.83,3.55c.13,0,.26.07.39.1V407C1140.53,406.93,1140.4,406.87,1140.27,406.83Z" transform="translate(-23.81 -29.54)" style="fill: #304154"/>
      <path d="M1060.48,395.23a7.37,7.37,0,0,0-5,2,6.59,6.59,0,0,0-2.07,4.85,7.5,7.5,0,0,0,2.07,5.14,6.74,6.74,0,0,0,5,2.16,7,7,0,0,0,5-2.29,7.63,7.63,0,0,0,2.07-5.16,6.47,6.47,0,0,0-2.07-4.81A7.13,7.13,0,0,0,1060.48,395.23Zm0,10.16a3.1,3.1,0,1,1,0-6.21,3,3,0,0,1,3.1,3A3.21,3.21,0,0,1,1060.48,405.39Z" transform="translate(-23.81 -29.54)" style="fill: #304154"/>
      <path d="M1120.59,386.63a7,7,0,0,0-5,2.29,7.64,7.64,0,0,0-2.07,5.17,6.47,6.47,0,0,0,2.07,4.81,7.13,7.13,0,0,0,5,1.85,7.41,7.41,0,0,0,5-2,6.57,6.57,0,0,0,2.07-4.85,7.51,7.51,0,0,0-2.07-5.14A6.71,6.71,0,0,0,1120.59,386.63Zm0,10.16a3,3,0,0,1-3.1-3,3.21,3.21,0,0,1,3.1-3.21,3.1,3.1,0,1,1,0,6.21Z" transform="translate(-23.81 -29.54)" style="fill: #304154"/>
    </g>
    <path d="M831,359.65a45.84,45.84,0,0,0-11.18-3.81,51.27,51.27,0,0,0-10.26-1,67.7,67.7,0,0,0-9.47.72c-2.72.39-5.63.94-8.88,1.68-3.08.71-6,1.49-8.49,2.16L778,360.71l-3.64,1c-3.13.85-5.58,1.47-7.88,2-2.72.63-5.21,1.13-7.54,1.51l-.42.06-1.29.19c-1,.14-2,.23-2.92.32-.53.05-1.08.12-1.59.16-1.37.1-2.73.16-4.1.16h-.14c-1,0-1.92-.08-2.87-.13-.64,0-1.3,0-1.92-.11-.86-.09-1.72-.24-2.56-.38-.61-.1-1.22-.16-1.84-.29-.86-.18-1.7-.38-2.53-.6-.38-.1-.74-.23-1.11-.34s-.89-.25-1.32-.4a42.18,42.18,0,0,1-4.9-2,2,2,0,0,0-.42-.15,2.32,2.32,0,0,0-1.34,0,2.26,2.26,0,0,0-.56.25,2.39,2.39,0,0,0-1,1.42,2.36,2.36,0,0,0-.08.6V399h0v8.48a1.7,1.7,0,0,0,0,.37v8.41a1.68,1.68,0,0,0,0,.34v8.43a1.66,1.66,0,0,0,0,.34v8.79a2.38,2.38,0,0,0,1.34,2.15,45.89,45.89,0,0,0,11.18,3.79,50.52,50.52,0,0,0,10.08,1h.17a68.12,68.12,0,0,0,9.47-.72c2.72-.39,5.54-.92,8.88-1.69,3.17-.73,6.2-1.54,8.5-2.16l3.87-1.07,4.44-1.22c2.43-.66,5.32-1.42,8.32-2.11s5.85-1.23,8.48-1.61a64,64,0,0,1,8.89-.67,46.48,46.48,0,0,1,9.21.88,41.52,41.52,0,0,1,10,3.42A2.39,2.39,0,0,0,832.3,432V361.79A2.39,2.39,0,0,0,831,359.65Zm-100.2,51.81a46.26,46.26,0,0,0,7.71,2.29,50.32,50.32,0,0,0,10.09,1h.18a67,67,0,0,0,9.48-.72c2.73-.39,5.64-.93,8.88-1.68,3.09-.71,6-1.49,8.5-2.16l8.32-2.28c2.25-.61,5.23-1.4,8.31-2.11s5.86-1.24,8.49-1.61a63.13,63.13,0,0,1,8.81-.68h.12a46,46,0,0,1,9.18.88,41,41,0,0,1,8.7,2.81v3.57a46.36,46.36,0,0,0-7.74-2.3,54.74,54.74,0,0,0-10.27-1,67.81,67.81,0,0,0-9.47.72c-2.74.39-5.65.94-8.88,1.68-2.48.57-5.1,1.24-8.5,2.16l-8.32,2.28c-3.33.91-5.9,1.55-8.32,2.11-3.11.71-5.88,1.24-8.49,1.61a61.85,61.85,0,0,1-8.81.68h-.16a45.32,45.32,0,0,1-9.14-.88,40.73,40.73,0,0,1-8.66-2.79Zm96.75-27a45.2,45.2,0,0,0-7.17-2.19,49.08,49.08,0,0,0-9.42-1.09,64.7,64.7,0,0,0-8.63.42c-2.57.29-5.29.74-8.31,1.36-2.53.53-5.29,1.17-8.43,2-2.26.59-4.58,1.24-7,1.9l-2,.55c-2.12.59-4.51,1.23-7,1.87v-3.85c2.9-.72,5.7-1.46,8.3-2.17l2.41-.66c2.26-.62,4.42-1.22,6.53-1.77,3.05-.79,5.73-1.43,8.18-1.93,2.88-.59,5.45-1,7.88-1.29a58.26,58.26,0,0,1,8-.39,44.84,44.84,0,0,1,8.52,1,40.84,40.84,0,0,1,8.18,2.7Zm-58,9.75c3-.74,5.84-1.5,8.3-2.18l2-.55c2.41-.66,4.72-1.3,7-1.89,3.05-.79,5.73-1.43,8.18-1.93,2.88-.6,5.45-1,7.88-1.29a58.49,58.49,0,0,1,8-.39,44.5,44.5,0,0,1,8.52,1,40.59,40.59,0,0,1,8.18,2.7v3.58a45.28,45.28,0,0,0-7.17-2.19,49.69,49.69,0,0,0-9.42-1.08,63.35,63.35,0,0,0-8.63.42c-2.63.3-5.34.74-8.31,1.35-2.52.52-5.28,1.18-8.42,2-2.28.6-4.63,1.25-7.08,1.92l-1.91.53c-2.23.61-4.6,1.24-7,1.85Zm58-18.51a45.76,45.76,0,0,0-7.17-2.18,49.59,49.59,0,0,0-9.42-1.09,65.16,65.16,0,0,0-8.63.42c-2.57.29-5.29.73-8.31,1.36-2.53.53-5.29,1.18-8.43,2-2.13.56-4.31,1.16-6.59,1.79l-2.4.67c-2.23.61-4.6,1.24-7,1.85v-3.84c2.92-.72,5.72-1.46,8.3-2.17l2.24-.62c2.32-.64,4.54-1.25,6.7-1.82,3-.78,5.65-1.41,8.18-1.94,2.85-.59,5.43-1,7.88-1.29a57.61,57.61,0,0,1,8-.39,44.2,44.2,0,0,1,8.52,1,40.83,40.83,0,0,1,8.18,2.7Zm-59.87,27.74h0c3.6-.84,7-1.76,10.16-2.63l1.92-.53c2.43-.67,4.76-1.31,7-1.91,3.06-.8,5.74-1.44,8.18-1.94,2.82-.58,5.39-1,7.88-1.28a59.15,59.15,0,0,1,8-.39,44.55,44.55,0,0,1,8.52,1,41,41,0,0,1,8.18,2.7V402a46.32,46.32,0,0,0-7.74-2.3,49.68,49.68,0,0,0-10.27-1,66.88,66.88,0,0,0-9.47.72c-2.76.39-5.67.94-8.89,1.68s-6.2,1.53-8.5,2.16l-8.32,2.28c-2.43.66-5.31,1.42-8.32,2.11s-5.88,1.25-8.49,1.61a63.48,63.48,0,0,1-8.81.68,42.3,42.3,0,0,1-9.3-.89,40.91,40.91,0,0,1-8.66-2.79v-3.58a45.14,45.14,0,0,0,7.55,2.25,49.63,49.63,0,0,0,9.41,1h.89a66.32,66.32,0,0,0,8.42-.57A103.68,103.68,0,0,0,767.64,403.42Zm-36.88,16.81a46,46,0,0,0,7.7,2.29,50.2,50.2,0,0,0,10.09,1h.18a67.39,67.39,0,0,0,9.48-.72c2.73-.39,5.64-.94,8.88-1.68,2.48-.57,5.1-1.23,8.5-2.16l8.32-2.28c3.34-.9,5.9-1.55,8.31-2.11,3.11-.72,5.88-1.24,8.49-1.61a63.24,63.24,0,0,1,8.81-.67,44.09,44.09,0,0,1,9.3.88,41.39,41.39,0,0,1,8.7,2.81v3.57a46.53,46.53,0,0,0-7.74-2.31,45.08,45.08,0,0,0-10.26-1A67.79,67.79,0,0,0,800,417c-2.76.4-5.66.95-8.88,1.69-2.52.58-5.22,1.26-8.5,2.15l-8.32,2.28c-2.44.67-5.34,1.44-8.32,2.12s-5.88,1.24-8.49,1.61a63.21,63.21,0,0,1-8.81.68,49.83,49.83,0,0,1-9.3-.89,41,41,0,0,1-8.66-2.79Zm44.85-53.9,3.66-1,4.65-1.28c2.43-.66,5.31-1.42,8.31-2.12s5.9-1.24,8.49-1.6a62.59,62.59,0,0,1,8.93-.67,45.51,45.51,0,0,1,9.18.88,40.59,40.59,0,0,1,8.69,2.78v3.6a46,46,0,0,0-7.17-2.18,49.64,49.64,0,0,0-9.42-1.09,61.82,61.82,0,0,0-8.63.42c-2.59.29-5.31.73-8.3,1.35-2.62.54-5.37,1.19-8.42,2-2.18.57-4.43,1.19-6.76,1.84l-2.23.62c-2.21.61-4.59,1.24-7,1.85V367.9C771.34,367.45,773.29,366.95,775.61,366.33Zm-41.11,2.6c1,.29,2,.53,3,.75.27.06.52.14.79.2h0l.18,0c1.34.27,2.7.47,4.09.63l.52.06c1.36.14,2.78.21,4.25.25l.36,0h1c.39,0,.8,0,1.18,0,1,0,2-.05,3.06-.12.63,0,1.28-.12,1.92-.19s1.38-.11,2.1-.2l.7-.11.51-.06c2.06-.29,4.18-.67,6.52-1.17v30.18c-3.06.67-5.8,1.15-8.33,1.48a61.9,61.9,0,0,1-7.82.53h-.81a44.79,44.79,0,0,1-8.52-.92,40.6,40.6,0,0,1-8.51-2.73V367.64C732,368.13,733.23,368.55,734.5,368.92Zm93,59.43a45.69,45.69,0,0,0-7.74-2.29,51,51,0,0,0-10.26-1,67.68,67.68,0,0,0-9.47.72c-2.77.4-5.68.95-8.88,1.68s-6,1.49-8.5,2.16l-4.47,1.23-3.85,1.06c-2.25.62-5.23,1.4-8.31,2.11s-5.9,1.25-8.49,1.62a63.6,63.6,0,0,1-8.81.68l-.16,2.39v-2.39a45.78,45.78,0,0,1-9.14-.88,40.78,40.78,0,0,1-8.69-2.77V429a45.58,45.58,0,0,0,7.71,2.29,50.52,50.52,0,0,0,10.18,1h.09a68.93,68.93,0,0,0,9.47-.73c2.74-.39,5.64-.94,8.88-1.68,3.05-.7,6-1.49,8.5-2.17l8.32-2.28c3.21-.87,5.86-1.54,8.31-2.11,3.09-.71,5.86-1.24,8.49-1.61a61.74,61.74,0,0,1,8.81-.68h.12a45.79,45.79,0,0,1,9.18.88,41.15,41.15,0,0,1,8.7,2.82Z" transform="translate(-23.81 -29.54)" style="fill: #304154"/>
    <g>
      <path d="M961.46,357.4H907.29a21.09,21.09,0,0,0-21.07,21.07v46.36a2.39,2.39,0,0,0,2.39,2.39h8.72a2.39,2.39,0,0,0,2.39-2.39v-22h2.66v33.39a2.39,2.39,0,0,0,2.39,2.39h15.41a2.39,2.39,0,0,0,2.39-2.39V419H962.8v17.22a2.39,2.39,0,0,0,2.39,2.39h14.94a2.39,2.39,0,0,0,2.39-2.39V378.47A21.09,21.09,0,0,0,961.46,357.4Zm0,4.78a16.31,16.31,0,0,1,16.28,16.28v9.28h-33a23.34,23.34,0,0,0-8.23-25.56ZM891,378.47a16.31,16.31,0,0,1,16.29-16.28h15.07a18.59,18.59,0,0,1,17.27,25.56H891Zm86.74,55.32H967.59V416.57a2.39,2.39,0,0,0-2.39-2.39h-45a2.39,2.39,0,0,0-2.39,2.39v17.22H907.18V400.4a2.39,2.39,0,0,0-2.39-2.39h-7.45a2.39,2.39,0,0,0-2.39,2.39v22H891v-29.9h45.81a18.6,18.6,0,0,1-14.45,6.9,2.39,2.39,0,1,0,0,4.78,23.4,23.4,0,0,0,20.23-11.68h35.15Z" transform="translate(-23.81 -29.54)" style="fill: #304154"/>
      <circle cx="881.18" cy="348.81" r="3.03" style="fill: #304154"/>
    </g>
    <g>
      <circle cx="883.87" cy="494.04" r="3.14" style="fill: #304154"/>
      <path d="M985.24,565.64c-8.7-3.87-9.51-16.68-9.52-16.81a2.32,2.32,0,0,0-.21-.81,15.45,15.45,0,0,0-15.25-13.19H925.55V516.14a15.45,15.45,0,0,0-15.43-15.43h-1.3a2.39,2.39,0,0,0-2.39,2.39v9.4H901.2A18.28,18.28,0,0,0,883,530.75v1.58a2.39,2.39,0,0,0,2.39,2.39h21.08v58.14a2.39,2.39,0,0,0,2.39,2.39h11.44a2.39,2.39,0,0,0,2.39-2.39V573H960v19.89a2.39,2.39,0,0,0,2.39,2.39H973.3a2.39,2.39,0,0,0,2.39-2.39v-29.4A17.94,17.94,0,0,0,983.3,570a2.39,2.39,0,1,0,1.94-4.37Zm-76.42-35.7H887.76a13.49,13.49,0,0,1,13.45-12.67h7.61a2.39,2.39,0,0,0,2.39-2.39v-9.34a10.67,10.67,0,0,1,9.56,10.59v21.08a2.39,2.39,0,0,0,2.39,2.39h37.1a10.64,10.64,0,0,1,10.61,10.3H911.2V532.33A2.39,2.39,0,0,0,908.82,529.95Zm62.09,60.52h-6.15V570.58a2.39,2.39,0,0,0-2.39-2.39h-42.1a2.39,2.39,0,0,0-2.39,2.39v19.89H911.2V554.69h59.7Z" transform="translate(-23.81 -29.54)" style="fill: #304154"/>
    </g>
    <g>
      <path d="M649.37,364.14h-.17v-7.44a6.09,6.09,0,1,0-12.17,0v7.44H614v-7.44a6.09,6.09,0,1,0-12.17,0v7.44h-.16A22.71,22.71,0,0,0,579,386.83v35.85a22.71,22.71,0,0,0,22.68,22.68h47.68A22.71,22.71,0,0,0,672,422.67V386.83A22.71,22.71,0,0,0,649.37,364.14Zm17.9,58.53a17.92,17.92,0,0,1-17.9,17.9H601.69a17.92,17.92,0,0,1-17.9-17.9V386.83a17.92,17.92,0,0,1,17.9-17.9h.16v1a6.09,6.09,0,0,0,12.17,0v-1h23v1a6.09,6.09,0,0,0,12.17,0v-1h.17a17.92,17.92,0,0,1,17.9,17.9Z" transform="translate(-23.81 -29.54)" style="fill: #304154"/>
      <path d="M656.47,381.43H594.59a2.39,2.39,0,0,0-2.39,2.39v44.3a2.39,2.39,0,0,0,2.39,2.4h61.88a2.39,2.39,0,0,0,2.39-2.4v-44.3A2.39,2.39,0,0,0,656.47,381.43Zm-2.39,44.3H597V386.21h57.1Z" transform="translate(-23.81 -29.54)" style="fill: #304154"/>
      <path d="M615.88,412.08h11v6.73a2.39,2.39,0,1,0,4.78,0v-6.73h3.66a2.39,2.39,0,0,0,0-4.79h-3.66V393.46a2.39,2.39,0,0,0-4.24-1.52L614,408.17a2.39,2.39,0,0,0,1.84,3.91Zm11-12v7.17H621Z" transform="translate(-23.81 -29.54)" style="fill: #304154"/>
    </g>
    <g>
      <path d="M1135.61,557.09c2.29-2.54,4.88-5.42,4.88-9.11s-2.59-6.57-4.88-9.11c-1.38-1.54-2.81-3.12-3.25-4.49s-.26-3.67,0-5.8c.34-3.33.71-7.11-1.37-10s-5.84-3.7-9.13-4.41c-2.08-.45-4.22-.91-5.44-1.8s-2.28-2.75-3.33-4.57c-1.7-2.94-3.62-6.26-7.07-7.38a7.75,7.75,0,0,0-2.41-.37c-2.52,0-5,1.09-7.39,2.14-2,.88-4,1.79-5.65,1.79s-3.65-.91-5.64-1.78c-2.39-1.05-4.87-2.14-7.39-2.14a7.71,7.71,0,0,0-2.4.37c-3.45,1.12-5.37,4.44-7.07,7.38-1,1.82-2.14,3.7-3.33,4.57s-3.37,1.35-5.44,1.8c-3.29.71-7,1.51-9.13,4.4s-1.7,6.65-1.36,10c.21,2.13.44,4.33,0,5.79s-1.87,3-3.26,4.49c-2.29,2.54-4.88,5.42-4.88,9.11s2.6,6.57,4.88,9.11c1.38,1.53,2.81,3.12,3.25,4.47s.25,3.67,0,5.79c-.34,3.34-.72,7.12,1.37,10s5.84,3.7,9.13,4.41c2.08.44,4.22.91,5.44,1.79s2.28,2.75,3.33,4.57c1.7,2.94,3.62,6.27,7.07,7.39a7.85,7.85,0,0,0,2.4.37c2.52,0,5-1.09,7.39-2.14,2-.88,4-1.78,5.64-1.78s3.66.91,5.65,1.79c2.4,1.05,4.87,2.14,7.39,2.14a7.86,7.86,0,0,0,2.4-.37c3.45-1.12,5.37-4.45,7.07-7.39,1-1.82,2.14-3.7,3.33-4.57s3.37-1.35,5.44-1.79c3.3-.71,7-1.51,9.13-4.41s1.71-6.64,1.37-10c-.22-2.13-.44-4.33,0-5.8S1134.23,558.62,1135.61,557.09Zm-3.73-3.36c-1.74,1.92-3.53,3.91-4.3,6.29s-.52,5.21-.26,7.86.52,5.2-.43,6.52-3.59,1.91-6.12,2.46-5.26,1.13-7.34,2.64-3.41,3.84-4.72,6.11-2.66,4.6-4.28,5.12c-1.43.47-3.88-.56-6.22-1.59s-5-2.21-7.68-2.21-5.21,1.13-7.67,2.21-4.79,2.07-6.22,1.6c-1.62-.53-3-2.86-4.28-5.13s-2.67-4.61-4.72-6.1-4.75-2.09-7.34-2.64-5.15-1.11-6.13-2.46-.69-4-.43-6.51.54-5.38-.26-7.86-2.57-4.36-4.3-6.29-3.59-4-3.59-5.75,1.83-3.79,3.59-5.75,3.53-3.91,4.3-6.29.52-5.2.26-7.85-.53-5.21.43-6.52,3.6-1.91,6.13-2.45,5.26-1.13,7.34-2.64,3.41-3.84,4.72-6.11,2.66-4.6,4.27-5.12c1.43-.47,3.88.56,6.22,1.59s5,2.21,7.67,2.21,5.21-1.12,7.67-2.21,4.77-2.06,6.22-1.59c1.62.53,3,2.86,4.28,5.12s2.67,4.62,4.72,6.11,4.75,2.09,7.34,2.64,5.15,1.11,6.13,2.45.69,4,.43,6.51-.54,5.38.26,7.86,2.56,4.37,4.3,6.3,3.59,4,3.59,5.75S1133.64,551.77,1131.88,553.73Z" transform="translate(-23.81 -29.54)" style="fill: #304154"/>
      <path d="M1121.73,541.24c-1-.77-2.48-1.92-2.67-2.53s.29-2.49.68-3.81c.76-2.67,1.63-5.7-.09-8.07s-4.91-2.5-7.7-2.59c-1.36,0-3.22-.11-3.78-.51s-1.19-2.2-1.62-3.39c-1-2.65-2-5.65-4.88-6.57a4.89,4.89,0,0,0-1.54-.24c-2.19,0-4.18,1.34-6.09,2.63-1.16.78-2.74,1.85-3.5,1.85s-2.33-1.07-3.49-1.85c-1.92-1.29-3.9-2.63-6.09-2.63a4.91,4.91,0,0,0-1.54.24c-2.84.93-3.92,3.92-4.88,6.57-.43,1.2-1.08,3-1.62,3.39s-2.42.47-3.78.51c-2.8.1-6,.2-7.7,2.6s-.86,5.4-.09,8.08c.38,1.32.9,3.13.68,3.81s-1.69,1.76-2.67,2.53c-2.24,1.74-4.78,3.71-4.78,6.75s2.54,5,4.78,6.74c1,.76,2.48,1.92,2.67,2.52s-.3,2.49-.68,3.81c-.77,2.68-1.64,5.7.09,8.07s4.91,2.5,7.7,2.6c1.36,0,3.22.1,3.78.51s1.19,2.19,1.62,3.39c1,2.64,2,5.64,4.88,6.57a4.89,4.89,0,0,0,1.54.24c2.19,0,4.17-1.34,6.09-2.63,1.15-.78,2.73-1.84,3.49-1.84s2.34,1.06,3.5,1.84c1.92,1.3,3.9,2.63,6.09,2.63a4.91,4.91,0,0,0,1.54-.24c2.84-.93,3.93-3.92,4.88-6.57.43-1.2,1.08-3,1.61-3.39s2.42-.47,3.78-.52c2.79-.09,6-.2,7.71-2.6s.86-5.39.09-8.07c-.38-1.32-.9-3.13-.68-3.82s1.68-1.75,2.67-2.52c2.24-1.73,4.78-3.71,4.78-6.74S1124,543,1121.73,541.24Zm-42.42-6.73a2.5,2.5,0,0,1,2-1.71l4.8-.7,2.14-4.35a2.52,2.52,0,0,1,2.25-1.4h0a2.52,2.52,0,0,1,2.25,1.39l2.15,4.36,4.8.7a2.51,2.51,0,0,1,1.39,4.28l-3.48,3.38.82,4.78a2.51,2.51,0,0,1-3.64,2.65l-4.3-2.26-4.29,2.25a2.47,2.47,0,0,1-1.17.29,2.52,2.52,0,0,1-2.48-2.94l.82-4.79-3.47-3.38A2.51,2.51,0,0,1,1079.31,534.5Zm-13.81,31.68c-.25-.53.35-2.62.67-3.74a13.63,13.63,0,0,0,.77-6h3.61v10.27l-1.24-.05C1068.11,566.66,1065.9,566.58,1065.5,566.18Zm13.76,7.74c-.79-2.18-1.61-4.44-3.39-5.75-.09-.07-.2-.1-.3-.16V556.49h6.63v20.44a3.4,3.4,0,0,1-1.23.5C1080.43,577.19,1079.64,575,1079.26,573.92Zm8-.11V556.49h6.63v17.33a6.68,6.68,0,0,0-6.63,0Zm14.59.11c-.38,1.06-1.18,3.27-1.68,3.49h0a3.3,3.3,0,0,1-1.24-.5V556.49h6.63V568c-.1.07-.22.1-.31.17C1103.41,569.48,1102.6,571.73,1101.81,573.92Zm13.77-7.75c-.41.42-2.63.5-3.82.54l-1.24.05V556.49h3.61a13.55,13.55,0,0,0,.76,6C1115.22,563.57,1115.82,565.66,1115.58,566.17Z" transform="translate(-23.81 -29.54)" style="fill: #304154"/>
    </g>
    <g>
      <path d="M605.36,241.78h79.56a2.39,2.39,0,0,0,2.39-2.39v-5.22c0-15.27-16.21-27.69-36.14-27.69H639.1c-19.92,0-36.13,12.42-36.13,27.69v5.22A2.39,2.39,0,0,0,605.36,241.78Zm2.39-7.61c0-12.63,14.06-22.91,31.35-22.91h12.07c17.29,0,31.36,10.28,31.36,22.91V237H607.75Z" transform="translate(-23.81 -29.54)" style="fill: #304154"/>
      <path d="M683.64,257.44h-77A7.62,7.62,0,0,0,603,271.75v.33a15.51,15.51,0,0,0,15.49,15.49h52.31a15.5,15.5,0,0,0,15.48-15.34,7.62,7.62,0,0,0-2.61-14.8Zm-65.18,25.35a10.72,10.72,0,0,1-10.69-10.07h34l15.7,10.07Zm49.29-10.07-8.54,5.48-8.55-5.48Zm3,10.07h-9.86l15.7-10.07h4.84A10.73,10.73,0,0,1,670.77,282.79Zm12.89-14.85h-77a2.86,2.86,0,0,1,0-5.71h77a2.86,2.86,0,0,1,0,5.71Z" transform="translate(-23.81 -29.54)" style="fill: #304154"/>
      <path d="M691.28,245.54c-2.36,0-4.24,1.2-5.9,2.25a4.45,4.45,0,0,1-6.66,0c-1.66-1-3.54-2.25-5.9-2.25s-4.24,1.2-5.9,2.25a4.44,4.44,0,0,1-6.66,0c-1.66-1-3.54-2.25-5.9-2.25s-4.24,1.2-5.9,2.25a4.44,4.44,0,0,1-6.66,0c-1.65-1-3.53-2.25-5.89-2.25s-4.24,1.2-5.89,2.25a4.45,4.45,0,0,1-6.66,0c-1.65-1-3.53-2.25-5.9-2.25s-4.24,1.2-5.89,2.25a4.44,4.44,0,0,1-6.66,0c-1.66-1-3.54-2.25-5.9-2.25a2.39,2.39,0,1,0,0,4.78,7.39,7.39,0,0,1,3.33,1.5c1.66,1.05,3.53,2.25,5.9,2.25s4.25-1.19,5.9-2.25a4.45,4.45,0,0,1,6.67,0c1.66,1.05,3.53,2.25,5.89,2.25s4.25-1.19,5.9-2.25a4.44,4.44,0,0,1,6.65,0c1.66,1.05,3.53,2.25,5.9,2.25s4.24-1.19,5.9-2.25a4.45,4.45,0,0,1,6.67,0c1.65,1.05,3.53,2.25,5.9,2.25s4.24-1.19,5.9-2.25a4.45,4.45,0,0,1,6.66,0c1.66,1.05,3.54,2.25,5.9,2.25s4.24-1.19,5.9-2.25a7.37,7.37,0,0,1,3.33-1.5,2.39,2.39,0,0,0,0-4.78Z" transform="translate(-23.81 -29.54)" style="fill: #304154"/>
      <path d="M621.76,223.84a2,2,0,0,0-.82,3.36,2,2,0,0,0,2.87,0,2.1,2.1,0,0,0,.49-.82h0l1.85-4.4-4.39,1.85Z" transform="translate(-23.81 -29.54)" style="fill: #304154"/>
      <path d="M630.82,216.35h0a1.86,1.86,0,0,0-.83.49,2,2,0,1,0,2.87,2.87,2.05,2.05,0,0,0,.49-.82h0l1.86-4.39Z" transform="translate(-23.81 -29.54)" style="fill: #304154"/>
      <path d="M635,223.84a2,2,0,0,0-.82,3.36,2,2,0,0,0,2.87,0,2.15,2.15,0,0,0,.49-.82h0l1.85-4.4L635,223.84Z" transform="translate(-23.81 -29.54)" style="fill: #304154"/>
      <path d="M644.09,216.35h0a2,2,0,0,0-.83.49,2,2,0,1,0,3.36,2h0l1.85-4.39Z" transform="translate(-23.81 -29.54)" style="fill: #304154"/>
      <path d="M648.3,223.84a2,2,0,0,0-.82,3.36,2,2,0,0,0,3.36-.82h0l1.85-4.4-4.4,1.85Z" transform="translate(-23.81 -29.54)" style="fill: #304154"/>
      <path d="M657.36,216.35h0a2,2,0,0,0-.83.49,2,2,0,1,0,3.36,2h0l1.85-4.39Z" transform="translate(-23.81 -29.54)" style="fill: #304154"/>
      <path d="M661.57,223.84a2,2,0,1,0,2,3.36,2.09,2.09,0,0,0,.49-.82h0L666,222l-4.4,1.85Z" transform="translate(-23.81 -29.54)" style="fill: #304154"/>
    </g>
    <g>
      <path d="M680.64,75.61l-6.71-14.17a2.39,2.39,0,0,0-2.16-1.37H645.39V49.13l15.5-15.5a2.39,2.39,0,1,0-3.38-3.38l-16.2,16.21a2.39,2.39,0,0,0-.7,1.69V60.07H614.22a2.39,2.39,0,0,0-2.16,1.37L605.17,76a2.39,2.39,0,0,0,2.16,3.42h4.73L618.73,144a2.4,2.4,0,0,0,2.38,2.15h43.76a2.39,2.39,0,0,0,2.38-2.15l6.67-64.62h4.78a2.4,2.4,0,0,0,1.93-3.81ZM662.72,141.4H623.27l-6.4-62h52.25Zm9-66.77H611.11l4.63-9.78h54.52l4.63,9.78Z" transform="translate(-23.81 -29.54)" style="fill: #304154"/>
      <path d="M643.4,121.1a15,15,0,1,0-14.95-15A15,15,0,0,0,643.4,121.1Zm0-25.12a10.17,10.17,0,1,1-10.17,10.17A10.19,10.19,0,0,1,643.4,96Z" transform="translate(-23.81 -29.54)" style="fill: #304154"/>
    </g>
    <g>
      <path d="M823,539.42l-3.87-10.61c0-.07-.08-.12-.12-.19a40.47,40.47,0,0,0-76.07,27.67,1.71,1.71,0,0,0,0,.24l3.86,10.61a40.65,40.65,0,0,0,38.08,26.67h0A40.55,40.55,0,0,0,823,539.42ZM781,506.93a35.73,35.73,0,1,1-35.74,35.74A35.78,35.78,0,0,1,781,506.93Zm16.09,79.93A35.66,35.66,0,0,1,784.9,589h0a35.85,35.85,0,0,1-28.57-14.32,40.42,40.42,0,0,0,64.25-23.31A35.8,35.8,0,0,1,797.12,586.86Z" transform="translate(-23.81 -29.54)" style="fill: #304154"/>
      <path d="M775.94,550.91a2.39,2.39,0,0,0-2.39-2.39h0a2.39,2.39,0,0,0-2.39,2.39,9.87,9.87,0,0,0,7.48,9.54v1a2.39,2.39,0,0,0,4.78,0v-1a9.83,9.83,0,0,0,0-19.1v-9.88a4.95,4.95,0,0,1,2.7,4.46,2.39,2.39,0,0,0,2.39,2.4h0a2.39,2.39,0,0,0,2.39-2.4,9.78,9.78,0,0,0-7.48-9.54v-2.54a2.39,2.39,0,1,0-4.78,0v2.54a9.83,9.83,0,0,0,0,19.1v9.88A5.08,5.08,0,0,1,775.94,550.91Zm7.48-4.46a5,5,0,0,1,0,8.93Zm-7.48-10.5a5.08,5.08,0,0,1,2.7-4.47v8.94A5.07,5.07,0,0,1,775.94,535.95Z" transform="translate(-23.81 -29.54)" style="fill: #304154"/>
    </g>
    <g>
      <path d="M681.2,586.1h-1.5v-24a2.39,2.39,0,0,0-2.39-2.39h-3.7V539.19a29.85,29.85,0,0,0-21.44-28.5v-5.22a2.38,2.38,0,0,0-1.55-2.22,8,8,0,1,0-13.37,0,2.38,2.38,0,0,0-1.55,2.22v5.22a29.85,29.85,0,0,0-21.44,28.5v20.52h-3.7a2.39,2.39,0,0,0-2.39,2.39v24h-1.5a2.39,2.39,0,0,0-2.39,2.39v9.26a2.39,2.39,0,0,0,2.39,2.39H681.2a2.39,2.39,0,0,0,2.39-2.39v-9.26A2.39,2.39,0,0,0,681.2,586.1Zm-37.27-90.42a3.21,3.21,0,1,1-3.21,3.21A3.21,3.21,0,0,1,643.93,495.68ZM619,539.19a25,25,0,0,1,19.55-24.3,2.39,2.39,0,0,0,1.88-2.33v-4.69h6.91v4.69a2.39,2.39,0,0,0,1.88,2.33,25,25,0,0,1,19.56,24.3v20.52h-4V541h-5.92v18.7h-6.24V541h-5.91v18.7h-6.24V541h-5.92v18.7h-6.24V541h-5.92v18.7H619Zm-6.09,25.3h62v21.36h-3.68V570.73h-5.92v15.13H659V570.73h-5.92v15.13h-6.24V570.73h-5.92v15.13h-6.24V570.73h-5.92v15.13h-6.24V570.73h-5.91v15.13h-3.68Zm65.86,30.87H609.05v-4.47H678.8Z" transform="translate(-23.81 -29.54)" style="fill: #304154"/>
      <path d="M626.59,536.21h34.67a2.39,2.39,0,1,0,0-4.78H626.59a2.39,2.39,0,0,0,0,4.78Z" transform="translate(-23.81 -29.54)" style="fill: #304154"/>
    </g>
    <g>
      <path d="M786,85.35a11.83,11.83,0,1,0,11.83,11.83A11.84,11.84,0,0,0,786,85.35Z" transform="translate(-23.81 -29.54)" style="fill: #304154"/>
      <path d="M829.4,115.22a5,5,0,0,0-3.41,1.35l-11.56-20L826.3,76a5,5,0,0,0,3.1,1.09,5,5,0,1,0-5-5,5.14,5.14,0,0,0,.21,1.36H801.07L788.32,51.32a5,5,0,1,0-2.92,0L772.65,73.4H749.16a5.22,5.22,0,0,0,.2-1.36,5,5,0,1,0-5,5,5,5,0,0,0,3.1-1.09l11.87,20.55-11.68,20.23a5.14,5.14,0,1,0,1.66,2.91h23.37l12.21,21.15a5,5,0,1,0,4,0l12.21-21.15h23.34a5.41,5.41,0,0,0-.05.57,5,5,0,1,0,5-5ZM786,114.13a17,17,0,1,1,17-17A17,17,0,0,1,786,114.13Z" transform="translate(-23.81 -29.54)" style="fill: #304154"/>
    </g>
    <g>
      <path d="M125.37,171.64a2.76,2.76,0,0,0-2.4,2.74v16.76a2.76,2.76,0,0,0,5.53,0V177.06a9.93,9.93,0,0,1,6.69,3.53,2.76,2.76,0,0,0,4.46-3.27A15.47,15.47,0,0,0,125.37,171.64Z" transform="translate(-23.81 -29.54)" style="fill: #304154"/>
      <path d="M135.81,195.86c-1.19,3.56-8,5-10.34,5.23a2.76,2.76,0,0,0,.26,5.51H126c1.27-.12,12.53-1.4,15.06-9a2.76,2.76,0,0,0-5.24-1.75Z" transform="translate(-23.81 -29.54)" style="fill: #304154"/>
      <path d="M90.31,171.91a30.31,30.31,0,0,0,1.61,6.1l.12.27L105.15,177a20,20,0,0,1,.5-3.43Z" transform="translate(-23.81 -29.54)" style="fill: #304154"/>
      <path d="M220.22,568.82H217.9c1.7-7.95,3.35-18.53-5.37-21-2.91-1.2-14.4-10.83-16.39-13.42-.55-1.41-.1-2.63,1.15-5.3a24.51,24.51,0,0,0,1.65-4.21,5.26,5.26,0,0,0,1.58-3.83c0-1.63-.54-3.74-4.47-8.06-1.17-1.29-2.12-2.24-2.91-2.95a12.18,12.18,0,0,1-.08-2.77c.13-2.66.31-6.31-3.9-11-.61-.69-1.22-1.36-1.81-2-4.31-4.76-7.41-8.2-8.82-14.28-2.93-12.72-1-23.84,1.15-35.6,1.67-9.36,3.39-19,2.33-29.29a22,22,0,0,1,.86-3.38,31.09,31.09,0,0,0,1.75-9.9,32.18,32.18,0,0,1,.5-4.72,53.87,53.87,0,0,0,.76-8c.81-9.38-.81-19.31-2.37-28.92-.69-4.21-1.33-8.18-1.77-12-.25-2.25,2.07-4.41,5.87-7.76,4.53-4,10.17-8.95,11.81-17a43.08,43.08,0,0,0,.55-7c0-1.54.1-3.56.28-5.21,6.17-1.61,10.65-9.79,14.59-18.56l.43-.95c2.21-4.79.06-8.68-1-10.54l-.17-.3a10.74,10.74,0,0,1,1.31-2.14c1-1.39,2.59-3.65,2.48-6.56l1.19-1.26.12-.13a4.81,4.81,0,0,0-1-7.42L195,249.15a4.82,4.82,0,0,0-2.49-.7,4.82,4.82,0,0,0-4.66,3.63l-.35,1.38a8.94,8.94,0,0,0-6,4.44c-.55-.37-1.19-.81-1.94-1.36-4.35-3.12-5.92-7.83-7.73-13.28a65.34,65.34,0,0,0-3.3-8.45,2.7,2.7,0,0,0,0-1.28c-.87-2.94-3.51-5.57-7.59-8.15-.4-.3-.76-.62-1.19-.92a14.74,14.74,0,0,0-1.57-.92,10.37,10.37,0,0,0-1.79-3.44,4.81,4.81,0,0,0-1.6-1.32c-.91-1-2.27-4.64-3.25-8.43a7.87,7.87,0,0,0,1.17-2.37,10,10,0,0,0-1-7.44l0-.07a36.6,36.6,0,0,1-1.32-7,5.93,5.93,0,0,0,.92-1.55,7.43,7.43,0,0,0-.91-6.6c0-.21.1-.41.14-.62l20-2.37a4.81,4.81,0,0,0-.3-9.57l-12.67-.7,9.36-4.37a4.81,4.81,0,0,0-2-9.16,4.92,4.92,0,0,0-1.09.12l-17.33,4,8.27-11.58a4.81,4.81,0,0,0-7-6.48l-13.88,11.65a18.29,18.29,0,0,0-2.72-.68l-4.79-16.32a4.81,4.81,0,0,0-9.42,1.36V156.2a25.29,25.29,0,0,0-2.43.88L97.09,146.23a4.81,4.81,0,0,0-6.29,1.06l-.2.27-.52-1.71c-1-3.26-2-6.63-2.81-10-.89-3.91-1-8.33-1-13-.1-8-.2-16.26-4.49-23.56a9.89,9.89,0,0,1-1.59-3.75,17.09,17.09,0,0,1,2.95-2.13c1.2-.77,2.57-1.64,4-2.75,4.3-3.31,4-8.59,3.83-12.45-.05-1.07-.11-2.08-.07-3a4.8,4.8,0,0,0-1.46-3.64A13.51,13.51,0,0,0,82,68.3c.58-.8,1.27-1.65,1.79-2.3,3.59-4.45,9-11.18,4.88-20.14a4.8,4.8,0,0,0-4.36-2.79,4.63,4.63,0,0,0-.52,0A4.81,4.81,0,0,0,79.9,46a12.86,12.86,0,0,0-1.32-2.56,4.81,4.81,0,0,0-3.94-2.05l-.51,0c-4.06.42-6.51,2.9-8.3,4.7-1.46,1.47-2,1.9-2.61,1.9a5.52,5.52,0,0,1-2.07-.55,4.75,4.75,0,0,0-1.89-.39,4.81,4.81,0,0,0-3.51,8.09,15.58,15.58,0,0,1,0,2.8c-.17,2.72-.39,6.3,1.4,9.83C52.25,68,49.66,68.89,49,72.3c-2,11.19,2.84,16.08,6.07,19.32a18.09,18.09,0,0,1,2.27,2.55c-.16.27-.31.56-.46.87-2.39,5.2-1.39,17.58.56,20.8.8,1.33.77,4.15.75,6.21,0,2.79-.05,5.2,1.59,7.15,4.31,5.13,4.64,14.61,5,24.64.29,8.18.59,16.63,3.12,24,1.48,4.29-.29,8.24-3.3,14.32-2.61,5.27-5.56,11.24-5.25,18.39.34,7.92,3.25,13.65,7.91,16.14-1,4,.53,7.1,4.56,9.87a6.23,6.23,0,0,1,2.48,2.42,3.49,3.49,0,0,0,.19.37c.29,2.14-.49,8.76-.87,12-.64,5.45-.84,7.42-.44,9a4.75,4.75,0,0,0,1.23,2.18c6.55,6.7,4.82,11.53.62,21-2.22,5-4.74,10.65-5.37,17.23-.73,7.72.42,13.14,3.53,16.56a11.11,11.11,0,0,0,5.39,3.24,2.67,2.67,0,0,0,.06.83,49.51,49.51,0,0,1-2.42,6.8c-1.88,4.57-4,9.75-3.66,15.4a42.46,42.46,0,0,0,2.77,11.56,48,48,0,0,1,1.91,6.42c-.7,7.44.82,16,2.3,23.56.11.55-.16,1.24-.8,2.69-.93,2.1-2.21,5-1.43,8.68.07.31.19.88.35,1.59.31,1.39,1.11,5,1.5,7.06-4.77,8.11-3.3,23.79-1.89,32.9a77.29,77.29,0,0,0,3.16,13,7.33,7.33,0,0,0-2.29,4.39c-.06.15-.08.31-.13.46-.41.73-.63,1.15-.65,1.19a2.71,2.71,0,0,0,0,2.43,28.35,28.35,0,0,0,1.11,7.81c.59,2.43,1.16,4.72.76,6.44-1.82,5.25-7,9.42-10,10.87a47.12,47.12,0,0,1-6.18,2c-8,2.16-11.43,5-11.95,16.87a6.86,6.86,0,0,0-5.16,3.71c-1.32,2.88-.23,6,1.82,9.87,1.66,3.11.56,8.25-1.39,11.72a13.11,13.11,0,0,0-1.62,7.68,57.81,57.81,0,0,1-6.27-1.62,4.81,4.81,0,0,0-3.07-1.11,5,5,0,0,0-.89.08c-4.36.81-7.35,2.54-9.14,5.29-2.77,4.25-1.62,9.18-.51,13.94a36.47,36.47,0,0,1,1.19,7.1c.05,2.1,1.16,3.64,4.45,8.2l.63.87c-.1,0-.18.13-.28.18h6.29c-3-4.35-6.27-8.47-6.29-9.37-.25-9.63-7.51-19.23,4.53-21.48-1.38.27,7.88,2.78,9.62,2.78,8.66,0,2.21-4.25,5.54-10.19,2.59-4.62,4.05-11.43,1.44-16.33-5.65-10.6,3.58-3.15,3.89-10.91.56-14,4.6-10.41,15.31-14.9,4.26-2.05,10.39-7.28,12.6-13.89,1.34-5-1.87-10.46-1.7-15.4,0-.06.09-.11.13-.19a76,76,0,0,1,19.69-22.86c.06,11.9-.34,46.62-6.71,58.57a2.76,2.76,0,0,0,4.88,2.6c8.11-15.21,7.42-60.39,7.32-65a63.84,63.84,0,0,1,25.09-9.38l1,103.76a2.77,2.77,0,0,0,2.76,2.74h0a2.77,2.77,0,0,0,2.74-2.79l-1-104.25a70.32,70.32,0,0,1,10.18.1,2.71,2.71,0,0,0,2.1-.72,2.76,2.76,0,0,0,.9-2c0-5.65.19-11.3.27-13.26a44.75,44.75,0,0,0,24.24-10.11,2.76,2.76,0,0,0,.88-2.2l-8.13-133.08a2.76,2.76,0,0,0-5.52.34l8,131.67a40.61,40.61,0,0,1-27.79,7.95c3-61.13,5.94-112.7,6-113.22a2.76,2.76,0,0,0-5.52-.31c0,.53-3.08,53.56-6.09,115.83a2.76,2.76,0,0,0,2.35,2.87,47.39,47.39,0,0,0,6,.49c-.07,1.87-.2,5.77-.24,10.08a73.8,73.8,0,0,0-10.18.25,1.94,1.94,0,0,0-.27-.06h0a2.69,2.69,0,0,0-.73.15c-25.52,2.71-42,18.45-50.4,29.22a73.78,73.78,0,0,1-2.14-9.57c-1.09-7.05-3.13-25.07,2.17-31,0-1.22-1.86-9.32-2.19-10.85-.92-4.35,3.08-7.05,2.24-11.31C83.11,378,81.73,370.58,82,364.06c.07,0,.13,0,.2,0a2.75,2.75,0,0,0,1.91-.77c1.92-1.84,47.24-45.78,56.08-100.12a2.76,2.76,0,1,0-5.45-.89c-7.76,47.74-46.05,88.52-53.27,95.85-1.37-4.93-3.66-9.51-4-14.93-.45-7.15,4.28-13.91,6-20.69a2.77,2.77,0,0,0,.63-1.07c.15-.52,15.45-52,57.52-73.48a2.77,2.77,0,0,0-2.52-4.92c-37.65,19.26-54.44,59.81-59,72.81-5.78-1.45-6.06-8.9-5.5-14.73,1.58-16.63,17.4-27.7,3.39-42-.55-2.18,2.93-20.1.81-22.23-2.42-5.22-8.19-4.48-6.57-9.71a34.1,34.1,0,0,0,23-23.38,2.76,2.76,0,1,0-5.31-1.52,28.64,28.64,0,0,1-20.54,19.94c-3.68-2.16-4.94-7.52-5.14-11.95-.56-12.95,12.37-22.3,8.29-34.07-5.41-15.65.35-39-9-50.12-1.22-1.45.64-8.53-1.91-12.75-1.22-2-2.65-17.18,1.31-17.84-1.15-8.43-11.76-7.94-9.14-22.36.09-.52,6.48-.64,9.19-.64.72,0,1.18,0,1.19,0,1.17-2.08-.93-4.25-2.08-5.84-3.7-5.12.43-11.63-2.82-14.82a10.14,10.14,0,0,0,4,.94c5.24,0,6.48-6.11,11.41-6.62,1.16,1.65,2.28,6,1.79,8.08,1.41-1.35,6.63-.7,7.89-6.39,5.26,11.38-11.64,17.6-7.75,24.87h.57c1.7,0,6.69.13,8.92,2.28-.17,4.23,1.21,9.41-1.88,11.79-6.33,4.86-12.18,5.31-6.57,14.87,6,10.2,2.39,23.95,5,35.2,2.36,10.28,6.54,19.18,7,29.77v.2c0,.42.15,1.64.38,3.19l17.3-.6s1.31-2.77,2.61-3.42L94.54,150.3l19.61,12.27s4-2.3,7.2-2.3h.33V140.67l5.72,19.45s5.07,0,7,2l16.36-13.73L139,164.85a12.81,12.81,0,0,1,3.94,3.61l21.91-5.08-19.62,9.16a35.66,35.66,0,0,1,1,3.76l23.71,1.3-23.55,2.79a36.77,36.77,0,0,1-1.31,5.89s3.93,4.42.17,4.75c0,0,.82,9.63,2.29,11.93,0,0,2.28,3.93-1.31,5.73,0,0,1.38,6.79,3.58,11.08-2.92-1.26-6.13-2.54-9.61-3.88h0s-1.93-2.9-1.81-4.53c0,.29-.15,1.94-.15,3.79l-5.07-1.92c-4.53-1.69-8.8-3.29-12.42-4.81-10.9-4.57-14.25-10.73-15.23-13.37A11.93,11.93,0,0,0,107,193h0c-.26,0-1.81-.15-.46-3.74a27.24,27.24,0,0,0,.66-5.08,16,16,0,0,1-1.47-2.94l-12,.62c1.53,3.22,3.26,6.54,5.07,9.8a14.73,14.73,0,0,0,1,2.05,2.73,2.73,0,0,0,0,.92c.07.48,2,11.78,18.94,18.89,3.72,1.57,8,3.19,12.62,4.9,10.52,3.94,25.68,9.62,30.55,14.52a21.75,21.75,0,0,1,1.4,2s.06.1.07.14a2.75,2.75,0,0,0,.63,1.05c4.36,8.15,4.49,18.23,12.94,24.3,4,2.88,6,3.9,7,3.9,2.55,0-.83-6.5,7.61-6.52l1.15-4.57,23.23,14.06-3.12,3.28c1.93,3.64-2.52,5.17-3.44,10-.42,2.22,3.66,4.79,1.73,9-1.6,3.46-7.19,17-12.88,17a3.66,3.66,0,0,1-1.44-.3c-2,3.66-1,11.88-1.87,16.08-2.65,13-18.85,16.58-17.75,26.28,1.44,12.81,5.27,27.4,4.1,40.19.05,4.78-1.36,9.8-1.25,13.11.16,5.31-2.89,10.68-2.59,13.63,2.26,21.81-9,41.07-3.38,65.48,1.9,8.24,6.35,12.38,11.72,18.42,4.86,5.46,1.3,7.3,3.35,13.48,0,0,0-.05,0-.05.52,0,9.33,8.76,6,8.76a2.81,2.81,0,0,1-.49,0c.43,4.48-5.43,8.92-2.62,15,1.1,2.41,15.81,14.84,19.29,15.79,5.09,1.4,3.18,10.29,1.69,17h7.53a2.76,2.76,0,0,1,0,5.53h-.16V599H33.29V575H30.9a2.74,2.74,0,0,1-2.4-1.47s0,.09,0,.13V599a4.8,4.8,0,0,0,4.81,4.8H220.22A4.8,4.8,0,0,0,225,599v-25.4A4.81,4.81,0,0,0,220.22,568.82ZM102,164.8l-7.66.27a60.93,60.93,0,0,0-1.57-9.71Zm.13,21.4c-.07.4-.14.83-.22,1.24l-.65-1.2Z" transform="translate(-23.81 -29.54)" style="fill: #304154"/>
    </g>
    <path d="M30.9,575H220.37a2.76,2.76,0,0,0,0-5.53H30.9a2.76,2.76,0,0,0-2.76,2.76,2.69,2.69,0,0,0,.36,1.29A2.74,2.74,0,0,0,30.9,575Z" transform="translate(-23.81 -29.54)" style="fill: #304154"/>
    <path d="M501.87,51.78a44.89,44.89,0,1,0,44.89,44.89A44.94,44.94,0,0,0,501.87,51.78Zm3,30.13A44.44,44.44,0,0,0,532,70.33a39.91,39.91,0,0,1,9.81,23.94h-37Zm0-4.78V56.72a39.87,39.87,0,0,1,23.79,10.21A39.73,39.73,0,0,1,504.89,77.13Zm-4.78-20.47V77.19a39.75,39.75,0,0,1-25.05-10.26A39.89,39.89,0,0,1,500.11,56.65ZM471.7,70.33A44.4,44.4,0,0,0,500.11,82v12.3H461.89A39.89,39.89,0,0,1,471.7,70.33Zm28.41,28.72v12.31A44.35,44.35,0,0,0,471.7,123a39.87,39.87,0,0,1-9.81-23.94Zm0,17.09v20.54a39.91,39.91,0,0,1-25.06-10.28A39.6,39.6,0,0,1,500.11,116.14Zm4.78,20.47V116.21a39.7,39.7,0,0,1,23.79,10.19A39.88,39.88,0,0,1,504.89,136.61ZM532,123a44.46,44.46,0,0,0-27.15-11.58V99.05h37A39.87,39.87,0,0,1,532,123Z" transform="translate(-23.81 -29.54)" style="fill: #304154"/>
    <g>
      <path d="M544.73,217.62a2.38,2.38,0,0,0-1.77-.67c-.68,0-1.37.06-2.06.06-13.45,0-26.39-6.36-35.5-17.44a8.47,8.47,0,0,0-6.54-2.54,9.4,9.4,0,0,0-6.86,2.6C481.11,211.16,469.18,217,456.54,217c-.7,0-1.38,0-2.07-.06a2.4,2.4,0,0,0-2.5,2.41c.27,33.38,18.2,63.76,45.68,77.4a2.41,2.41,0,0,0,2.12,0c27.49-13.64,45.42-44,45.68-77.4A2.38,2.38,0,0,0,544.73,217.62Zm-72.58,50.72a84,84,0,0,1-9.34-17.56h9.34Zm4.69,6a2.33,2.33,0,0,0,.1-.49V250.78h11.34v34.45A75.26,75.26,0,0,1,476.83,274.36Zm21.89,17.58c-2-1-3.83-2.14-5.67-3.32V250.78h11.34v37.83C502.54,289.79,500.67,290.93,498.72,291.93Zm10.45-6.7V250.78h11.34v23.61s0,0,0,.06A75.21,75.21,0,0,1,509.17,285.23Zm16.12-16.9V250.78h9.33A83.71,83.71,0,0,1,525.29,268.33Zm11-22.33H461.1a88.6,88.6,0,0,1-4.29-24.21c13.71-.08,27.08-6.61,38.66-18.87a4.91,4.91,0,0,1,3.39-1.1,4.22,4.22,0,0,1,2.85.8c10,12.11,24.13,19.09,38.92,19.18A88.64,88.64,0,0,1,536.33,246Z" transform="translate(-23.81 -29.54)" style="fill: #304154"/>
      <path d="M482.78,228.26,479,227.7l-1.7-3.43a2.49,2.49,0,0,0-4.29,0l-1.69,3.43-3.79.55a2.39,2.39,0,0,0-1.32,4.08l2.74,2.68-.65,3.77a2.39,2.39,0,0,0,3.47,2.52l3.39-1.78,3.39,1.78a2.43,2.43,0,0,0,1.11.27,2.39,2.39,0,0,0,2.36-2.79l-.65-3.77,2.74-2.68a2.39,2.39,0,0,0-1.32-4.08Z" transform="translate(-23.81 -29.54)" style="fill: #304154"/>
      <path d="M516.08,235l-.65,3.77a2.39,2.39,0,0,0,2.36,2.79,2.43,2.43,0,0,0,1.11-.27l3.39-1.78,3.39,1.78a2.39,2.39,0,0,0,3.47-2.52L528.5,235l2.74-2.68a2.39,2.39,0,0,0-1.33-4.08l-3.79-.55-1.7-3.43a2.49,2.49,0,0,0-4.29,0l-1.7,3.43-3.79.55a2.39,2.39,0,0,0-1.32,4.08Z" transform="translate(-23.81 -29.54)" style="fill: #304154"/>
      <path d="M501.17,215.12a2.39,2.39,0,0,0-4.29,0l-2.18,4.41-4.87.71a2.39,2.39,0,0,0-1.33,4.08l3.52,3.43-.83,4.85a2.39,2.39,0,0,0,3.47,2.52l4.35-2.29,4.36,2.29a2.39,2.39,0,0,0,3.47-2.52l-.83-4.85,3.52-3.43a2.39,2.39,0,0,0-1.32-4.08l-4.87-.71Z" transform="translate(-23.81 -29.54)" style="fill: #304154"/>
    </g>
    <path d="M525.07,437a2.38,2.38,0,0,0-.62-1.48L514,424.1V411.16c0-4.26-3.69-8.68-8.21-12.52h2.68a2.39,2.39,0,0,0,2.37-2l2.52-17a2.39,2.39,0,0,0-2.37-2.74H508c4.86-5.33,12.79-16,11.46-27.46a2.36,2.36,0,0,0-1.27-1.84,2.4,2.4,0,0,0-2.24,0,21,21,0,0,1-7.46,2.22,16.22,16.22,0,0,0,1.41-7.51,2.39,2.39,0,0,0-4.1-1.44c-3.49,3.62-9.92,3.2-16.72,2.75-9-.59-19.16-1.27-24.84,7.68-6.7,10.58-3,20.34.15,25.59H461a2.39,2.39,0,0,0-2.37,2.74l.23,1.58a6.37,6.37,0,0,0-1.15-.11,6.55,6.55,0,0,0-2.42,12.64L461.1,396l.09.58a2.39,2.39,0,0,0,2.36,2h.31a6.56,6.56,0,0,0-.4,2.19,6.48,6.48,0,0,0,1.65,4.3,6.44,6.44,0,0,0,0,8.6,6.49,6.49,0,0,0-1.65,4.3,5.25,5.25,0,0,0,1.39,4c1.38,1.2,10.6,8.37,10.6,8.37V436A10.39,10.39,0,0,0,478,442.8a8.89,8.89,0,0,0-1,4.07,9,9,0,0,0,18,0,8.87,8.87,0,0,0-1-4.08,10.33,10.33,0,0,0,1-1.44,101,101,0,0,0,8.55,11.28,2.42,2.42,0,0,0,1.2.72,25.22,25.22,0,0,0,5.92.78,13.24,13.24,0,0,0,10.06-4C525.47,445.16,525.09,437.36,525.07,437Zm-68-47.74a1.78,1.78,0,0,1-1-2.31,1.76,1.76,0,0,1,1.65-1.12,1.66,1.66,0,0,1,.65.13l1.29.51.6,4Zm11.22-35.44c4.15-6.55,12.09-6,20.48-5.47,5.44.36,11,.72,15.58-1a35.27,35.27,0,0,1-6.87,10.48,2.39,2.39,0,0,0,3.45,3.32,44.55,44.55,0,0,0,5-6.41,28.43,28.43,0,0,0,8.9-1.46c-.84,12.3-13.35,23.44-13.49,23.55l0,0H479.38a13.42,13.42,0,0,1-1.55-9.35c.84-3.49,3.44-6.55,7.72-9.08a2.39,2.39,0,0,0-2.43-4.12c-5.47,3.24-8.82,7.32-10,12.15a17.46,17.46,0,0,0,.93,10.4h-3.9C468.08,374.2,461.56,364.53,468.33,353.85Zm-4.52,27.81h44.38l-1.81,12.2h-7c-2.62-1.75-5.09-3.19-7-4.22h9.27a2.39,2.39,0,0,0,0-4.79H470.73a2.39,2.39,0,0,0,0,4.79h15.66a11.78,11.78,0,0,0-1.3,4.22H465.62ZM481.39,418a1.77,1.77,0,0,1-1.77,1.77H470a1.77,1.77,0,0,1,0-3.54h9.6A1.77,1.77,0,0,1,481.39,418ZM470,411.2a1.77,1.77,0,0,1,0-3.54h14.91a1.77,1.77,0,0,1,0,3.54Zm0-12.14h15.8a15.71,15.71,0,0,0,1.91,3.54H470a1.77,1.77,0,0,1,0-3.54Zm19.41,41.48a2.39,2.39,0,0,0-.33,3.52,4.2,4.2,0,1,1-6.18,0,2.37,2.37,0,0,0,.61-1.84,2.4,2.4,0,0,0-.95-1.69,5.69,5.69,0,0,1-2.33-4.58V424.52a6.54,6.54,0,0,0,5.93-6.49,6.43,6.43,0,0,0-.39-2.13,6.49,6.49,0,0,0,3.54-1.64c-3.15,8.55.4,18.35.61,18.9a2.56,2.56,0,0,0,.17.36c.08.13.67,1.16,1.62,2.7A5.7,5.7,0,0,1,489.42,440.54Zm27.84,6.33c-2.27,2.39-5.81,3-10.64,2-5.73-6.52-11.43-16.14-12.28-17.57-.58-1.68-4.86-15.17,4-21.29a2.39,2.39,0,0,0,0-3.94c-8.16-5.65-9-9.83-8.47-12.36,8.67,4.83,19.28,12.66,19.28,17.44V425a2.37,2.37,0,0,0,.63,1.61l10.47,11.46C520.24,439.86,519.84,444.16,517.26,446.88Z" transform="translate(-23.81 -29.54)" style="fill: #304154"/>
    <g>
      <path d="M395.84,88.48c-.25-.82-6.46-20.53-23.24-19.65a18.31,18.31,0,0,0-5.75-1,12.5,12.5,0,0,0-5,1c-.33,0-.76,0-1.27,0a20.6,20.6,0,0,0-3.94.35,22.14,22.14,0,0,0-15.22-15.85c-3.07-.77-2.76,7.2-2.76,7.2,3.56,2.25,3.06,6.86,2.65,8.84a18.81,18.81,0,0,0-4.76-.54c-.5,0-.94,0-1.27,0a12.49,12.49,0,0,0-5-1,18.31,18.31,0,0,0-5.75,1c-16.87-.93-23,18.83-23.21,19.56-7.63,21.77,1.77,38.5,2.1,39.06,4,8.28,14.88,12.65,31.42,12.65a102.16,102.16,0,0,0,13.75-.94,102.05,102.05,0,0,0,13.75.94h0c16.53,0,27.39-4.37,31.34-12.5C394,126.89,403.44,110.16,395.84,88.48Zm-6.43,36.88c-4,8.23-17,10-27.11,10h0a96,96,0,0,1-13.39-.95l-.35,0-.35,0a96,96,0,0,1-13.4.95c-10.16,0-23.12-1.73-27.19-10.1a45.75,45.75,0,0,1-1.78-35.34c.05-.17,5.41-17.29,18.82-16.24a2.39,2.39,0,0,0,1.1-.17,13.39,13.39,0,0,1,4.49-.84,7.45,7.45,0,0,1,3.45.76,2.36,2.36,0,0,0,1.31.26s.65-.06,1.52-.06a10.64,10.64,0,0,1,4.72.81,2.39,2.39,0,0,0,2.85-.32,5.81,5.81,0,0,1,8.9,0,2.39,2.39,0,0,0,2.85.32,10.67,10.67,0,0,1,4.72-.81c.86,0,1.47.05,1.52.06a2.36,2.36,0,0,0,1.31-.26,7.42,7.42,0,0,1,3.46-.76,13.43,13.43,0,0,1,4.48.84,2.45,2.45,0,0,0,1.11.18c13.35-1,18.77,16.07,18.85,16.34A45.65,45.65,0,0,1,389.41,125.36Z" transform="translate(-23.81 -29.54)" style="fill: #304154"/>
      <path d="M331.31,107.92l8.43-9.19L327.48,82.94S324.56,103.17,331.31,107.92Z" transform="translate(-23.81 -29.54)" style="fill: #304154"/>
      <path d="M368.69,81.26,357,97l10,9.35C373.13,97.81,368.69,81.26,368.69,81.26Z" transform="translate(-23.81 -29.54)" style="fill: #304154"/>
      <polygon points="324.89 71.48 319.38 79.76 330.1 80.06 324.89 71.48" style="fill: #304154"/>
      <path d="M372.8,118l-4.73-2.75-2.92,3.22-4-2.46-6.68,3.68-5.87-3.11-6.92,4-5.34-2.89-7.45,4a20.62,20.62,0,0,1-7.66-12.22s-16.82,8.84,7.2,19.74l8.73-7.05L344,130l5.53-9.22,5.59,9.5,4.52-9,4.6,7.61,4.28-7.61,4.9,6s16.19-7.2,3.07-19.75C376.51,107.48,375.25,115.73,372.8,118Z" transform="translate(-23.81 -29.54)" style="fill: #304154"/>
    </g>
    <path d="M395.16,242.85a6.74,6.74,0,0,0-3.35-4.12c-2.62-1.13-6.34-1.7-11.07-1.7-1.91,0-3.74.09-5.29.21l7.93-13.12s7.46-11.82-4.77-12.44c0,0-67.25-2.11-87.71-2.77-2.22-.07-2.52,1.07-.08,5,6.71,10.85,22.87,32.56,43.72,31.69,0,0,2.94.72,12.35-6.18l-11.2,8.73s9.74-2.29,9.33,3.73c0,0-4.76-4.15-9.53-1.25l-25.71,17.83s-5,3.11,1.87,3.11c0,0,4.35,2.7,20.31-10.78L321.6,271.59s7.46,3.11,11.61-6v2.69s6.43.62,7.05-3.11c0,0-.83-5.6,1.44-3.32,0,0,5.46,5.46,9.19,7.52a19.86,19.86,0,0,0-3,6,2.55,2.55,0,0,0,1.81,3.12,2.46,2.46,0,0,0,.66.09,2.56,2.56,0,0,0,2.47-1.88c0-.05,1.44-5.15,5.27-7.11a10.68,10.68,0,0,1,8-.29,2.56,2.56,0,0,0,1.95-4.73c-.26-.1-6.34-2.56-12.26.47-.17.08-.32.19-.48.28-2.18-.68-5.16-2.25-4.48-5.74l6.63-6.43-1,3.11,31.88-4.54c3.26-.54,5-1.87,6-3.19,3-.36,6.35-.3,6.52,1.75C400.82,250.27,401.34,243.12,395.16,242.85Zm-7.66,3.81-18.71,2.9,4.09-6.94a70.67,70.67,0,0,1,7.86-.48c1.19,0,2.27.05,3.29.13a2.07,2.07,0,0,0-.56,1.41,2.1,2.1,0,1,0,4.2,0,2,2,0,0,0-.25-.95,12.77,12.77,0,0,1,2.27.65,2.23,2.23,0,0,1,.68,1.8C390.21,245.83,389.13,246.39,387.49,246.66Z" transform="translate(-23.81 -29.54)" style="fill: #304154"/>
    <path d="M552.36,558.56a2.59,2.59,0,0,0-2.36-.48,176.26,176.26,0,0,1-21.72,4.55c-.82-3.28-1.66-6.52-2.29-8.95,12.26-3.53,18.51-8.75,18.51-8.75,2.1-2.09-3.88-7.9-3.88-7.9a4,4,0,0,1-2.09-1.78c-1.45-3.7-7-12.26-10.32-15.47C513.64,505.85,503.5,506.61,494.5,507c-23.54,1.12-38.71,20.31-38.71,20.31-11.13,13.4-8.66,27.62-5.64,36.3,1.52,4.38,5.16,14.36,5.16,14.36,1.45,4.05,3.55,3.7,3.55,3.7s10.17-.34,13.55-.48c6.94-.29,14.52,2.81,18.55,5.48,3.72,2.47,10.8,3.94,14.83,3.55,10.32-1,14.2-17.1,14.2-17.1a11.56,11.56,0,0,0,.35-4.66c1.3,0,2.64-.11,4-.23.39,1.61.74,3.11,1,4.38,2,8.93,7.88,14.93,14.75,14.93h8.82a2.59,2.59,0,0,0,2.59-2.4l1.81-24.42A2.61,2.61,0,0,0,552.36,558.56ZM473.9,535a1.31,1.31,0,0,1-1,.88l-3.72.54-1.66,3.37a1.3,1.3,0,0,1-1.16.72h0a1.29,1.29,0,0,1-1.16-.72l-1.67-3.37-3.72-.54a1.3,1.3,0,0,1-.72-2.22l2.69-2.63-.64-3.7A1.3,1.3,0,0,1,463,526l3.33,1.75,3.33-1.75a1.3,1.3,0,0,1,1.88,1.37l-.64,3.7,2.69,2.63A1.3,1.3,0,0,1,473.9,535Zm1.82-11.26a1.29,1.29,0,0,1,.33-1.33l1.55-1.51-.37-2.13a1.3,1.3,0,0,1,1.88-1.37l1.92,1,1.92-1a1.29,1.29,0,0,1,1.88,1.37l-.37,2.13,1.55,1.51a1.3,1.3,0,0,1-.72,2.21l-2.14.31-1,1.94a1.3,1.3,0,0,1-2.33,0l-1-1.94-2.15-.31A1.3,1.3,0,0,1,475.72,523.78ZM490.5,541.7l-3,.44-1.35,2.73a1.3,1.3,0,0,1-1.16.72h0a1.3,1.3,0,0,1-1.16-.72l-1.35-2.73-3-.44a1.3,1.3,0,0,1-.72-2.22l2.18-2.12-.51-3a1.29,1.29,0,0,1,1.88-1.36l2.69,1.42,2.7-1.42a1.3,1.3,0,0,1,1.88,1.36l-.52,3,2.18,2.12a1.3,1.3,0,0,1-.72,2.22Zm10.12,37.84a9.45,9.45,0,1,1,9.45-9.45A9.45,9.45,0,0,1,500.61,579.54Zm17.28-16.21h0c-4.68-4.68-.16-7.75-.16-7.75,1.12-.19,2.2-.4,3.24-.62.58,2.25,1.35,5.21,2.11,8.23C521.27,563.33,519.55,563.36,517.89,563.34Zm28.61,19.07H540.1c-4.3,0-8.28-4.46-9.68-10.85-.25-1.14-.55-2.45-.89-3.85A172,172,0,0,0,547.87,564Z" transform="translate(-23.81 -29.54)" style="fill: #304154"/>
    <g>
      <path d="M389,422.67a2.46,2.46,0,0,0-.64-.13h-8.68V365.88a14.07,14.07,0,0,0-14.06-14.06H312.3c-.05,0-.1,0-.15,0s-.4,0-.6,0a11.74,11.74,0,0,0-11.72,11.72c0,5.62,4,9.85,9.29,9.85h11.71v56.69a14.08,14.08,0,0,0,14.06,14.06c.17,0,.33,0,.5-.05s.16.05.25.05h49.92a11.74,11.74,0,0,0,11.72-11.73C397.28,427.18,393.78,423.19,389,422.67Zm-84.4-59.12a7,7,0,0,1,6.94-6.94,9.26,9.26,0,0,1,8.66,6h-5.69a2.39,2.39,0,0,0-2.39,2.39c0,1.78-.93,3.58-3,3.58C306,368.63,304.61,366,304.61,363.55Zm11.58,5.08a8.56,8.56,0,0,0,.38-1.19h4.25v1.19Zm9.42,61.46V365.88a14,14,0,0,0-3.52-9.27h43.55a9.29,9.29,0,0,1,9.27,9.27v56.66H338.46a2.3,2.3,0,0,0-.46.1c-.23,0-.44-.07-.68-.07-4.44,0-7.79,3.59-7.79,8.37a2.39,2.39,0,0,0,2.39,2.39h9.82a6.93,6.93,0,0,1-6.85,6A9.29,9.29,0,0,1,325.61,430.09Zm11.71-2.74a4.13,4.13,0,0,1,3,1.19H335A2.71,2.71,0,0,1,337.32,427.35Zm48.24,12H344.28a11.63,11.63,0,0,0,2.33-6.94,11,11,0,0,0-.13-1.43s0,0,0-.06,0-.1,0-.16a10.19,10.19,0,0,0-1.15-3.45h42.56l.13,0c3.1,0,4.51,2.63,4.51,5.07A7,7,0,0,1,385.56,439.37Z" transform="translate(-23.81 -29.54)" style="fill: #304154"/>
      <path d="M332.82,376h37a2.39,2.39,0,0,0,0-4.78h-37a2.39,2.39,0,0,0,0,4.78Z" transform="translate(-23.81 -29.54)" style="fill: #304154"/>
      <path d="M332.82,388.66h37a2.39,2.39,0,0,0,0-4.78h-37a2.39,2.39,0,0,0,0,4.78Z" transform="translate(-23.81 -29.54)" style="fill: #304154"/>
      <path d="M332.82,401.33h37a2.39,2.39,0,0,0,0-4.78h-37a2.39,2.39,0,0,0,0,4.78Z" transform="translate(-23.81 -29.54)" style="fill: #304154"/>
      <path d="M332.82,414h37a2.39,2.39,0,0,0,0-4.79h-37a2.39,2.39,0,0,0,0,4.79Z" transform="translate(-23.81 -29.54)" style="fill: #304154"/>
    </g>
    <g>
      <path d="M392.64,577.11c0-1,.76-2.47-.11-3.24L366.13,550a4.86,4.86,0,0,1-1.29-3.24l-.43-15.67a9.85,9.85,0,0,0-.87-3.56l-2-3.22v-2.4c.4-8.89,0-11.5-.39-12.65A76.74,76.74,0,0,0,356.36,496a2.13,2.13,0,0,0-.46-.62,6.77,6.77,0,0,0-5.75-2.75,7,7,0,0,0-5.39,2.42,2.39,2.39,0,0,0-.81.93,77.14,77.14,0,0,0-4.84,13.35h0c-.94,3.07-1.47,12.72-1.47,12.8v3.64l-.91,1.73a10.15,10.15,0,0,0-1,3.56l-.64,15.67a5.31,5.31,0,0,1-1.66,3.24L306,573.87a5.47,5.47,0,0,0-1.87,3.24v7.29c0,1,1.37,1.93,2.68,2l26.68,2v.26c0,.86.07,1.49.09,1.78s0,1.16,0,1.2c0,1.12.86,4.38,3.48,4.38h.56v.66a4.08,4.08,0,0,0,1,3.14,3.41,3.41,0,0,0,2.53,1h17.59c.08,0,7.62-.47,7.62-4.38v-2.79a2.36,2.36,0,0,0-.09-.46,10.5,10.5,0,0,0,.45-2.33s0-1.19,0-1.78a2.38,2.38,0,0,0,0-.68h0l24.9-2c1.32-.1,1.1-1,1.1-2ZM347.74,499.2a2.39,2.39,0,0,0,.61-.9,2,2,0,0,1,1.81-.85c1.09,0,1.71.45,1.81.69a2.18,2.18,0,0,0,.45.73,75.71,75.71,0,0,1,3.31,8.71H344.59A77.07,77.07,0,0,1,347.74,499.2Zm-9.26,83.75c.29-2.85,2.7-7.5,3.61-9a2.38,2.38,0,0,0,.33-1.2V522.24c0-1.12.45-6.82.93-9.88h13.5a84.24,84.24,0,0,1-.06,9.37l0,51a2.39,2.39,0,0,0,.41,1.34c1,1.54,3.8,6.13,4.08,8.91.08.77.16,1.44.24,2a16.17,16.17,0,0,1,.21,2.71,4.88,4.88,0,0,0,.19,1.83c0,.54,0,1.25,0,1.25s0,.3-.09.49H338.39v-.72a2.33,2.33,0,0,0,0-.34c0-.17,0-.79-.09-1.72A40.26,40.26,0,0,1,338.48,582.95Zm36.41-7.16a3.34,3.34,0,1,1,3.34-3.35A3.34,3.34,0,0,1,374.89,575.79Z" transform="translate(-23.81 -29.54)" style="fill: #304154"/>
      <path d="M345.85,524.31h8.61c.32,0,.63-.8.79-1.34a3.8,3.8,0,0,0,0-1.93c-1.11-3.23-3-5.28-5.06-5.28s-3.95,1.87-5.06,5.11a4.67,4.67,0,0,0,0,2.14C345.22,523.53,345.52,524.31,345.85,524.31Z" transform="translate(-23.81 -29.54)" style="fill: #304154"/>
    </g>
  </g>
</svg>
